BosaLisu-Italic.ufo
<glyph name="quotedbl" format="2">
  <advance width="287"/>
  <unicode hex="0022"/>
  <outline>
    <contour>
      <point x="139" y="305" type="curve" smooth="yes"/>
      <point x="131" y="298"/>
      <point x="123" y="295"/>
      <point x="116" y="295" type="curve" smooth="yes"/>
      <point x="107" y="295"/>
      <point x="104" y="304"/>
      <point x="104" y="313" type="curve" smooth="yes"/>
      <point x="104" y="317"/>
      <point x="104" y="322"/>
      <point x="109" y="339" type="curve" smooth="yes"/>
      <point x="119" y="368"/>
      <point x="138" y="437"/>
      <point x="150" y="482" type="curve" smooth="yes"/>
      <point x="155" y="498"/>
      <point x="159" y="512"/>
      <point x="161" y="520" type="curve" smooth="yes"/>
      <point x="166" y="533"/>
      <point x="180" y="537"/>
      <point x="202" y="537" type="curve" smooth="yes"/>
      <point x="226" y="537"/>
      <point x="239" y="525"/>
      <point x="239" y="511" type="curve" smooth="yes"/>
      <point x="239" y="480"/>
      <point x="197" y="394"/>
      <point x="177" y="359" type="curve" smooth="yes"/>
      <point x="157" y="323"/>
      <point x="146" y="312"/>
    </contour>
    <contour>
      <point x="270" y="305" type="curve" smooth="yes"/>
      <point x="262" y="298"/>
      <point x="254" y="295"/>
      <point x="248" y="295" type="curve" smooth="yes"/>
      <point x="239" y="295"/>
      <point x="235" y="304"/>
      <point x="235" y="313" type="curve" smooth="yes"/>
      <point x="235" y="317"/>
      <point x="235" y="322"/>
      <point x="241" y="339" type="curve" smooth="yes"/>
      <point x="250" y="368"/>
      <point x="270" y="437"/>
      <point x="282" y="482" type="curve" smooth="yes"/>
      <point x="286" y="498"/>
      <point x="290" y="512"/>
      <point x="292" y="520" type="curve" smooth="yes"/>
      <point x="296" y="533"/>
      <point x="312" y="537"/>
      <point x="333" y="537" type="curve" smooth="yes"/>
      <point x="357" y="537"/>
      <point x="370" y="525"/>
      <point x="370" y="511" type="curve" smooth="yes"/>
      <point x="370" y="480"/>
      <point x="329" y="394"/>
      <point x="309" y="359" type="curve" smooth="yes"/>
      <point x="288" y="323"/>
      <point x="277" y="312"/>
    </contour>
  </outline>
</glyph>
<glyph name="dollar" format="2">
  <advance width="440"/>
  <unicode hex="0024"/>
  <guideline x="457" y="341" angle="250"/>
  <outline>
    <contour>
      <point x="206" y="381" type="curve" smooth="yes"/>
      <point x="206" y="334"/>
      <point x="385" y="250"/>
      <point x="385" y="159" type="curve" smooth="yes"/>
      <point x="385" y="85"/>
      <point x="320" y="24"/>
      <point x="222" y="24" type="curve" smooth="yes"/>
      <point x="154" y="24"/>
      <point x="95" y="70"/>
      <point x="79" y="98" type="curve" smooth="yes"/>
      <point x="71" y="110"/>
      <point x="63" y="125"/>
      <point x="63" y="139" type="curve" smooth="yes"/>
      <point x="63" y="159"/>
      <point x="98" y="172"/>
      <point x="114" y="172" type="curve" smooth="yes"/>
      <point x="120" y="172"/>
      <point x="123" y="170"/>
      <point x="128" y="163" type="curve" smooth="yes"/>
      <point x="131" y="158"/>
      <point x="134" y="153"/>
      <point x="140" y="143" type="curve" smooth="yes"/>
      <point x="152" y="123"/>
      <point x="182" y="93"/>
      <point x="231" y="93" type="curve" smooth="yes"/>
      <point x="277" y="93"/>
      <point x="314" y="117"/>
      <point x="314" y="149" type="curve" smooth="yes"/>
      <point x="314" y="218"/>
      <point x="135" y="280"/>
      <point x="135" y="375" type="curve" smooth="yes"/>
      <point x="135" y="438"/>
      <point x="188" y="503"/>
      <point x="286" y="503" type="curve" smooth="yes"/>
      <point x="340" y="503"/>
      <point x="380" y="482"/>
      <point x="403" y="461" type="curve" smooth="yes"/>
      <point x="420" y="446"/>
      <point x="433" y="426"/>
      <point x="433" y="414" type="curve" smooth="yes"/>
      <point x="433" y="398"/>
      <point x="395" y="382"/>
      <point x="380" y="382" type="curve" smooth="yes"/>
      <point x="373" y="382"/>
      <point x="368" y="387"/>
      <point x="363" y="393" type="curve" smooth="yes"/>
      <point x="342" y="421"/>
      <point x="316" y="434"/>
      <point x="277" y="434" type="curve" smooth="yes"/>
      <point x="236" y="434"/>
      <point x="206" y="412"/>
    </contour>
    <contour>
      <point x="168" y="-9" type="curve" smooth="yes"/>
      <point x="141" y="-9"/>
      <point x="133" y="3"/>
      <point x="133" y="11" type="curve" smooth="yes"/>
      <point x="133" y="18"/>
      <point x="136" y="24"/>
      <point x="138" y="30" type="curve" smooth="yes"/>
      <point x="151" y="67"/>
      <point x="164" y="104"/>
      <point x="177" y="140" type="curve" smooth="yes"/>
      <point x="210" y="230"/>
      <point x="239" y="313"/>
      <point x="269" y="403" type="curve" smooth="yes"/>
      <point x="280" y="436"/>
      <point x="290" y="468"/>
      <point x="301" y="502" type="curve" smooth="yes"/>
      <point x="302" y="507"/>
      <point x="308" y="523"/>
      <point x="313" y="529" type="curve" smooth="yes"/>
      <point x="318" y="535"/>
      <point x="327" y="538"/>
      <point x="343" y="538" type="curve" smooth="yes"/>
      <point x="363" y="538"/>
      <point x="381" y="527"/>
      <point x="381" y="516" type="curve" smooth="yes"/>
      <point x="381" y="513"/>
      <point x="377" y="501"/>
      <point x="375" y="495" type="curve" smooth="yes"/>
      <point x="357" y="453"/>
      <point x="341" y="409"/>
      <point x="325" y="366" type="curve" smooth="yes"/>
      <point x="291" y="270"/>
      <point x="260" y="177"/>
      <point x="236" y="104" type="curve" smooth="yes"/>
      <point x="224" y="66"/>
      <point x="215" y="33"/>
      <point x="210" y="17" type="curve" smooth="yes"/>
      <point x="206" y="0"/>
      <point x="194" y="-9"/>
    </contour>
  </outline>
</glyph>
<glyph name="ampersand" format="2">
  <advance width="489"/>
  <unicode hex="0026"/>
  <outline>
    <contour>
      <point x="286" y="319" type="curve"/>
      <point x="264" y="271" type="line"/>
      <point x="191" y="293"/>
      <point x="163" y="327"/>
      <point x="163" y="378" type="curve" smooth="yes"/>
      <point x="163" y="446"/>
      <point x="225" y="538"/>
      <point x="342" y="538" type="curve" smooth="yes"/>
      <point x="381" y="538"/>
      <point x="414" y="523"/>
      <point x="439" y="504" type="curve" smooth="yes"/>
      <point x="461" y="488"/>
      <point x="475" y="468"/>
      <point x="475" y="451" type="curve" smooth="yes"/>
      <point x="475" y="438"/>
      <point x="439" y="422"/>
      <point x="425" y="422" type="curve" smooth="yes"/>
      <point x="417" y="422"/>
      <point x="412" y="427"/>
      <point x="406" y="434" type="curve" smooth="yes"/>
      <point x="387" y="454"/>
      <point x="366" y="469"/>
      <point x="333" y="469" type="curve" smooth="yes"/>
      <point x="275" y="469"/>
      <point x="237" y="424"/>
      <point x="237" y="383" type="curve" smooth="yes"/>
      <point x="237" y="360"/>
      <point x="245" y="330"/>
    </contour>
    <contour>
      <point x="463" y="156" type="curve" smooth="yes"/>
      <point x="454" y="134"/>
      <point x="442" y="131"/>
      <point x="424" y="131" type="curve" smooth="yes"/>
      <point x="394" y="131"/>
      <point x="387" y="133"/>
      <point x="370" y="133" type="curve" smooth="yes"/>
      <point x="338" y="133"/>
      <point x="320" y="130"/>
      <point x="294" y="130" type="curve" smooth="yes"/>
      <point x="279" y="130"/>
      <point x="270" y="133"/>
      <point x="264" y="138" type="curve" smooth="yes"/>
      <point x="261" y="141"/>
      <point x="260" y="146"/>
      <point x="260" y="150" type="curve" smooth="yes"/>
      <point x="260" y="156"/>
      <point x="263" y="164"/>
      <point x="265" y="168" type="curve" smooth="yes"/>
      <point x="272" y="186"/>
      <point x="277" y="193"/>
      <point x="284" y="196" type="curve" smooth="yes"/>
      <point x="291" y="199"/>
      <point x="309" y="199"/>
      <point x="313" y="199" type="curve" smooth="yes"/>
      <point x="330" y="199"/>
      <point x="339" y="198"/>
      <point x="364" y="198" type="curve" smooth="yes"/>
      <point x="397" y="198"/>
      <point x="411" y="199"/>
      <point x="437" y="199" type="curve" smooth="yes"/>
      <point x="440" y="199"/>
      <point x="449" y="199"/>
      <point x="456" y="197" type="curve" smooth="yes"/>
      <point x="461" y="196"/>
      <point x="467" y="190"/>
      <point x="467" y="178" type="curve" smooth="yes"/>
      <point x="467" y="172"/>
      <point x="466" y="165"/>
    </contour>
    <contour>
      <point x="162" y="293" type="curve" smooth="yes"/>
      <point x="200" y="312"/>
      <point x="238" y="320"/>
      <point x="272" y="320" type="curve" smooth="yes"/>
      <point x="277" y="320"/>
      <point x="289" y="319"/>
      <point x="292" y="318" type="curve" smooth="yes"/>
      <point x="297" y="316"/>
      <point x="303" y="309"/>
      <point x="303" y="297" type="curve" smooth="yes"/>
      <point x="303" y="291"/>
      <point x="302" y="284"/>
      <point x="298" y="275" type="curve" smooth="yes"/>
      <point x="290" y="253"/>
      <point x="278" y="250"/>
      <point x="260" y="250" type="curve" smooth="yes"/>
      <point x="233" y="250"/>
      <point x="208" y="245"/>
      <point x="188" y="234" type="curve" smooth="yes"/>
      <point x="156" y="215"/>
      <point x="145" y="175"/>
      <point x="145" y="143" type="curve" smooth="yes"/>
      <point x="145" y="100"/>
      <point x="178" y="59"/>
      <point x="235" y="59" type="curve" smooth="yes"/>
      <point x="274" y="59"/>
      <point x="314" y="74"/>
      <point x="339" y="111" type="curve" smooth="yes"/>
      <point x="350" y="126"/>
      <point x="350" y="144"/>
      <point x="353" y="151" type="curve" smooth="yes"/>
      <point x="357" y="162"/>
      <point x="364" y="166"/>
      <point x="376" y="166" type="curve" smooth="yes"/>
      <point x="399" y="166"/>
      <point x="423" y="159"/>
      <point x="423" y="136" type="curve" smooth="yes"/>
      <point x="423" y="130"/>
      <point x="421" y="123"/>
      <point x="417" y="112" type="curve" smooth="yes"/>
      <point x="388" y="45"/>
      <point x="320" y="-10"/>
      <point x="227" y="-10" type="curve" smooth="yes"/>
      <point x="127" y="-10"/>
      <point x="74" y="53"/>
      <point x="74" y="132" type="curve" smooth="yes"/>
      <point x="74" y="200"/>
      <point x="110" y="269"/>
    </contour>
  </outline>
</glyph>
<glyph name="quotesingle" format="2">
  <advance width="141"/>
  <unicode hex="0027"/>
  <guideline x="108" y="315" angle="250"/>
  <outline>
    <contour>
      <point x="104" y="305" type="curve" smooth="yes"/>
      <point x="96" y="297"/>
      <point x="88" y="295"/>
      <point x="81" y="295" type="curve" smooth="yes"/>
      <point x="72" y="295"/>
      <point x="69" y="304"/>
      <point x="69" y="313" type="curve" smooth="yes"/>
      <point x="69" y="317"/>
      <point x="69" y="322"/>
      <point x="74" y="339" type="curve" smooth="yes"/>
      <point x="83" y="368"/>
      <point x="104" y="437"/>
      <point x="115" y="482" type="curve" smooth="yes"/>
      <point x="119" y="498"/>
      <point x="124" y="512"/>
      <point x="126" y="520" type="curve" smooth="yes"/>
      <point x="129" y="534"/>
      <point x="145" y="537"/>
      <point x="167" y="537" type="curve" smooth="yes"/>
      <point x="191" y="537"/>
      <point x="204" y="525"/>
      <point x="204" y="511" type="curve" smooth="yes"/>
      <point x="204" y="480"/>
      <point x="162" y="394"/>
      <point x="142" y="359" type="curve" smooth="yes"/>
      <point x="122" y="323"/>
      <point x="111" y="312"/>
    </contour>
  </outline>
</glyph>
<glyph name="asterisk" format="2">
  <advance width="358"/>
  <unicode hex="002A"/>
  <outline>
    <contour>
      <point x="242" y="362" type="curve" smooth="yes"/>
      <point x="234" y="355"/>
      <point x="229" y="353"/>
      <point x="226" y="353" type="curve" smooth="yes"/>
      <point x="222" y="353"/>
      <point x="219" y="363"/>
      <point x="219" y="372" type="curve" smooth="yes"/>
      <point x="219" y="376"/>
      <point x="220" y="381"/>
      <point x="226" y="397" type="curve" smooth="yes"/>
      <point x="237" y="426"/>
      <point x="238" y="453"/>
      <point x="250" y="499" type="curve" smooth="yes"/>
      <point x="253" y="515"/>
      <point x="256" y="529"/>
      <point x="259" y="537" type="curve" smooth="yes"/>
      <point x="263" y="546"/>
      <point x="279" y="553"/>
      <point x="301" y="553" type="curve" smooth="yes"/>
      <point x="325" y="553"/>
      <point x="337" y="539"/>
      <point x="337" y="525" type="curve" smooth="yes"/>
      <point x="337" y="494"/>
      <point x="306" y="449"/>
      <point x="285" y="415" type="curve" smooth="yes"/>
      <point x="263" y="379"/>
      <point x="250" y="369"/>
    </contour>
    <contour>
      <point x="208" y="399" type="curve" smooth="yes"/>
      <point x="198" y="405"/>
      <point x="193" y="408"/>
      <point x="193" y="415" type="curve" smooth="yes"/>
      <point x="193" y="423"/>
      <point x="201" y="425"/>
      <point x="206" y="427" type="curve" smooth="yes"/>
      <point x="213" y="429"/>
      <point x="218" y="429"/>
      <point x="236" y="429" type="curve" smooth="yes"/>
      <point x="266" y="429"/>
      <point x="292" y="433"/>
      <point x="339" y="438" type="curve" smooth="yes"/>
      <point x="353" y="439"/>
      <point x="365" y="440"/>
      <point x="374" y="440" type="curve" smooth="yes"/>
      <point x="390" y="440"/>
      <point x="398" y="426"/>
      <point x="406" y="405" type="curve" smooth="yes"/>
      <point x="408" y="400"/>
      <point x="409" y="395"/>
      <point x="409" y="390" type="curve" smooth="yes"/>
      <point x="409" y="375"/>
      <point x="401" y="365"/>
      <point x="391" y="362" type="curve" smooth="yes"/>
      <point x="385" y="360"/>
      <point x="377" y="359"/>
      <point x="369" y="359" type="curve" smooth="yes"/>
      <point x="340" y="359"/>
      <point x="301" y="371"/>
      <point x="271" y="378" type="curve" smooth="yes"/>
      <point x="230" y="389"/>
      <point x="217" y="394"/>
    </contour>
    <contour>
      <point x="242" y="452" type="curve" smooth="yes"/>
      <point x="244" y="461"/>
      <point x="246" y="468"/>
      <point x="250" y="468" type="curve" smooth="yes"/>
      <point x="253" y="468"/>
      <point x="257" y="466"/>
      <point x="263" y="458" type="curve" smooth="yes"/>
      <point x="265" y="456"/>
      <point x="267" y="451"/>
      <point x="272" y="434" type="curve" smooth="yes"/>
      <point x="280" y="404"/>
      <point x="295" y="381"/>
      <point x="313" y="338" type="curve" smooth="yes"/>
      <point x="321" y="316"/>
      <point x="328" y="305"/>
      <point x="328" y="298" type="curve" smooth="yes"/>
      <point x="328" y="289"/>
      <point x="318" y="275"/>
      <point x="303" y="264" type="curve" smooth="yes"/>
      <point x="294" y="258"/>
      <point x="285" y="255"/>
      <point x="278" y="255" type="curve" smooth="yes"/>
      <point x="269" y="255"/>
      <point x="262" y="259"/>
      <point x="257" y="266" type="curve" smooth="yes"/>
      <point x="240" y="291"/>
      <point x="238" y="345"/>
      <point x="235" y="385" type="curve" smooth="yes"/>
      <point x="232" y="427"/>
      <point x="239" y="441"/>
    </contour>
    <contour>
      <point x="285" y="430" type="curve" smooth="yes"/>
      <point x="295" y="430"/>
      <point x="305" y="427"/>
      <point x="305" y="420" type="curve" smooth="yes"/>
      <point x="305" y="412"/>
      <point x="299" y="404"/>
      <point x="279" y="391" type="curve" smooth="yes"/>
      <point x="253" y="375"/>
      <point x="236" y="353"/>
      <point x="200" y="323" type="curve" smooth="yes"/>
      <point x="188" y="312"/>
      <point x="177" y="302"/>
      <point x="170" y="298" type="curve" smooth="yes"/>
      <point x="167" y="296"/>
      <point x="165" y="296"/>
      <point x="161" y="296" type="curve" smooth="yes"/>
      <point x="152" y="296"/>
      <point x="140" y="300"/>
      <point x="127" y="310" type="curve" smooth="yes"/>
      <point x="115" y="319"/>
      <point x="110" y="330"/>
      <point x="110" y="339" type="curve" smooth="yes"/>
      <point x="110" y="344"/>
      <point x="111" y="349"/>
      <point x="114" y="353" type="curve" smooth="yes"/>
      <point x="133" y="377"/>
      <point x="184" y="396"/>
      <point x="221" y="411" type="curve" smooth="yes"/>
      <point x="260" y="427"/>
      <point x="275" y="430"/>
    </contour>
    <contour>
      <point x="293" y="373" type="curve" smooth="yes"/>
      <point x="293" y="365"/>
      <point x="286" y="352"/>
      <point x="279" y="352" type="curve" smooth="yes"/>
      <point x="274" y="352"/>
      <point x="267" y="354"/>
      <point x="252" y="365" type="curve" smooth="yes"/>
      <point x="228" y="383"/>
      <point x="206" y="398"/>
      <point x="166" y="420" type="curve" smooth="yes"/>
      <point x="152" y="428"/>
      <point x="139" y="436"/>
      <point x="133" y="441" type="curve" smooth="yes"/>
      <point x="129" y="445"/>
      <point x="126" y="452"/>
      <point x="126" y="460" type="curve" smooth="yes"/>
      <point x="126" y="468"/>
      <point x="128" y="476"/>
      <point x="131" y="485" type="curve" smooth="yes"/>
      <point x="137" y="504"/>
      <point x="149" y="513"/>
      <point x="161" y="513" type="curve" smooth="yes"/>
      <point x="164" y="513"/>
      <point x="166" y="512"/>
      <point x="168" y="511" type="curve" smooth="yes"/>
      <point x="197" y="500"/>
      <point x="231" y="458"/>
      <point x="257" y="428" type="curve" smooth="yes"/>
      <point x="284" y="396"/>
      <point x="293" y="378"/>
    </contour>
  </outline>
</glyph>
<glyph name="hyphen" format="2">
  <advance width="475"/>
  <unicode hex="002D"/>
  <outline>
    <contour>
      <point x="170" y="267" type="curve" smooth="yes"/>
      <point x="180" y="294"/>
      <point x="190" y="298"/>
      <point x="208" y="297" type="curve" smooth="yes"/>
      <point x="234" y="296"/>
      <point x="273" y="295"/>
      <point x="332" y="295" type="curve" smooth="yes"/>
      <point x="377" y="295"/>
      <point x="425" y="292"/>
      <point x="470" y="298" type="curve" smooth="yes"/>
      <point x="477" y="299"/>
      <point x="489" y="298"/>
      <point x="492" y="297" type="curve" smooth="yes"/>
      <point x="502" y="294"/>
      <point x="506" y="276"/>
      <point x="499" y="255" type="curve" smooth="yes"/>
      <point x="493" y="237"/>
      <point x="488" y="230"/>
      <point x="480" y="227" type="curve" smooth="yes"/>
      <point x="474" y="225"/>
      <point x="456" y="224"/>
      <point x="452" y="224" type="curve" smooth="yes"/>
      <point x="415" y="224"/>
      <point x="381" y="226"/>
      <point x="347" y="226" type="curve" smooth="yes"/>
      <point x="265" y="226"/>
      <point x="236" y="224"/>
      <point x="196" y="224" type="curve" smooth="yes"/>
      <point x="192" y="224"/>
      <point x="184" y="223"/>
      <point x="177" y="226" type="curve" smooth="yes"/>
      <point x="169" y="229"/>
      <point x="160" y="239"/>
    </contour>
  </outline>
</glyph>
<glyph name="three" format="2">
  <advance width="474"/>
  <unicode hex="0033"/>
  <outline>
    <contour>
      <point x="419" y="163" type="qcurve"/>
      <point x="419" y="91"/>
      <point x="314" y="-7"/>
      <point x="242" y="-7" type="qcurve"/>
      <point x="171" y="-7"/>
      <point x="79" y="82"/>
      <point x="72" y="153" type="qcurve"/>
      <point x="152" y="165" type="line"/>
      <point x="158" y="67"/>
      <point x="242" y="67" type="qcurve"/>
      <point x="281" y="67"/>
      <point x="340" y="121"/>
      <point x="340" y="160" type="qcurve"/>
      <point x="340" y="199"/>
      <point x="286" y="247"/>
      <point x="246" y="247" type="qcurve"/>
      <point x="238" y="247"/>
      <point x="207" y="245"/>
      <point x="199" y="245" type="qcurve"/>
      <point x="199" y="310" type="line"/>
      <point x="212" y="309"/>
      <point x="236" y="309" type="qcurve"/>
      <point x="273" y="309"/>
      <point x="317" y="358"/>
      <point x="317" y="396" type="qcurve"/>
      <point x="317" y="425"/>
      <point x="270" y="462"/>
      <point x="240" y="462" type="qcurve"/>
      <point x="162" y="462"/>
      <point x="144" y="385" type="qcurve"/>
      <point x="73" y="394" type="line"/>
      <point x="85" y="456"/>
      <point x="177" y="537"/>
      <point x="239" y="537" type="qcurve"/>
      <point x="300" y="537"/>
      <point x="395" y="455"/>
      <point x="395" y="394" type="qcurve"/>
      <point x="395" y="332"/>
      <point x="340" y="287" type="qcurve"/>
      <point x="419" y="243"/>
    </contour>
  </outline>
</glyph>
<glyph name="uni02BC" format="2">
  <advance width="162"/>
  <unicode hex="02BC"/>
  <guideline x="115" y="315" angle="70.9703"/>
  <outline>
    <contour>
      <point x="73" y="395" type="curve" smooth="yes"/>
      <point x="105" y="395"/>
      <point x="148" y="421"/>
      <point x="175" y="456" type="curve" smooth="yes"/>
      <point x="201" y="490"/>
      <point x="236" y="564"/>
      <point x="236" y="595" type="curve" smooth="yes"/>
      <point x="236" y="609"/>
      <point x="222" y="620"/>
      <point x="198" y="620" type="curve" smooth="yes"/>
      <point x="176" y="620"/>
      <point x="160" y="615"/>
      <point x="158" y="601" type="curve" smooth="yes"/>
      <point x="157" y="594"/>
      <point x="155" y="579"/>
      <point x="149" y="563" type="curve" smooth="yes"/>
      <point x="119" y="482"/>
      <point x="94" y="449"/>
      <point x="68" y="423" type="curve" smooth="yes"/>
      <point x="59" y="414"/>
      <point x="52" y="407"/>
      <point x="52" y="403" type="curve" smooth="yes"/>
      <point x="52" y="397"/>
      <point x="64" y="395"/>
    </contour>
  </outline>
</glyph>
<glyph name="uni02CD" format="2">
  <advance width="563"/>
  <unicode hex="02CD"/>
  <guideline x="330" y="315" angle="70.9703"/>
  <outline>
    <contour>
      <point x="-14" y="48" type="curve" smooth="yes"/>
      <point x="-4" y="74"/>
      <point x="6" y="79"/>
      <point x="24" y="78" type="curve" smooth="yes"/>
      <point x="75" y="75"/>
      <point x="118" y="76"/>
      <point x="177" y="76" type="curve" smooth="yes"/>
      <point x="223" y="76"/>
      <point x="321" y="71"/>
      <point x="367" y="79" type="curve" smooth="yes"/>
      <point x="373" y="80"/>
      <point x="385" y="79"/>
      <point x="389" y="78" type="curve" smooth="yes"/>
      <point x="398" y="76"/>
      <point x="403" y="57"/>
      <point x="396" y="36" type="curve" smooth="yes"/>
      <point x="390" y="18"/>
      <point x="384" y="11"/>
      <point x="377" y="8" type="curve" smooth="yes"/>
      <point x="370" y="5"/>
      <point x="352" y="5"/>
      <point x="348" y="5" type="curve" smooth="yes"/>
      <point x="312" y="5"/>
      <point x="226" y="6"/>
      <point x="192" y="6" type="curve" smooth="yes"/>
      <point x="110" y="6"/>
      <point x="52" y="5"/>
      <point x="12" y="5" type="curve" smooth="yes"/>
      <point x="8" y="5"/>
      <point x="0" y="4"/>
      <point x="-7" y="7" type="curve" smooth="yes"/>
      <point x="-15" y="10"/>
      <point x="-25" y="20"/>
    </contour>
  </outline>
</glyph>
<glyph name="uniA4D0" format="2">
  <advance width="469"/>
  <unicode hex="A4D0"/>
  <outline>
    <contour>
      <point x="200" y="239" type="curve" smooth="yes"/>
      <point x="162" y="239"/>
      <point x="152" y="239"/>
      <point x="105" y="242" type="curve"/>
      <point x="129" y="304" type="line"/>
      <point x="172" y="301"/>
      <point x="185" y="301"/>
      <point x="213" y="301" type="curve" smooth="yes"/>
      <point x="299" y="301"/>
      <point x="372" y="328"/>
      <point x="372" y="395" type="curve" smooth="yes"/>
      <point x="372" y="442"/>
      <point x="324" y="470"/>
      <point x="191" y="470" type="curve" smooth="yes"/>
      <point x="151" y="470"/>
      <point x="128" y="465"/>
      <point x="116" y="463" type="curve" smooth="yes"/>
      <point x="111" y="462"/>
      <point x="109" y="462"/>
      <point x="106" y="462" type="curve" smooth="yes"/>
      <point x="99" y="462"/>
      <point x="92" y="464"/>
      <point x="88" y="470" type="curve" smooth="yes"/>
      <point x="82" y="479"/>
      <point x="77" y="496"/>
      <point x="77" y="510" type="curve" smooth="yes"/>
      <point x="77" y="521"/>
      <point x="82" y="528"/>
      <point x="96" y="530" type="curve" smooth="yes"/>
      <point x="149" y="538"/>
      <point x="175" y="538"/>
      <point x="207" y="538" type="curve" smooth="yes"/>
      <point x="373" y="538"/>
      <point x="442" y="481"/>
      <point x="442" y="401" type="curve" smooth="yes"/>
      <point x="442" y="292"/>
      <point x="341" y="239"/>
    </contour>
    <contour>
      <point x="46" y="22" type="curve" smooth="yes"/>
      <point x="16" y="22"/>
      <point x="9" y="35"/>
      <point x="9" y="42" type="curve" smooth="yes"/>
      <point x="9" y="49"/>
      <point x="10" y="56"/>
      <point x="12" y="61" type="curve" smooth="yes"/>
      <point x="27" y="98"/>
      <point x="27" y="104"/>
      <point x="40" y="140" type="curve" smooth="yes"/>
      <point x="72" y="229"/>
      <point x="102" y="313"/>
      <point x="132" y="403" type="curve" smooth="yes"/>
      <point x="143" y="436"/>
      <point x="151" y="469"/>
      <point x="164" y="502" type="curve" smooth="yes"/>
      <point x="166" y="507"/>
      <point x="169" y="516"/>
      <point x="173" y="521" type="curve" smooth="yes"/>
      <point x="178" y="528"/>
      <point x="188" y="531"/>
      <point x="206" y="531" type="curve" smooth="yes"/>
      <point x="227" y="531"/>
      <point x="245" y="520"/>
      <point x="245" y="509" type="curve" smooth="yes"/>
      <point x="245" y="505"/>
      <point x="244" y="501"/>
      <point x="241" y="495" type="curve" smooth="yes"/>
      <point x="221" y="454"/>
      <point x="209" y="409"/>
      <point x="193" y="366" type="curve" smooth="yes"/>
      <point x="157" y="270"/>
      <point x="126" y="177"/>
      <point x="103" y="104" type="curve" smooth="yes"/>
      <point x="95" y="79"/>
      <point x="89" y="64"/>
      <point x="85" y="48" type="curve" smooth="yes"/>
      <point x="81" y="31"/>
      <point x="73" y="22"/>
    </contour>
    <contour>
      <point x="171" y="291" type="curve" smooth="yes"/>
      <point x="312" y="291"/>
      <point x="386" y="227"/>
      <point x="386" y="158" type="curve" smooth="yes"/>
      <point x="386" y="51"/>
      <point x="275" y="-10"/>
      <point x="137" y="-10" type="curve" smooth="yes"/>
      <point x="67" y="-10"/>
      <point x="27" y="-2"/>
      <point x="-26" y="9" type="curve" smooth="yes"/>
      <point x="-40" y="12"/>
      <point x="-44" y="18"/>
      <point x="-44" y="29" type="curve" smooth="yes"/>
      <point x="-44" y="43"/>
      <point x="-36" y="57"/>
      <point x="-30" y="65" type="curve" smooth="yes"/>
      <point x="-26" y="71"/>
      <point x="-19" y="77"/>
      <point x="-13" y="77" type="curve" smooth="yes"/>
      <point x="-7" y="77"/>
      <point x="-1" y="76"/>
      <point x="8" y="74" type="curve" smooth="yes"/>
      <point x="58" y="63"/>
      <point x="107" y="54"/>
      <point x="146" y="54" type="curve" smooth="yes"/>
      <point x="240" y="54"/>
      <point x="316" y="83"/>
      <point x="316" y="157" type="curve" smooth="yes"/>
      <point x="316" y="208"/>
      <point x="270" y="235"/>
      <point x="135" y="235" type="curve" smooth="yes"/>
      <point x="123" y="235"/>
      <point x="105" y="235"/>
      <point x="91" y="234" type="curve"/>
      <point x="115" y="291" type="line"/>
      <point x="129" y="291"/>
      <point x="152" y="291"/>
    </contour>
  </outline>
</glyph>
<glyph name="uniA4D1" format="2">
  <advance width="472"/>
  <unicode hex="A4D1"/>
  <outline>
    <contour>
      <point x="204" y="205" type="curve" smooth="yes"/>
      <point x="181" y="205"/>
      <point x="156" y="208"/>
      <point x="124" y="213" type="curve"/>
      <point x="148" y="282" type="line"/>
      <point x="175" y="277"/>
      <point x="204" y="274"/>
      <point x="218" y="274" type="curve" smooth="yes"/>
      <point x="315" y="274"/>
      <point x="402" y="309"/>
      <point x="402" y="381" type="curve" smooth="yes"/>
      <point x="402" y="441"/>
      <point x="344" y="472"/>
      <point x="210" y="472" type="curve" smooth="yes"/>
      <point x="170" y="472"/>
      <point x="146" y="465"/>
      <point x="135" y="463" type="curve" smooth="yes"/>
      <point x="130" y="462"/>
      <point x="128" y="462"/>
      <point x="125" y="462" type="curve" smooth="yes"/>
      <point x="118" y="462"/>
      <point x="111" y="464"/>
      <point x="107" y="470" type="curve" smooth="yes"/>
      <point x="101" y="479"/>
      <point x="96" y="496"/>
      <point x="96" y="510" type="curve" smooth="yes"/>
      <point x="96" y="521"/>
      <point x="101" y="528"/>
      <point x="115" y="530" type="curve" smooth="yes"/>
      <point x="168" y="538"/>
      <point x="194" y="538"/>
      <point x="226" y="538" type="curve" smooth="yes"/>
      <point x="395" y="538"/>
      <point x="472" y="479"/>
      <point x="472" y="389" type="curve" smooth="yes"/>
      <point x="472" y="266"/>
      <point x="354" y="205"/>
    </contour>
    <contour>
      <point x="52" y="-9" type="curve" smooth="yes"/>
      <point x="23" y="-9"/>
      <point x="15" y="3"/>
      <point x="15" y="11" type="curve" smooth="yes"/>
      <point x="15" y="18"/>
      <point x="18" y="24"/>
      <point x="20" y="30" type="curve" smooth="yes"/>
      <point x="33" y="68"/>
      <point x="45" y="104"/>
      <point x="59" y="140" type="curve" smooth="yes"/>
      <point x="93" y="228"/>
      <point x="121" y="313"/>
      <point x="151" y="403" type="curve" smooth="yes"/>
      <point x="162" y="436"/>
      <point x="170" y="469"/>
      <point x="183" y="502" type="curve" smooth="yes"/>
      <point x="185" y="507"/>
      <point x="188" y="516"/>
      <point x="192" y="521" type="curve" smooth="yes"/>
      <point x="197" y="528"/>
      <point x="207" y="531"/>
      <point x="225" y="531" type="curve" smooth="yes"/>
      <point x="246" y="531"/>
      <point x="264" y="520"/>
      <point x="264" y="509" type="curve" smooth="yes"/>
      <point x="264" y="505"/>
      <point x="263" y="501"/>
      <point x="260" y="495" type="curve" smooth="yes"/>
      <point x="240" y="454"/>
      <point x="228" y="409"/>
      <point x="212" y="366" type="curve" smooth="yes"/>
      <point x="176" y="270"/>
      <point x="146" y="177"/>
      <point x="123" y="104" type="curve" smooth="yes"/>
      <point x="111" y="66"/>
      <point x="102" y="33"/>
      <point x="97" y="17" type="curve" smooth="yes"/>
      <point x="92" y="0"/>
      <point x="81" y="-9"/>
    </contour>
  </outline>
</glyph>
<glyph name="uniA4D2" format="2">
  <advance width="457"/>
  <unicode hex="A4D2"/>
  <outline>
    <contour>
      <point x="353" y="337"/>
      <point x="411" y="331" type="curve"/>
      <point x="386" y="264" type="line"/>
      <point x="336" y="271"/>
      <point x="308" y="272"/>
      <point x="292" y="272" type="curve" smooth="yes"/>
      <point x="196" y="272"/>
      <point x="126" y="224"/>
      <point x="126" y="158" type="curve" smooth="yes"/>
      <point x="126" y="97"/>
      <point x="193" y="53"/>
      <point x="325" y="53" type="curve" smooth="yes"/>
      <point x="346" y="53"/>
      <point x="376" y="61"/>
      <point x="384" y="61" type="curve" smooth="yes"/>
      <point x="396" y="61"/>
      <point x="403" y="59"/>
      <point x="408" y="49" type="curve" smooth="yes"/>
      <point x="411" y="44"/>
      <point x="417" y="32"/>
      <point x="417" y="18" type="curve" smooth="yes"/>
      <point x="417" y="6"/>
      <point x="412" y="0"/>
      <point x="397" y="-2" type="curve" smooth="yes"/>
      <point x="374" y="-6"/>
      <point x="335" y="-10"/>
      <point x="309" y="-10" type="curve" smooth="yes"/>
      <point x="133" y="-10"/>
      <point x="56" y="62"/>
      <point x="56" y="146" type="curve" smooth="yes"/>
      <point x="56" y="253"/>
      <point x="144" y="340"/>
      <point x="299" y="340" type="curve" smooth="yes"/>
      <point x="325" y="340"/>
    </contour>
    <contour>
      <point x="319" y="2" type="curve" smooth="yes"/>
      <point x="301" y="2"/>
      <point x="276" y="20"/>
      <point x="276" y="32" type="curve" smooth="yes"/>
      <point x="276" y="34"/>
      <point x="277" y="37"/>
      <point x="278" y="41" type="curve" smooth="yes"/>
      <point x="292" y="79"/>
      <point x="304" y="115"/>
      <point x="316" y="151" type="curve" smooth="yes"/>
      <point x="349" y="241"/>
      <point x="378" y="325"/>
      <point x="408" y="415" type="curve" smooth="yes"/>
      <point x="419" y="447"/>
      <point x="429" y="479"/>
      <point x="440" y="514" type="curve" smooth="yes"/>
      <point x="441" y="518"/>
      <point x="444" y="527"/>
      <point x="449" y="530" type="curve" smooth="yes"/>
      <point x="455" y="535"/>
      <point x="469" y="538"/>
      <point x="482" y="538" type="curve" smooth="yes"/>
      <point x="505" y="538"/>
      <point x="522" y="531"/>
      <point x="522" y="520" type="curve" smooth="yes"/>
      <point x="522" y="517"/>
      <point x="521" y="512"/>
      <point x="519" y="506" type="curve" smooth="yes"/>
      <point x="501" y="464"/>
      <point x="485" y="420"/>
      <point x="469" y="377" type="curve" smooth="yes"/>
      <point x="435" y="281"/>
      <point x="404" y="188"/>
      <point x="380" y="115" type="curve" smooth="yes"/>
      <point x="368" y="77"/>
      <point x="358" y="44"/>
      <point x="352" y="19" type="curve" smooth="yes"/>
      <point x="348" y="6"/>
      <point x="333" y="2"/>
    </contour>
  </outline>
</glyph>
<glyph name="uniA4D3" format="2">
  <advance width="517"/>
  <unicode hex="A4D3"/>
  <outline>
    <contour>
      <point x="164" y="-10" type="curve" smooth="yes"/>
      <point x="239" y="-10"/>
      <point x="325" y="15"/>
      <point x="386" y="69" type="curve" smooth="yes"/>
      <point x="455" y="130"/>
      <point x="500" y="230"/>
      <point x="500" y="321" type="curve" smooth="yes"/>
      <point x="500" y="458"/>
      <point x="375" y="538"/>
      <point x="234" y="538" type="curve" smooth="yes"/>
      <point x="202" y="538"/>
      <point x="176" y="538"/>
      <point x="123" y="530" type="curve" smooth="yes"/>
      <point x="109" y="528"/>
      <point x="104" y="521"/>
      <point x="104" y="510" type="curve" smooth="yes"/>
      <point x="104" y="496"/>
      <point x="109" y="481"/>
      <point x="115" y="472" type="curve" smooth="yes"/>
      <point x="119" y="466"/>
      <point x="126" y="464"/>
      <point x="133" y="464" type="curve" smooth="yes"/>
      <point x="136" y="464"/>
      <point x="138" y="464"/>
      <point x="143" y="465" type="curve" smooth="yes"/>
      <point x="155" y="467"/>
      <point x="178" y="472"/>
      <point x="218" y="472" type="curve" smooth="yes"/>
      <point x="328" y="472"/>
      <point x="427" y="417"/>
      <point x="427" y="312" type="curve" smooth="yes"/>
      <point x="427" y="247"/>
      <point x="395" y="170"/>
      <point x="344" y="122" type="curve" smooth="yes"/>
      <point x="296" y="76"/>
      <point x="228" y="54"/>
      <point x="173" y="54" type="curve" smooth="yes"/>
      <point x="134" y="54"/>
      <point x="85" y="63"/>
      <point x="35" y="74" type="curve" smooth="yes"/>
      <point x="26" y="76"/>
      <point x="19" y="77"/>
      <point x="13" y="77" type="curve" smooth="yes"/>
      <point x="7" y="77"/>
      <point x="0" y="71"/>
      <point x="-4" y="65" type="curve" smooth="yes"/>
      <point x="-10" y="56"/>
      <point x="-17" y="43"/>
      <point x="-17" y="29" type="curve" smooth="yes"/>
      <point x="-17" y="18"/>
      <point x="-13" y="11"/>
      <point x="1" y="9" type="curve" smooth="yes"/>
      <point x="51" y="2"/>
      <point x="94" y="-10"/>
    </contour>
    <contour>
      <point x="73" y="22" type="curve" smooth="yes"/>
      <point x="97" y="22"/>
      <point x="104" y="31"/>
      <point x="109" y="48" type="curve" smooth="yes"/>
      <point x="114" y="64"/>
      <point x="118" y="79"/>
      <point x="127" y="104" type="curve" smooth="yes"/>
      <point x="152" y="177"/>
      <point x="184" y="270"/>
      <point x="218" y="366" type="curve" smooth="yes"/>
      <point x="233" y="409"/>
      <point x="246" y="454"/>
      <point x="266" y="495" type="curve" smooth="yes"/>
      <point x="269" y="501"/>
      <point x="270" y="505"/>
      <point x="270" y="509" type="curve" smooth="yes"/>
      <point x="270" y="520"/>
      <point x="254" y="531"/>
      <point x="233" y="531" type="curve" smooth="yes"/>
      <point x="215" y="531"/>
      <point x="206" y="527"/>
      <point x="200" y="521" type="curve" smooth="yes"/>
      <point x="195" y="516"/>
      <point x="192" y="507"/>
      <point x="191" y="502" type="curve" smooth="yes"/>
      <point x="184" y="467"/>
      <point x="170" y="436"/>
      <point x="159" y="403" type="curve" smooth="yes"/>
      <point x="128" y="313"/>
      <point x="98" y="229"/>
      <point x="67" y="140" type="curve" smooth="yes"/>
      <point x="54" y="104"/>
      <point x="54" y="98"/>
      <point x="39" y="61" type="curve" smooth="yes"/>
      <point x="37" y="56"/>
      <point x="36" y="49"/>
      <point x="36" y="42" type="curve" smooth="yes"/>
      <point x="36" y="35"/>
      <point x="43" y="22"/>
    </contour>
  </outline>
</glyph>
<glyph name="uniA4D4" format="2">
  <advance width="539"/>
  <unicode hex="A4D4"/>
  <outline>
    <contour>
      <point x="199" y="-9" type="curve" smooth="yes"/>
      <point x="228" y="-9"/>
      <point x="239" y="0"/>
      <point x="244" y="17" type="curve" smooth="yes"/>
      <point x="249" y="33"/>
      <point x="258" y="66"/>
      <point x="270" y="104" type="curve" smooth="yes"/>
      <point x="293" y="177"/>
      <point x="325" y="270"/>
      <point x="359" y="366" type="curve" smooth="yes"/>
      <point x="374" y="409"/>
      <point x="396" y="454"/>
      <point x="410" y="497" type="curve" smooth="yes"/>
      <point x="412" y="503"/>
      <point x="413" y="507"/>
      <point x="413" y="511" type="curve" smooth="yes"/>
      <point x="413" y="522"/>
      <point x="396" y="532"/>
      <point x="373" y="532" type="curve" smooth="yes"/>
      <point x="354" y="532"/>
      <point x="346" y="529"/>
      <point x="340" y="523" type="curve" smooth="yes"/>
      <point x="335" y="518"/>
      <point x="333" y="509"/>
      <point x="331" y="504" type="curve" smooth="yes"/>
      <point x="318" y="471"/>
      <point x="309" y="436"/>
      <point x="298" y="403" type="curve" smooth="yes"/>
      <point x="268" y="313"/>
      <point x="240" y="228"/>
      <point x="206" y="140" type="curve" smooth="yes"/>
      <point x="192" y="104"/>
      <point x="180" y="68"/>
      <point x="167" y="30" type="curve" smooth="yes"/>
      <point x="165" y="24"/>
      <point x="162" y="18"/>
      <point x="162" y="11" type="curve" smooth="yes"/>
      <point x="162" y="3"/>
      <point x="169" y="-9"/>
    </contour>
    <contour>
      <point x="117" y="495" type="curve" smooth="yes"/>
      <point x="126" y="468"/>
      <point x="138" y="464"/>
      <point x="156" y="464" type="curve" smooth="yes"/>
      <point x="206" y="464"/>
      <point x="311" y="467"/>
      <point x="370" y="467" type="curve" smooth="yes"/>
      <point x="440" y="467"/>
      <point x="553" y="464"/>
      <point x="574" y="464" type="curve" smooth="yes"/>
      <point x="590" y="464"/>
      <point x="608" y="464"/>
      <point x="612" y="466" type="curve" smooth="yes"/>
      <point x="616" y="468"/>
      <point x="621" y="476"/>
      <point x="621" y="487" type="curve" smooth="yes"/>
      <point x="621" y="493"/>
      <point x="619" y="499"/>
      <point x="617" y="504" type="curve" smooth="yes"/>
      <point x="610" y="521"/>
      <point x="606" y="528"/>
      <point x="598" y="532" type="curve" smooth="yes"/>
      <point x="592" y="535"/>
      <point x="574" y="535"/>
      <point x="570" y="535" type="curve" smooth="yes"/>
      <point x="533" y="535"/>
      <point x="419" y="533"/>
      <point x="385" y="533" type="curve" smooth="yes"/>
      <point x="305" y="533"/>
      <point x="164" y="535"/>
      <point x="137" y="535" type="curve" smooth="yes"/>
      <point x="133" y="535"/>
      <point x="128" y="535"/>
      <point x="124" y="533" type="curve" smooth="yes"/>
      <point x="119" y="531"/>
      <point x="113" y="525"/>
      <point x="113" y="513" type="curve" smooth="yes"/>
      <point x="113" y="507"/>
      <point x="114" y="504"/>
    </contour>
  </outline>
</glyph>
<glyph name="uniA4D5" format="2">
  <advance width="542"/>
  <unicode hex="A4D5"/>
  <outline>
    <contour>
      <point x="352" y="-4" type="curve" smooth="yes"/>
      <point x="389" y="-4"/>
      <point x="402" y="-7"/>
      <point x="440" y="-7" type="curve" smooth="yes"/>
      <point x="450" y="-7"/>
      <point x="459" y="-2"/>
      <point x="459" y="6" type="curve" smooth="yes"/>
      <point x="459" y="8"/>
      <point x="460" y="11"/>
      <point x="460" y="13" type="curve" smooth="yes"/>
      <point x="460" y="27"/>
      <point x="455" y="39"/>
      <point x="450" y="47" type="curve" smooth="yes"/>
      <point x="445" y="55"/>
      <point x="436" y="59"/>
      <point x="421" y="61" type="curve" smooth="yes"/>
      <point x="395" y="64"/>
      <point x="376" y="66"/>
      <point x="326" y="66" type="curve" smooth="yes"/>
      <point x="283" y="66"/>
      <point x="70" y="61"/>
      <point x="43" y="61" type="curve" smooth="yes"/>
      <point x="27" y="61"/>
      <point x="9" y="63"/>
      <point x="-5" y="63" type="curve" smooth="yes"/>
      <point x="-18" y="63"/>
      <point x="-28" y="62"/>
      <point x="-34" y="56" type="curve" smooth="yes"/>
      <point x="-40" y="50"/>
      <point x="-44" y="44"/>
      <point x="-44" y="37" type="curve" smooth="yes"/>
      <point x="-44" y="7"/>
      <point x="-12" y="-8"/>
      <point x="25" y="-8" type="curve" smooth="yes"/>
      <point x="87" y="-8"/>
      <point x="288" y="-4"/>
    </contour>
    <contour>
      <point x="216" y="2" type="curve" smooth="yes"/>
      <point x="230" y="2"/>
      <point x="244" y="6"/>
      <point x="248" y="19" type="curve" smooth="yes"/>
      <point x="256" y="44"/>
      <point x="265" y="77"/>
      <point x="277" y="115" type="curve" smooth="yes"/>
      <point x="300" y="188"/>
      <point x="332" y="281"/>
      <point x="366" y="377" type="curve" smooth="yes"/>
      <point x="381" y="420"/>
      <point x="402" y="464"/>
      <point x="416" y="506" type="curve" smooth="yes"/>
      <point x="418" y="512"/>
      <point x="419" y="517"/>
      <point x="419" y="520" type="curve" smooth="yes"/>
      <point x="419" y="531"/>
      <point x="401" y="538"/>
      <point x="379" y="538" type="curve" smooth="yes"/>
      <point x="365" y="538"/>
      <point x="351" y="535"/>
      <point x="345" y="530" type="curve" smooth="yes"/>
      <point x="341" y="527"/>
      <point x="337" y="518"/>
      <point x="336" y="514" type="curve" smooth="yes"/>
      <point x="327" y="478"/>
      <point x="316" y="447"/>
      <point x="305" y="415" type="curve" smooth="yes"/>
      <point x="274" y="325"/>
      <point x="242" y="241"/>
      <point x="212" y="151" type="curve" smooth="yes"/>
      <point x="200" y="115"/>
      <point x="188" y="79"/>
      <point x="178" y="54" type="curve" smooth="yes"/>
      <point x="173" y="42"/>
      <point x="171" y="35"/>
      <point x="171" y="32" type="curve" smooth="yes"/>
      <point x="171" y="20"/>
      <point x="196" y="2"/>
    </contour>
  </outline>
</glyph>
<glyph name="uniA4D6" format="2">
  <advance width="483"/>
  <unicode hex="A4D6"/>
  <outline>
    <contour>
      <point x="416" y="216" type="curve" smooth="yes"/>
      <point x="416" y="223"/>
      <point x="414" y="234"/>
      <point x="410" y="239" type="curve" smooth="yes"/>
      <point x="403" y="248"/>
      <point x="392" y="252"/>
      <point x="383" y="254" type="curve" smooth="yes"/>
      <point x="366" y="258"/>
      <point x="344" y="258"/>
      <point x="326" y="258" type="curve" smooth="yes"/>
      <point x="317" y="258"/>
      <point x="276" y="255"/>
      <point x="259" y="255" type="curve" smooth="yes"/>
      <point x="231" y="255"/>
      <point x="218" y="249"/>
      <point x="218" y="228" type="curve" smooth="yes"/>
      <point x="218" y="212"/>
      <point x="238" y="187"/>
      <point x="261" y="187" type="curve" smooth="yes"/>
      <point x="280" y="187"/>
      <point x="290" y="190"/>
      <point x="304" y="190" type="curve" smooth="yes"/>
      <point x="308" y="190"/>
      <point x="314" y="190"/>
      <point x="322" y="189" type="curve" smooth="yes"/>
      <point x="331" y="188"/>
      <point x="335" y="182"/>
      <point x="335" y="175" type="curve" smooth="yes"/>
      <point x="335" y="156"/>
      <point x="318" y="120"/>
      <point x="296" y="100" type="curve" smooth="yes"/>
      <point x="269" y="75"/>
      <point x="235" y="59"/>
      <point x="198" y="59" type="curve" smooth="yes"/>
      <point x="135" y="59"/>
      <point x="102" y="104"/>
      <point x="102" y="172" type="curve" smooth="yes"/>
      <point x="102" y="249"/>
      <point x="131" y="336"/>
      <point x="177" y="396" type="curve" smooth="yes"/>
      <point x="212" y="441"/>
      <point x="257" y="469"/>
      <point x="300" y="469" type="curve" smooth="yes"/>
      <point x="338" y="469"/>
      <point x="358" y="460"/>
      <point x="380" y="431" type="curve" smooth="yes"/>
      <point x="387" y="422"/>
      <point x="391" y="417"/>
      <point x="399" y="417" type="curve" smooth="yes"/>
      <point x="414" y="417"/>
      <point x="452" y="433"/>
      <point x="452" y="449" type="curve" smooth="yes"/>
      <point x="452" y="461"/>
      <point x="438" y="482"/>
      <point x="422" y="498" type="curve" smooth="yes"/>
      <point x="399" y="521"/>
      <point x="363" y="538"/>
      <point x="310" y="538" type="curve" smooth="yes"/>
      <point x="237" y="538"/>
      <point x="172" y="499"/>
      <point x="124" y="437" type="curve" smooth="yes"/>
      <point x="65" y="361"/>
      <point x="32" y="254"/>
      <point x="32" y="161" type="curve" smooth="yes"/>
      <point x="32" y="58"/>
      <point x="94" y="-10"/>
      <point x="194" y="-10" type="curve" smooth="yes"/>
      <point x="249" y="-10"/>
      <point x="300" y="11"/>
      <point x="340" y="50" type="curve" smooth="yes"/>
      <point x="384" y="92"/>
      <point x="416" y="160"/>
    </contour>
  </outline>
</glyph>
<glyph name="uniA4D7" format="2">
  <advance width="453"/>
  <unicode hex="A4D7"/>
  <outline>
    <contour>
      <point x="59" y="-9" type="curve" smooth="yes"/>
      <point x="88" y="-9"/>
      <point x="99" y="0"/>
      <point x="104" y="17" type="curve" smooth="yes"/>
      <point x="109" y="33"/>
      <point x="118" y="66"/>
      <point x="130" y="104" type="curve" smooth="yes"/>
      <point x="153" y="177"/>
      <point x="183" y="270"/>
      <point x="219" y="366" type="curve" smooth="yes"/>
      <point x="235" y="409"/>
      <point x="255" y="452"/>
      <point x="269" y="495" type="curve" smooth="yes"/>
      <point x="271" y="501"/>
      <point x="272" y="505"/>
      <point x="272" y="509" type="curve" smooth="yes"/>
      <point x="272" y="520"/>
      <point x="255" y="531"/>
      <point x="232" y="531" type="curve" smooth="yes"/>
      <point x="214" y="531"/>
      <point x="204" y="528"/>
      <point x="199" y="521" type="curve" smooth="yes"/>
      <point x="195" y="516"/>
      <point x="192" y="507"/>
      <point x="190" y="502" type="curve" smooth="yes"/>
      <point x="177" y="469"/>
      <point x="169" y="436"/>
      <point x="158" y="403" type="curve" smooth="yes"/>
      <point x="128" y="313"/>
      <point x="100" y="228"/>
      <point x="66" y="140" type="curve" smooth="yes"/>
      <point x="52" y="104"/>
      <point x="40" y="68"/>
      <point x="27" y="30" type="curve" smooth="yes"/>
      <point x="25" y="24"/>
      <point x="22" y="18"/>
      <point x="22" y="11" type="curve" smooth="yes"/>
      <point x="22" y="3"/>
      <point x="30" y="-9"/>
    </contour>
    <contour>
      <point x="166" y="301" type="curve"/>
      <point x="145" y="230" type="line"/>
      <point x="289" y="265"/>
      <point x="431" y="366"/>
      <point x="499" y="502" type="curve" smooth="yes"/>
      <point x="502" y="508"/>
      <point x="505" y="514"/>
      <point x="505" y="521" type="curve" smooth="yes"/>
      <point x="505" y="526"/>
      <point x="499" y="534"/>
      <point x="493" y="536" type="curve" smooth="yes"/>
      <point x="487" y="538"/>
      <point x="483" y="538"/>
      <point x="478" y="538" type="curve" smooth="yes"/>
      <point x="468" y="538"/>
      <point x="462" y="538"/>
      <point x="454" y="535" type="curve" smooth="yes"/>
      <point x="442" y="530"/>
      <point x="433" y="524"/>
      <point x="422" y="506" type="curve" smooth="yes"/>
      <point x="360" y="405"/>
      <point x="284" y="326"/>
    </contour>
    <contour>
      <point x="194" y="248" type="line"/>
      <point x="246" y="188"/>
      <point x="278" y="124"/>
      <point x="296" y="51" type="curve" smooth="yes"/>
      <point x="302" y="27"/>
      <point x="305" y="10"/>
      <point x="313" y="0" type="curve" smooth="yes"/>
      <point x="319" y="-7"/>
      <point x="333" y="-9"/>
      <point x="347" y="-9" type="curve" smooth="yes"/>
      <point x="369" y="-9"/>
      <point x="385" y="-2"/>
      <point x="385" y="7" type="curve" smooth="yes"/>
      <point x="385" y="18"/>
      <point x="382" y="32"/>
      <point x="373" y="59" type="curve" smooth="yes"/>
      <point x="349" y="131"/>
      <point x="303" y="229"/>
      <point x="253" y="284" type="curve"/>
    </contour>
  </outline>
</glyph>
<glyph name="uniA4D8" format="2">
  <advance width="485"/>
  <unicode hex="A4D8"/>
  <outline>
    <contour>
      <point x="281" y="263" type="curve"/>
      <point x="335" y="226" type="line"/>
      <point x="360" y="286" type="line"/>
      <point x="289" y="336"/>
      <point x="250" y="420"/>
      <point x="235" y="483" type="curve" smooth="yes"/>
      <point x="228" y="512"/>
      <point x="226" y="523"/>
      <point x="221" y="528" type="curve" smooth="yes"/>
      <point x="215" y="534"/>
      <point x="201" y="538"/>
      <point x="188" y="538" type="curve" smooth="yes"/>
      <point x="166" y="538"/>
      <point x="153" y="533"/>
      <point x="153" y="512" type="curve" smooth="yes"/>
      <point x="153" y="449"/>
      <point x="212" y="333"/>
    </contour>
    <contour>
      <point x="315" y="242" type="curve"/>
      <point x="265" y="286" type="line"/>
      <point x="156" y="230"/>
      <point x="79" y="153"/>
      <point x="3" y="63" type="curve" smooth="yes"/>
      <point x="-17" y="39"/>
      <point x="-28" y="22"/>
      <point x="-28" y="11" type="curve" smooth="yes"/>
      <point x="-28" y="-3"/>
      <point x="-13" y="-9"/>
      <point x="9" y="-9" type="curve" smooth="yes"/>
      <point x="23" y="-9"/>
      <point x="32" y="-5"/>
      <point x="40" y="-1" type="curve" smooth="yes"/>
      <point x="53" y="6"/>
      <point x="64" y="19"/>
      <point x="81" y="41" type="curve" smooth="yes"/>
      <point x="142" y="122"/>
      <point x="205" y="177"/>
    </contour>
    <contour>
      <point x="286" y="-9" type="curve" smooth="yes"/>
      <point x="315" y="-9"/>
      <point x="326" y="0"/>
      <point x="331" y="17" type="curve" smooth="yes"/>
      <point x="336" y="33"/>
      <point x="345" y="66"/>
      <point x="357" y="104" type="curve" smooth="yes"/>
      <point x="380" y="177"/>
      <point x="410" y="270"/>
      <point x="446" y="366" type="curve" smooth="yes"/>
      <point x="462" y="409"/>
      <point x="484" y="459"/>
      <point x="498" y="502" type="curve" smooth="yes"/>
      <point x="500" y="508"/>
      <point x="501" y="512"/>
      <point x="501" y="516" type="curve" smooth="yes"/>
      <point x="501" y="527"/>
      <point x="485" y="538"/>
      <point x="462" y="538" type="curve" smooth="yes"/>
      <point x="444" y="538"/>
      <point x="435" y="535"/>
      <point x="430" y="528" type="curve" smooth="yes"/>
      <point x="426" y="523"/>
      <point x="423" y="514"/>
      <point x="421" y="509" type="curve" smooth="yes"/>
      <point x="408" y="476"/>
      <point x="396" y="436"/>
      <point x="385" y="403" type="curve" smooth="yes"/>
      <point x="355" y="313"/>
      <point x="326" y="229"/>
      <point x="294" y="140" type="curve" smooth="yes"/>
      <point x="281" y="104"/>
      <point x="268" y="68"/>
      <point x="255" y="30" type="curve" smooth="yes"/>
      <point x="253" y="24"/>
      <point x="250" y="18"/>
      <point x="250" y="11" type="curve" smooth="yes"/>
      <point x="250" y="3"/>
      <point x="257" y="-9"/>
    </contour>
  </outline>
</glyph>
<glyph name="uniA4D9" format="2">
  <advance width="485"/>
  <unicode hex="A4D9"/>
  <outline>
    <contour>
      <point x="73" y="104" type="curve" smooth="yes"/>
      <point x="70" y="114"/>
      <point x="67" y="126"/>
      <point x="67" y="136" type="curve" smooth="yes"/>
      <point x="67" y="160"/>
      <point x="86" y="168"/>
      <point x="115" y="168" type="curve" smooth="yes"/>
      <point x="121" y="168"/>
      <point x="126" y="168"/>
      <point x="130" y="167" type="curve" smooth="yes"/>
      <point x="134" y="166"/>
      <point x="138" y="162"/>
      <point x="140" y="158" type="curve" smooth="yes"/>
      <point x="142" y="152"/>
      <point x="142" y="144"/>
      <point x="146" y="132" type="curve" smooth="yes"/>
      <point x="160" y="84"/>
      <point x="188" y="60"/>
      <point x="233" y="60" type="curve" smooth="yes"/>
      <point x="303" y="60"/>
      <point x="344" y="140"/>
      <point x="379" y="236" type="curve" smooth="yes"/>
      <point x="399" y="292"/>
      <point x="417" y="346"/>
      <point x="438" y="403" type="curve" smooth="yes"/>
      <point x="449" y="436"/>
      <point x="459" y="468"/>
      <point x="470" y="502" type="curve" smooth="yes"/>
      <point x="472" y="507"/>
      <point x="478" y="523"/>
      <point x="482" y="529" type="curve" smooth="yes"/>
      <point x="488" y="535"/>
      <point x="497" y="538"/>
      <point x="515" y="538" type="curve" smooth="yes"/>
      <point x="538" y="538"/>
      <point x="555" y="527"/>
      <point x="555" y="516" type="curve" smooth="yes"/>
      <point x="555" y="513"/>
      <point x="552" y="501"/>
      <point x="549" y="495" type="curve" smooth="yes"/>
      <point x="532" y="453"/>
      <point x="515" y="409"/>
      <point x="500" y="366" type="curve" smooth="yes"/>
      <point x="475" y="298"/>
      <point x="452" y="232"/>
      <point x="429" y="174" type="curve" smooth="yes"/>
      <point x="388" y="69"/>
      <point x="323" y="-10"/>
      <point x="223" y="-10" type="curve" smooth="yes"/>
      <point x="146" y="-10"/>
      <point x="91" y="43"/>
    </contour>
  </outline>
</glyph>
<glyph name="uniA4DA" format="2">
  <advance width="412"/>
  <unicode hex="A4DA"/>
  <outline>
    <contour>
      <point x="89" y="161" type="curve" smooth="yes"/>
      <point x="89" y="330"/>
      <point x="206" y="538"/>
      <point x="367" y="538" type="curve" smooth="yes"/>
      <point x="420" y="538"/>
      <point x="456" y="521"/>
      <point x="479" y="498" type="curve" smooth="yes"/>
      <point x="495" y="482"/>
      <point x="509" y="461"/>
      <point x="509" y="449" type="curve" smooth="yes"/>
      <point x="509" y="433"/>
      <point x="471" y="417"/>
      <point x="456" y="417" type="curve" smooth="yes"/>
      <point x="448" y="417"/>
      <point x="444" y="422"/>
      <point x="439" y="428" type="curve" smooth="yes"/>
      <point x="435" y="433"/>
      <point x="431" y="438"/>
      <point x="427" y="443" type="curve" smooth="yes"/>
      <point x="408" y="462"/>
      <point x="393" y="469"/>
      <point x="357" y="469" type="curve" smooth="yes"/>
      <point x="257" y="469"/>
      <point x="159" y="307"/>
      <point x="159" y="172" type="curve" smooth="yes"/>
      <point x="159" y="104"/>
      <point x="192" y="59"/>
      <point x="250" y="59" type="curve" smooth="yes"/>
      <point x="284" y="59"/>
      <point x="317" y="79"/>
      <point x="331" y="90" type="curve" smooth="yes"/>
      <point x="346" y="103"/>
      <point x="354" y="111"/>
      <point x="360" y="117" type="curve" smooth="yes"/>
      <point x="366" y="124"/>
      <point x="371" y="127"/>
      <point x="379" y="127" type="curve" smooth="yes"/>
      <point x="391" y="127"/>
      <point x="425" y="113"/>
      <point x="425" y="93" type="curve" smooth="yes"/>
      <point x="425" y="83"/>
      <point x="422" y="76"/>
      <point x="411" y="63" type="curve" smooth="yes"/>
      <point x="390" y="40"/>
      <point x="320" y="-10"/>
      <point x="247" y="-10" type="curve" smooth="yes"/>
      <point x="151" y="-10"/>
      <point x="89" y="58"/>
    </contour>
  </outline>
</glyph>
<glyph name="uniA4DB" format="2">
  <advance width="445"/>
  <unicode hex="A4DB"/>
  <outline>
    <contour>
      <point x="423" y="368" type="curve" smooth="yes"/>
      <point x="423" y="472"/>
      <point x="365" y="538"/>
      <point x="270" y="538" type="curve" smooth="yes"/>
      <point x="216" y="538"/>
      <point x="162" y="512"/>
      <point x="137" y="493" type="curve" smooth="yes"/>
      <point x="123" y="482"/>
      <point x="115" y="471"/>
      <point x="115" y="461" type="curve" smooth="yes"/>
      <point x="115" y="444"/>
      <point x="135" y="426"/>
      <point x="152" y="426" type="curve" smooth="yes"/>
      <point x="160" y="426"/>
      <point x="164" y="430"/>
      <point x="178" y="438" type="curve" smooth="yes"/>
      <point x="212" y="457"/>
      <point x="231" y="470"/>
      <point x="267" y="470" type="curve" smooth="yes"/>
      <point x="324" y="470"/>
      <point x="353" y="425"/>
      <point x="353" y="357" type="curve" smooth="yes"/>
      <point x="353" y="222"/>
      <point x="255" y="59"/>
      <point x="154" y="59" type="curve" smooth="yes"/>
      <point x="100" y="59"/>
      <point x="77" y="93"/>
      <point x="69" y="109" type="curve" smooth="yes"/>
      <point x="64" y="119"/>
      <point x="61" y="127"/>
      <point x="58" y="132" type="curve" smooth="yes"/>
      <point x="55" y="136"/>
      <point x="52" y="139"/>
      <point x="45" y="139" type="curve" smooth="yes"/>
      <point x="29" y="139"/>
      <point x="-9" y="125"/>
      <point x="-9" y="104" type="curve" smooth="yes"/>
      <point x="-9" y="91"/>
      <point x="-2" y="75"/>
      <point x="6" y="63" type="curve" smooth="yes"/>
      <point x="24" y="36"/>
      <point x="62" y="-10"/>
      <point x="145" y="-10" type="curve" smooth="yes"/>
      <point x="306" y="-10"/>
      <point x="423" y="200"/>
    </contour>
  </outline>
</glyph>
<glyph name="uniA4DC" format="2">
  <advance width="479"/>
  <unicode hex="A4DC"/>
  <outline>
    <contour>
      <point x="98" y="491" type="curve" smooth="yes"/>
      <point x="107" y="465"/>
      <point x="119" y="461"/>
      <point x="137" y="461" type="curve" smooth="yes"/>
      <point x="154" y="461"/>
      <point x="188" y="462"/>
      <point x="227" y="462" type="curve" smooth="yes"/>
      <point x="256" y="462"/>
      <point x="295" y="463"/>
      <point x="328" y="463" type="curve" smooth="yes"/>
      <point x="373" y="463"/>
      <point x="421" y="461"/>
      <point x="466" y="461" type="curve" smooth="yes"/>
      <point x="472" y="461"/>
      <point x="485" y="461"/>
      <point x="488" y="462" type="curve" smooth="yes"/>
      <point x="497" y="465"/>
      <point x="500" y="470"/>
      <point x="500" y="481" type="curve" smooth="yes"/>
      <point x="500" y="487"/>
      <point x="498" y="493"/>
      <point x="496" y="500" type="curve" smooth="yes"/>
      <point x="491" y="518"/>
      <point x="484" y="524"/>
      <point x="476" y="527" type="curve" smooth="yes"/>
      <point x="469" y="530"/>
      <point x="452" y="531"/>
      <point x="447" y="531" type="curve" smooth="yes"/>
      <point x="411" y="531"/>
      <point x="377" y="529"/>
      <point x="343" y="529" type="curve" smooth="yes"/>
      <point x="308" y="529"/>
      <point x="278" y="530"/>
      <point x="241" y="530" type="curve" smooth="yes"/>
      <point x="203" y="530"/>
      <point x="164" y="531"/>
      <point x="124" y="531" type="curve" smooth="yes"/>
      <point x="118" y="531"/>
      <point x="111" y="531"/>
      <point x="105" y="529" type="curve" smooth="yes"/>
      <point x="100" y="527"/>
      <point x="94" y="521"/>
      <point x="94" y="509" type="curve" smooth="yes"/>
      <point x="94" y="504"/>
      <point x="95" y="500"/>
    </contour>
    <contour>
      <point x="-19" y="25" type="curve" smooth="yes"/>
      <point x="-10" y="-2"/>
      <point x="2" y="-6"/>
      <point x="20" y="-6" type="curve" smooth="yes"/>
      <point x="38" y="-6"/>
      <point x="71" y="-3"/>
      <point x="111" y="-3" type="curve" smooth="yes"/>
      <point x="140" y="-3"/>
      <point x="168" y="-2"/>
      <point x="221" y="-2" type="curve" smooth="yes"/>
      <point x="267" y="-2"/>
      <point x="314" y="-4"/>
      <point x="360" y="-4" type="curve" smooth="yes"/>
      <point x="366" y="-4"/>
      <point x="378" y="-3"/>
      <point x="381" y="-2" type="curve" smooth="yes"/>
      <point x="388" y="1"/>
      <point x="393" y="8"/>
      <point x="393" y="18" type="curve" smooth="yes"/>
      <point x="393" y="23"/>
      <point x="392" y="30"/>
      <point x="387" y="43" type="curve" smooth="yes"/>
      <point x="382" y="55"/>
      <point x="377" y="62"/>
      <point x="370" y="65" type="curve" smooth="yes"/>
      <point x="363" y="68"/>
      <point x="346" y="68"/>
      <point x="341" y="68" type="curve" smooth="yes"/>
      <point x="305" y="68"/>
      <point x="271" y="66"/>
      <point x="237" y="66" type="curve" smooth="yes"/>
      <point x="191" y="66"/>
      <point x="170" y="63"/>
      <point x="124" y="63" type="curve" smooth="yes"/>
      <point x="86" y="63"/>
      <point x="47" y="64"/>
      <point x="7" y="64" type="curve" smooth="yes"/>
      <point x="1" y="64"/>
      <point x="-9" y="64"/>
      <point x="-12" y="63" type="curve" smooth="yes"/>
      <point x="-17" y="61"/>
      <point x="-23" y="57"/>
      <point x="-23" y="45" type="curve" smooth="yes"/>
      <point x="-23" y="40"/>
      <point x="-22" y="34"/>
    </contour>
    <contour>
      <point x="13" y="3" type="curve" smooth="yes"/>
      <point x="17" y="3"/>
      <point x="26" y="9"/>
      <point x="34" y="15" type="curve" smooth="yes"/>
      <point x="117" y="77"/>
      <point x="436" y="409"/>
      <point x="470" y="441" type="curve" smooth="yes"/>
      <point x="498" y="468"/>
      <point x="499" y="469"/>
      <point x="499" y="476" type="curve" smooth="yes"/>
      <point x="499" y="482"/>
      <point x="495" y="491"/>
      <point x="489" y="500" type="curve" smooth="yes"/>
      <point x="484" y="507"/>
      <point x="472" y="516"/>
      <point x="458" y="516" type="curve" smooth="yes"/>
      <point x="445" y="516"/>
      <point x="441" y="513"/>
      <point x="429" y="500" type="curve" smooth="yes"/>
      <point x="406" y="475"/>
      <point x="60" y="118"/>
      <point x="-15" y="62" type="curve" smooth="yes"/>
      <point x="-19" y="59"/>
      <point x="-22" y="53"/>
      <point x="-22" y="46" type="curve" smooth="yes"/>
      <point x="-22" y="42"/>
      <point x="-22" y="37"/>
      <point x="-20" y="31" type="curve" smooth="yes"/>
      <point x="-18" y="25"/>
      <point x="-10" y="13"/>
      <point x="-4" y="8" type="curve" smooth="yes"/>
      <point x="0" y="5"/>
      <point x="6" y="3"/>
    </contour>
  </outline>
</glyph>
<glyph name="uniA4DD" format="2">
  <advance width="476"/>
  <unicode hex="A4DD"/>
  <outline>
    <contour>
      <point x="175" y="460" type="line"/>
      <point x="183" y="460"/>
      <point x="221" y="461"/>
      <point x="266" y="462" type="curve" smooth="yes"/>
      <point x="326" y="463"/>
      <point x="396" y="465"/>
      <point x="415" y="465" type="curve" smooth="yes"/>
      <point x="431" y="465"/>
      <point x="448" y="463"/>
      <point x="463" y="463" type="curve" smooth="yes"/>
      <point x="475" y="463"/>
      <point x="485" y="464"/>
      <point x="491" y="470" type="curve" smooth="yes"/>
      <point x="497" y="476"/>
      <point x="501" y="482"/>
      <point x="501" y="489" type="curve" smooth="yes"/>
      <point x="501" y="519"/>
      <point x="469" y="534"/>
      <point x="432" y="534" type="curve" smooth="yes"/>
      <point x="395" y="534"/>
      <point x="232" y="532"/>
      <point x="206" y="531" type="curve"/>
    </contour>
    <contour>
      <point x="33" y="-9" type="curve" smooth="yes"/>
      <point x="62" y="-9"/>
      <point x="73" y="0"/>
      <point x="78" y="17" type="curve" smooth="yes"/>
      <point x="83" y="33"/>
      <point x="92" y="66"/>
      <point x="104" y="104" type="curve" smooth="yes"/>
      <point x="127" y="177"/>
      <point x="157" y="270"/>
      <point x="193" y="366" type="curve" smooth="yes"/>
      <point x="209" y="409"/>
      <point x="229" y="452"/>
      <point x="243" y="495" type="curve" smooth="yes"/>
      <point x="245" y="501"/>
      <point x="246" y="505"/>
      <point x="246" y="509" type="curve" smooth="yes"/>
      <point x="246" y="520"/>
      <point x="229" y="531"/>
      <point x="206" y="531" type="curve" smooth="yes"/>
      <point x="188" y="531"/>
      <point x="178" y="528"/>
      <point x="173" y="521" type="curve" smooth="yes"/>
      <point x="169" y="516"/>
      <point x="166" y="507"/>
      <point x="164" y="502" type="curve" smooth="yes"/>
      <point x="151" y="469"/>
      <point x="143" y="436"/>
      <point x="132" y="403" type="curve" smooth="yes"/>
      <point x="102" y="313"/>
      <point x="74" y="228"/>
      <point x="40" y="140" type="curve" smooth="yes"/>
      <point x="26" y="104"/>
      <point x="14" y="68"/>
      <point x="1" y="30" type="curve" smooth="yes"/>
      <point x="-1" y="24"/>
      <point x="-4" y="18"/>
      <point x="-4" y="11" type="curve" smooth="yes"/>
      <point x="-4" y="3"/>
      <point x="4" y="-9"/>
    </contour>
    <contour>
      <point x="399" y="245" type="curve" smooth="yes"/>
      <point x="406" y="256"/>
      <point x="409" y="261"/>
      <point x="409" y="267" type="curve" smooth="yes"/>
      <point x="409" y="277"/>
      <point x="401" y="283"/>
      <point x="397" y="284" type="curve" smooth="yes"/>
      <point x="393" y="285"/>
      <point x="388" y="286"/>
      <point x="383" y="286" type="curve" smooth="yes"/>
      <point x="379" y="286"/>
      <point x="365" y="285"/>
      <point x="353" y="285" type="curve" smooth="yes"/>
      <point x="333" y="285"/>
      <point x="289" y="284"/>
      <point x="232" y="284" type="curve" smooth="yes"/>
      <point x="197" y="284"/>
      <point x="178" y="285"/>
      <point x="142" y="285" type="curve" smooth="yes"/>
      <point x="137" y="285"/>
      <point x="119" y="285"/>
      <point x="113" y="282" type="curve" smooth="yes"/>
      <point x="106" y="279"/>
      <point x="94" y="273"/>
      <point x="94" y="254" type="curve" smooth="yes"/>
      <point x="94" y="227"/>
      <point x="103" y="217"/>
      <point x="120" y="217" type="curve" smooth="yes"/>
      <point x="123" y="217"/>
      <point x="125" y="217"/>
      <point x="127" y="217" type="curve" smooth="yes"/>
      <point x="170" y="217"/>
      <point x="202" y="220"/>
      <point x="247" y="220" type="curve" smooth="yes"/>
      <point x="281" y="220"/>
      <point x="300" y="218"/>
      <point x="346" y="218" type="curve" smooth="yes"/>
      <point x="364" y="218"/>
      <point x="384" y="222"/>
    </contour>
  </outline>
</glyph>
<glyph name="uniA4DE" format="2">
  <advance width="466"/>
  <unicode hex="A4DE"/>
  <outline>
    <contour>
      <point x="299" y="65" type="line"/>
      <point x="291" y="65"/>
      <point x="253" y="65"/>
      <point x="208" y="64" type="curve" smooth="yes"/>
      <point x="148" y="63"/>
      <point x="78" y="61"/>
      <point x="59" y="61" type="curve" smooth="yes"/>
      <point x="43" y="61"/>
      <point x="26" y="63"/>
      <point x="11" y="63" type="curve" smooth="yes"/>
      <point x="-1" y="63"/>
      <point x="-11" y="62"/>
      <point x="-17" y="56" type="curve" smooth="yes"/>
      <point x="-23" y="50"/>
      <point x="-27" y="44"/>
      <point x="-27" y="37" type="curve" smooth="yes"/>
      <point x="-27" y="7"/>
      <point x="5" y="-8"/>
      <point x="42" y="-8" type="curve" smooth="yes"/>
      <point x="79" y="-8"/>
      <point x="242" y="-6"/>
      <point x="268" y="-5" type="curve"/>
    </contour>
    <contour>
      <point x="441" y="534" type="curve" smooth="yes"/>
      <point x="412" y="534"/>
      <point x="401" y="525"/>
      <point x="396" y="508" type="curve" smooth="yes"/>
      <point x="391" y="492"/>
      <point x="382" y="459"/>
      <point x="370" y="421" type="curve" smooth="yes"/>
      <point x="347" y="348"/>
      <point x="317" y="255"/>
      <point x="281" y="159" type="curve" smooth="yes"/>
      <point x="265" y="116"/>
      <point x="245" y="74"/>
      <point x="231" y="31" type="curve" smooth="yes"/>
      <point x="229" y="25"/>
      <point x="228" y="21"/>
      <point x="228" y="17" type="curve" smooth="yes"/>
      <point x="228" y="6"/>
      <point x="245" y="-5"/>
      <point x="268" y="-5" type="curve" smooth="yes"/>
      <point x="286" y="-5"/>
      <point x="295" y="-1"/>
      <point x="300" y="4" type="curve" smooth="yes"/>
      <point x="306" y="10"/>
      <point x="309" y="19"/>
      <point x="310" y="23" type="curve" smooth="yes"/>
      <point x="319" y="59"/>
      <point x="331" y="89"/>
      <point x="342" y="122" type="curve" smooth="yes"/>
      <point x="372" y="211"/>
      <point x="402" y="296"/>
      <point x="434" y="385" type="curve" smooth="yes"/>
      <point x="447" y="421"/>
      <point x="458" y="458"/>
      <point x="473" y="495" type="curve" smooth="yes"/>
      <point x="475" y="500"/>
      <point x="478" y="507"/>
      <point x="478" y="514" type="curve" smooth="yes"/>
      <point x="478" y="521"/>
      <point x="470" y="534"/>
    </contour>
    <contour>
      <point x="70" y="279" type="curve" smooth="yes"/>
      <point x="65" y="271"/>
      <point x="60" y="263"/>
      <point x="60" y="257" type="curve" smooth="yes"/>
      <point x="60" y="247"/>
      <point x="67" y="241"/>
      <point x="71" y="240" type="curve" smooth="yes"/>
      <point x="75" y="239"/>
      <point x="80" y="238"/>
      <point x="85" y="238" type="curve" smooth="yes"/>
      <point x="94" y="238"/>
      <point x="109" y="239"/>
      <point x="122" y="239" type="curve" smooth="yes"/>
      <point x="141" y="239"/>
      <point x="199" y="241"/>
      <point x="257" y="241" type="curve" smooth="yes"/>
      <point x="291" y="241"/>
      <point x="311" y="241"/>
      <point x="347" y="241" type="curve" smooth="yes"/>
      <point x="351" y="241"/>
      <point x="360" y="241"/>
      <point x="366" y="244" type="curve" smooth="yes"/>
      <point x="373" y="247"/>
      <point x="385" y="253"/>
      <point x="385" y="272" type="curve" smooth="yes"/>
      <point x="385" y="302"/>
      <point x="377" y="309"/>
      <point x="352" y="309" type="curve" smooth="yes"/>
      <point x="309" y="309"/>
      <point x="276" y="305"/>
      <point x="241" y="305" type="curve" smooth="yes"/>
      <point x="207" y="305"/>
      <point x="168" y="309"/>
      <point x="123" y="307" type="curve" smooth="yes"/>
      <point x="100" y="306"/>
      <point x="83" y="300"/>
    </contour>
  </outline>
</glyph>
<glyph name="uniA4DF" format="2">
  <advance width="697"/>
  <unicode hex="A4DF"/>
  <outline>
    <contour>
      <point x="403" y="153" type="curve" smooth="yes"/>
      <point x="403" y="146"/>
      <point x="396" y="140"/>
      <point x="392" y="137" type="curve" smooth="yes"/>
      <point x="386" y="133"/>
      <point x="372" y="130"/>
      <point x="365" y="130" type="curve" smooth="yes"/>
      <point x="348" y="130"/>
      <point x="337" y="132"/>
      <point x="334" y="149" type="curve" smooth="yes"/>
      <point x="321" y="249"/>
      <point x="277" y="419"/>
      <point x="262" y="462" type="curve" smooth="yes"/>
      <point x="257" y="477"/>
      <point x="256" y="492"/>
      <point x="256" y="504" type="curve" smooth="yes"/>
      <point x="256" y="517"/>
      <point x="259" y="527"/>
      <point x="265" y="530" type="curve" smooth="yes"/>
      <point x="271" y="532"/>
      <point x="279" y="533"/>
      <point x="289" y="533" type="curve" smooth="yes"/>
      <point x="307" y="533"/>
      <point x="327" y="529"/>
      <point x="328" y="516" type="curve" smooth="yes"/>
      <point x="328" y="509"/>
      <point x="330" y="496"/>
      <point x="333" y="477" type="curve" smooth="yes"/>
      <point x="343" y="420"/>
      <point x="381" y="287"/>
      <point x="400" y="182" type="curve" smooth="yes"/>
      <point x="402" y="172"/>
      <point x="403" y="163"/>
    </contour>
    <contour>
      <point x="663" y="510" type="curve" smooth="yes"/>
      <point x="669" y="518"/>
      <point x="678" y="527"/>
      <point x="682" y="530" type="curve" smooth="yes"/>
      <point x="685" y="533"/>
      <point x="691" y="534"/>
      <point x="698" y="534" type="curve" smooth="yes"/>
      <point x="705" y="534"/>
      <point x="712" y="533"/>
      <point x="716" y="529" type="curve" smooth="yes"/>
      <point x="719" y="527"/>
      <point x="720" y="524"/>
      <point x="720" y="521" type="curve" smooth="yes"/>
      <point x="720" y="515"/>
      <point x="718" y="508"/>
      <point x="712" y="495" type="curve" smooth="yes"/>
      <point x="677" y="411"/>
      <point x="486" y="241"/>
      <point x="419" y="157" type="curve" smooth="yes"/>
      <point x="415" y="152"/>
      <point x="411" y="147"/>
      <point x="407" y="143" type="curve" smooth="yes"/>
      <point x="402" y="138"/>
      <point x="395" y="132"/>
      <point x="389" y="131" type="curve" smooth="yes"/>
      <point x="380" y="130"/>
      <point x="374" y="130"/>
      <point x="363" y="130" type="curve" smooth="yes"/>
      <point x="355" y="130"/>
      <point x="346" y="132"/>
      <point x="340" y="138" type="curve" smooth="yes"/>
      <point x="337" y="140"/>
      <point x="337" y="145"/>
      <point x="337" y="149" type="curve" smooth="yes"/>
      <point x="337" y="154"/>
      <point x="337" y="158"/>
      <point x="338" y="160" type="curve" smooth="yes"/>
      <point x="342" y="168"/>
      <point x="350" y="179"/>
      <point x="359" y="190" type="curve" smooth="yes"/>
      <point x="443" y="292"/>
      <point x="618" y="454"/>
    </contour>
    <contour>
      <point x="112" y="-9" type="curve" smooth="yes"/>
      <point x="83" y="-9"/>
      <point x="75" y="3"/>
      <point x="75" y="11" type="curve" smooth="yes"/>
      <point x="75" y="18"/>
      <point x="78" y="24"/>
      <point x="80" y="30" type="curve" smooth="yes"/>
      <point x="92" y="68"/>
      <point x="105" y="104"/>
      <point x="119" y="140" type="curve" smooth="yes"/>
      <point x="151" y="229"/>
      <point x="181" y="313"/>
      <point x="211" y="403" type="curve" smooth="yes"/>
      <point x="222" y="436"/>
      <point x="231" y="468"/>
      <point x="243" y="502" type="curve" smooth="yes"/>
      <point x="244" y="507"/>
      <point x="250" y="523"/>
      <point x="255" y="529" type="curve" smooth="yes"/>
      <point x="260" y="534"/>
      <point x="269" y="538"/>
      <point x="288" y="538" type="curve" smooth="yes"/>
      <point x="310" y="538"/>
      <point x="328" y="527"/>
      <point x="328" y="516" type="curve" smooth="yes"/>
      <point x="328" y="513"/>
      <point x="324" y="501"/>
      <point x="322" y="495" type="curve" smooth="yes"/>
      <point x="304" y="453"/>
      <point x="288" y="409"/>
      <point x="272" y="366" type="curve" smooth="yes"/>
      <point x="237" y="270"/>
      <point x="207" y="177"/>
      <point x="183" y="104" type="curve" smooth="yes"/>
      <point x="171" y="66"/>
      <point x="162" y="33"/>
      <point x="157" y="17" type="curve" smooth="yes"/>
      <point x="152" y="0"/>
      <point x="141" y="-9"/>
    </contour>
    <contour>
      <point x="538" y="-9" type="curve" smooth="yes"/>
      <point x="508" y="-9"/>
      <point x="501" y="3"/>
      <point x="501" y="11" type="curve" smooth="yes"/>
      <point x="501" y="18"/>
      <point x="503" y="24"/>
      <point x="505" y="30" type="curve" smooth="yes"/>
      <point x="518" y="68"/>
      <point x="531" y="104"/>
      <point x="544" y="140" type="curve" smooth="yes"/>
      <point x="577" y="229"/>
      <point x="607" y="313"/>
      <point x="642" y="403" type="curve" smooth="yes"/>
      <point x="654" y="435"/>
      <point x="662" y="468"/>
      <point x="673" y="502" type="curve" smooth="yes"/>
      <point x="675" y="507"/>
      <point x="676" y="523"/>
      <point x="681" y="529" type="curve" smooth="yes"/>
      <point x="686" y="535"/>
      <point x="695" y="538"/>
      <point x="713" y="538" type="curve" smooth="yes"/>
      <point x="736" y="538"/>
      <point x="753" y="527"/>
      <point x="753" y="516" type="curve" smooth="yes"/>
      <point x="753" y="513"/>
      <point x="750" y="501"/>
      <point x="748" y="495" type="curve" smooth="yes"/>
      <point x="731" y="453"/>
      <point x="716" y="409"/>
      <point x="700" y="366" type="curve" smooth="yes"/>
      <point x="666" y="270"/>
      <point x="635" y="177"/>
      <point x="611" y="104" type="curve" smooth="yes"/>
      <point x="599" y="66"/>
      <point x="588" y="33"/>
      <point x="583" y="17" type="curve" smooth="yes"/>
      <point x="578" y="0"/>
      <point x="567" y="-9"/>
    </contour>
  </outline>
</glyph>
<glyph name="uniA4E0" format="2">
  <advance width="581"/>
  <unicode hex="A4E0"/>
  <outline>
    <contour>
      <point x="61" y="-9" type="curve" smooth="yes"/>
      <point x="89" y="-9"/>
      <point x="100" y="0"/>
      <point x="105" y="17" type="curve" smooth="yes"/>
      <point x="110" y="33"/>
      <point x="119" y="66"/>
      <point x="131" y="104" type="curve" smooth="yes"/>
      <point x="154" y="177"/>
      <point x="185" y="271"/>
      <point x="220" y="366" type="curve" smooth="yes"/>
      <point x="236" y="409"/>
      <point x="256" y="452"/>
      <point x="270" y="495" type="curve" smooth="yes"/>
      <point x="272" y="501"/>
      <point x="275" y="513"/>
      <point x="275" y="516" type="curve" smooth="yes"/>
      <point x="275" y="527"/>
      <point x="258" y="538"/>
      <point x="236" y="538" type="curve" smooth="yes"/>
      <point x="217" y="538"/>
      <point x="208" y="535"/>
      <point x="203" y="529" type="curve" smooth="yes"/>
      <point x="198" y="523"/>
      <point x="193" y="507"/>
      <point x="191" y="502" type="curve" smooth="yes"/>
      <point x="178" y="469"/>
      <point x="170" y="436"/>
      <point x="159" y="403" type="curve" smooth="yes"/>
      <point x="129" y="313"/>
      <point x="100" y="230"/>
      <point x="67" y="140" type="curve" smooth="yes"/>
      <point x="54" y="104"/>
      <point x="40" y="67"/>
      <point x="28" y="30" type="curve" smooth="yes"/>
      <point x="26" y="24"/>
      <point x="23" y="18"/>
      <point x="23" y="11" type="curve" smooth="yes"/>
      <point x="23" y="3"/>
      <point x="31" y="-9"/>
    </contour>
    <contour>
      <point x="383" y="-9" type="curve" smooth="yes"/>
      <point x="411" y="-9"/>
      <point x="422" y="0"/>
      <point x="427" y="17" type="curve" smooth="yes"/>
      <point x="432" y="33"/>
      <point x="441" y="66"/>
      <point x="453" y="104" type="curve" smooth="yes"/>
      <point x="476" y="177"/>
      <point x="507" y="271"/>
      <point x="542" y="366" type="curve" smooth="yes"/>
      <point x="558" y="409"/>
      <point x="578" y="452"/>
      <point x="592" y="495" type="curve" smooth="yes"/>
      <point x="594" y="501"/>
      <point x="598" y="513"/>
      <point x="598" y="516" type="curve" smooth="yes"/>
      <point x="598" y="527"/>
      <point x="580" y="538"/>
      <point x="558" y="538" type="curve" smooth="yes"/>
      <point x="539" y="538"/>
      <point x="531" y="536"/>
      <point x="525" y="529" type="curve" smooth="yes"/>
      <point x="520" y="523"/>
      <point x="515" y="507"/>
      <point x="513" y="502" type="curve" smooth="yes"/>
      <point x="500" y="469"/>
      <point x="492" y="436"/>
      <point x="481" y="403" type="curve" smooth="yes"/>
      <point x="451" y="313"/>
      <point x="423" y="229"/>
      <point x="391" y="140" type="curve" smooth="yes"/>
      <point x="378" y="104"/>
      <point x="363" y="68"/>
      <point x="350" y="30" type="curve" smooth="yes"/>
      <point x="348" y="24"/>
      <point x="345" y="18"/>
      <point x="345" y="11" type="curve" smooth="yes"/>
      <point x="345" y="5"/>
      <point x="353" y="-9"/>
    </contour>
    <contour>
      <point x="414" y="16" type="curve" smooth="yes"/>
      <point x="414" y="25"/>
      <point x="413" y="34"/>
      <point x="411" y="44" type="curve" smooth="yes"/>
      <point x="390" y="150"/>
      <point x="295" y="420"/>
      <point x="283" y="477" type="curve" smooth="yes"/>
      <point x="279" y="496"/>
      <point x="276" y="509"/>
      <point x="275" y="516" type="curve" smooth="yes"/>
      <point x="273" y="529"/>
      <point x="255" y="533"/>
      <point x="237" y="533" type="curve" smooth="yes"/>
      <point x="228" y="533"/>
      <point x="219" y="533"/>
      <point x="213" y="530" type="curve" smooth="yes"/>
      <point x="207" y="527"/>
      <point x="204" y="517"/>
      <point x="204" y="504" type="curve" smooth="yes"/>
      <point x="204" y="492"/>
      <point x="206" y="478"/>
      <point x="210" y="462" type="curve" smooth="yes"/>
      <point x="221" y="419"/>
      <point x="327" y="110"/>
      <point x="345" y="11" type="curve" smooth="yes"/>
      <point x="347" y="0"/>
      <point x="359" y="-8"/>
      <point x="376" y="-8" type="curve" smooth="yes"/>
      <point x="383" y="-8"/>
      <point x="398" y="-5"/>
      <point x="403" y="-1" type="curve" smooth="yes"/>
      <point x="407" y="2"/>
      <point x="414" y="9"/>
    </contour>
  </outline>
</glyph>
<glyph name="uniA4E1" format="2">
  <advance width="405"/>
  <unicode hex="A4E1"/>
  <outline>
    <contour>
      <point x="275" y="382" type="curve" smooth="yes"/>
      <point x="242" y="293"/>
      <point x="215" y="207"/>
      <point x="183" y="118" type="curve" smooth="yes"/>
      <point x="178" y="103"/>
      <point x="172" y="84"/>
      <point x="172" y="79" type="curve" smooth="yes"/>
      <point x="172" y="69"/>
      <point x="176" y="65"/>
      <point x="188" y="64" type="curve" smooth="yes"/>
      <point x="198" y="63"/>
      <point x="206" y="63"/>
      <point x="211" y="63" type="curve" smooth="yes"/>
      <point x="262" y="63"/>
      <point x="299" y="67"/>
      <point x="331" y="67" type="curve" smooth="yes"/>
      <point x="377" y="67"/>
      <point x="390" y="58"/>
      <point x="397" y="39" type="curve" smooth="yes"/>
      <point x="399" y="34"/>
      <point x="402" y="25"/>
      <point x="402" y="19" type="curve" smooth="yes"/>
      <point x="402" y="3"/>
      <point x="389" y="-5"/>
      <point x="352" y="-5" type="curve" smooth="yes"/>
      <point x="340" y="-5"/>
      <point x="327" y="-4"/>
      <point x="306" y="-4" type="curve" smooth="yes"/>
      <point x="279" y="-4"/>
      <point x="238" y="-8"/>
      <point x="202" y="-8" type="curve" smooth="yes"/>
      <point x="178" y="-8"/>
      <point x="149" y="-7"/>
      <point x="127" y="-3" type="curve" smooth="yes"/>
      <point x="104" y="1"/>
      <point x="85" y="15"/>
      <point x="85" y="40" type="curve" smooth="yes"/>
      <point x="85" y="42"/>
      <point x="85" y="44"/>
      <point x="85" y="47" type="curve" smooth="yes"/>
      <point x="88" y="60"/>
      <point x="111" y="125"/>
      <point x="122" y="156" type="curve" smooth="yes"/>
      <point x="157" y="251"/>
      <point x="187" y="341"/>
      <point x="211" y="415" type="curve" smooth="yes"/>
      <point x="222" y="447"/>
      <point x="231" y="479"/>
      <point x="243" y="514" type="curve" smooth="yes"/>
      <point x="244" y="518"/>
      <point x="247" y="527"/>
      <point x="251" y="530" type="curve" smooth="yes"/>
      <point x="257" y="535"/>
      <point x="271" y="538"/>
      <point x="285" y="538" type="curve" smooth="yes"/>
      <point x="308" y="538"/>
      <point x="323" y="531"/>
      <point x="323" y="520" type="curve" smooth="yes"/>
      <point x="323" y="517"/>
      <point x="323" y="512"/>
      <point x="321" y="506" type="curve" smooth="yes"/>
      <point x="306" y="464"/>
      <point x="291" y="425"/>
    </contour>
  </outline>
</glyph>
<glyph name="uniA4E2" format="2">
  <advance width="382"/>
  <unicode hex="A4E2"/>
  <guideline x="225" y="315" angle="70.9703"/>
  <outline>
    <contour>
      <point x="127" y="-10" type="curve" smooth="yes"/>
      <point x="229" y="-10"/>
      <point x="299" y="51"/>
      <point x="299" y="135" type="curve" smooth="yes"/>
      <point x="299" y="201"/>
      <point x="251" y="254"/>
      <point x="204" y="301" type="curve" smooth="yes"/>
      <point x="166" y="339"/>
      <point x="133" y="375"/>
      <point x="133" y="412" type="curve" smooth="yes"/>
      <point x="133" y="442"/>
      <point x="164" y="469"/>
      <point x="209" y="469" type="curve" smooth="yes"/>
      <point x="249" y="469"/>
      <point x="273" y="455"/>
      <point x="295" y="428" type="curve" smooth="yes"/>
      <point x="300" y="422"/>
      <point x="305" y="417"/>
      <point x="313" y="417" type="curve" smooth="yes"/>
      <point x="327" y="417"/>
      <point x="365" y="433"/>
      <point x="365" y="449" type="curve" smooth="yes"/>
      <point x="365" y="461"/>
      <point x="353" y="482"/>
      <point x="336" y="497" type="curve" smooth="yes"/>
      <point x="313" y="517"/>
      <point x="272" y="538"/>
      <point x="218" y="538" type="curve" smooth="yes"/>
      <point x="116" y="538"/>
      <point x="63" y="478"/>
      <point x="63" y="406" type="curve" smooth="yes"/>
      <point x="63" y="345"/>
      <point x="109" y="298"/>
      <point x="154" y="254" type="curve" smooth="yes"/>
      <point x="194" y="215"/>
      <point x="229" y="176"/>
      <point x="229" y="129" type="curve" smooth="yes"/>
      <point x="229" y="97"/>
      <point x="191" y="59"/>
      <point x="136" y="59" type="curve" smooth="yes"/>
      <point x="91" y="59"/>
      <point x="65" y="90"/>
      <point x="52" y="109" type="curve" smooth="yes"/>
      <point x="45" y="119"/>
      <point x="43" y="124"/>
      <point x="40" y="129" type="curve" smooth="yes"/>
      <point x="35" y="137"/>
      <point x="31" y="139"/>
      <point x="25" y="139" type="curve" smooth="yes"/>
      <point x="9" y="139"/>
      <point x="-28" y="125"/>
      <point x="-28" y="104" type="curve" smooth="yes"/>
      <point x="-28" y="91"/>
      <point x="-20" y="76"/>
      <point x="-12" y="63" type="curve" smooth="yes"/>
      <point x="4" y="36"/>
      <point x="58" y="-10"/>
    </contour>
  </outline>
</glyph>
<glyph name="uniA4E3" format="2">
  <advance width="503"/>
  <unicode hex="A4E3"/>
  <outline>
    <contour>
      <point x="131" y="228" type="line"/>
      <point x="178" y="225"/>
      <point x="188" y="224"/>
      <point x="226" y="224" type="curve" smooth="yes"/>
      <point x="375" y="224"/>
      <point x="468" y="292"/>
      <point x="468" y="401" type="curve" smooth="yes"/>
      <point x="468" y="478"/>
      <point x="400" y="538"/>
      <point x="234" y="538" type="curve" smooth="yes"/>
      <point x="202" y="538"/>
      <point x="176" y="538"/>
      <point x="123" y="530" type="curve" smooth="yes"/>
      <point x="109" y="528"/>
      <point x="104" y="521"/>
      <point x="104" y="510" type="curve" smooth="yes"/>
      <point x="104" y="496"/>
      <point x="107" y="482"/>
      <point x="113" y="473" type="curve" smooth="yes"/>
      <point x="117" y="467"/>
      <point x="124" y="465"/>
      <point x="131" y="465" type="curve" smooth="yes"/>
      <point x="134" y="465"/>
      <point x="136" y="465"/>
      <point x="141" y="466" type="curve" smooth="yes"/>
      <point x="153" y="468"/>
      <point x="178" y="472"/>
      <point x="218" y="472" type="curve" smooth="yes"/>
      <point x="351" y="472"/>
      <point x="398" y="442"/>
      <point x="398" y="395" type="curve" smooth="yes"/>
      <point x="398" y="328"/>
      <point x="325" y="292"/>
      <point x="239" y="292" type="curve" smooth="yes"/>
      <point x="211" y="292"/>
      <point x="198" y="293"/>
      <point x="155" y="295" type="curve"/>
    </contour>
    <contour>
      <point x="279" y="246" type="curve"/>
      <point x="205" y="234" type="line"/>
      <point x="258" y="203"/>
      <point x="270" y="129"/>
      <point x="320" y="34" type="curve" smooth="yes"/>
      <point x="337" y="2"/>
      <point x="354" y="-9"/>
      <point x="388" y="-9" type="curve" smooth="yes"/>
      <point x="407" y="-9"/>
      <point x="420" y="0"/>
      <point x="420" y="8" type="curve" smooth="yes"/>
      <point x="420" y="10"/>
      <point x="419" y="13"/>
      <point x="418" y="15" type="curve" smooth="yes"/>
      <point x="413" y="25"/>
      <point x="396" y="41"/>
      <point x="384" y="65" type="curve" smooth="yes"/>
      <point x="342" y="149"/>
      <point x="326" y="223"/>
    </contour>
    <contour>
      <point x="59" y="-9" type="curve" smooth="yes"/>
      <point x="88" y="-9"/>
      <point x="99" y="0"/>
      <point x="104" y="17" type="curve" smooth="yes"/>
      <point x="109" y="33"/>
      <point x="118" y="66"/>
      <point x="130" y="104" type="curve" smooth="yes"/>
      <point x="153" y="177"/>
      <point x="183" y="270"/>
      <point x="219" y="366" type="curve" smooth="yes"/>
      <point x="235" y="409"/>
      <point x="251" y="454"/>
      <point x="263" y="486" type="curve" smooth="yes"/>
      <point x="268" y="499"/>
      <point x="269" y="505"/>
      <point x="269" y="511" type="curve" smooth="yes"/>
      <point x="269" y="520"/>
      <point x="253" y="531"/>
      <point x="232" y="531" type="curve" smooth="yes"/>
      <point x="214" y="531"/>
      <point x="205" y="528"/>
      <point x="201" y="521" type="curve" smooth="yes"/>
      <point x="198" y="516"/>
      <point x="194" y="507"/>
      <point x="192" y="502" type="curve" smooth="yes"/>
      <point x="179" y="470"/>
      <point x="169" y="436"/>
      <point x="158" y="403" type="curve" smooth="yes"/>
      <point x="128" y="313"/>
      <point x="99" y="229"/>
      <point x="67" y="140" type="curve" smooth="yes"/>
      <point x="54" y="104"/>
      <point x="41" y="68"/>
      <point x="28" y="30" type="curve" smooth="yes"/>
      <point x="26" y="24"/>
      <point x="23" y="18"/>
      <point x="23" y="11" type="curve" smooth="yes"/>
      <point x="23" y="3"/>
      <point x="30" y="-9"/>
    </contour>
  </outline>
</glyph>
<glyph name="uniA4E4" format="2">
  <advance width="474"/>
  <unicode hex="A4E4"/>
  <outline>
    <contour>
      <point x="423" y="538" type="curve" smooth="yes"/>
      <point x="395" y="538"/>
      <point x="382" y="530"/>
      <point x="378" y="513" type="curve" smooth="yes"/>
      <point x="374" y="496"/>
      <point x="365" y="463"/>
      <point x="353" y="426" type="curve" smooth="yes"/>
      <point x="329" y="352"/>
      <point x="297" y="260"/>
      <point x="264" y="164" type="curve" smooth="yes"/>
      <point x="249" y="121"/>
      <point x="229" y="77"/>
      <point x="215" y="34" type="curve" smooth="yes"/>
      <point x="213" y="28"/>
      <point x="212" y="24"/>
      <point x="212" y="21" type="curve" smooth="yes"/>
      <point x="212" y="10"/>
      <point x="230" y="-1"/>
      <point x="251" y="-1" type="curve" smooth="yes"/>
      <point x="269" y="-1"/>
      <point x="277" y="2"/>
      <point x="283" y="8" type="curve" smooth="yes"/>
      <point x="288" y="13"/>
      <point x="291" y="22"/>
      <point x="293" y="27" type="curve" smooth="yes"/>
      <point x="306" y="60"/>
      <point x="314" y="94"/>
      <point x="325" y="126" type="curve" smooth="yes"/>
      <point x="356" y="216"/>
      <point x="384" y="301"/>
      <point x="417" y="390" type="curve" smooth="yes"/>
      <point x="430" y="425"/>
      <point x="441" y="462"/>
      <point x="456" y="500" type="curve" smooth="yes"/>
      <point x="458" y="505"/>
      <point x="461" y="512"/>
      <point x="461" y="518" type="curve" smooth="yes"/>
      <point x="461" y="526"/>
      <point x="453" y="538"/>
    </contour>
    <contour>
      <point x="265" y="53" type="curve" smooth="yes"/>
      <point x="131" y="53"/>
      <point x="85" y="87"/>
      <point x="85" y="139" type="curve" smooth="yes"/>
      <point x="85" y="201"/>
      <point x="157" y="238"/>
      <point x="243" y="238" type="curve" smooth="yes"/>
      <point x="262" y="238"/>
      <point x="283" y="236"/>
      <point x="326" y="229" type="curve"/>
      <point x="350" y="296" type="line"/>
      <point x="303" y="303"/>
      <point x="280" y="305"/>
      <point x="257" y="305" type="curve" smooth="yes"/>
      <point x="106" y="305"/>
      <point x="15" y="238"/>
      <point x="15" y="128" type="curve" smooth="yes"/>
      <point x="15" y="48"/>
      <point x="82" y="-10"/>
      <point x="248" y="-10" type="curve" smooth="yes"/>
      <point x="275" y="-10"/>
      <point x="313" y="-5"/>
      <point x="337" y="-2" type="curve" smooth="yes"/>
      <point x="352" y="0"/>
      <point x="356" y="6"/>
      <point x="356" y="18" type="curve" smooth="yes"/>
      <point x="356" y="32"/>
      <point x="351" y="44"/>
      <point x="348" y="49" type="curve" smooth="yes"/>
      <point x="342" y="59"/>
      <point x="336" y="61"/>
      <point x="324" y="61" type="curve" smooth="yes"/>
      <point x="316" y="61"/>
      <point x="285" y="53"/>
    </contour>
    <contour>
      <point x="285" y="281" type="line"/>
      <point x="233" y="341"/>
      <point x="196" y="406"/>
      <point x="171" y="479" type="curve" smooth="yes"/>
      <point x="163" y="502"/>
      <point x="165" y="511"/>
      <point x="156" y="521" type="curve" smooth="yes"/>
      <point x="148" y="530"/>
      <point x="131" y="538"/>
      <point x="115" y="538" type="curve" smooth="yes"/>
      <point x="95" y="538"/>
      <point x="84" y="533"/>
      <point x="84" y="517" type="curve" smooth="yes"/>
      <point x="84" y="511"/>
      <point x="86" y="497"/>
      <point x="96" y="470" type="curve" smooth="yes"/>
      <point x="123" y="397"/>
      <point x="176" y="300"/>
      <point x="226" y="246" type="curve"/>
    </contour>
  </outline>
</glyph>
<glyph name="uniA4E5" format="2">
  <advance width="490"/>
  <unicode hex="A4E5"/>
  <outline>
    <contour>
      <point x="58" y="74" type="curve" smooth="yes"/>
      <point x="145" y="221"/>
      <point x="203" y="315"/>
      <point x="242" y="370" type="curve" smooth="yes"/>
      <point x="274" y="416"/>
      <point x="290" y="435"/>
      <point x="299" y="435" type="curve" smooth="yes"/>
      <point x="306" y="435"/>
      <point x="312" y="412"/>
      <point x="312" y="375" type="curve" smooth="yes"/>
      <point x="312" y="286"/>
      <point x="303" y="119"/>
      <point x="303" y="40" type="curve" smooth="yes"/>
      <point x="303" y="31"/>
      <point x="303" y="24"/>
      <point x="303" y="19" type="curve" smooth="yes"/>
      <point x="303" y="7"/>
      <point x="306" y="-2"/>
      <point x="316" y="-5" type="curve" smooth="yes"/>
      <point x="322" y="-7"/>
      <point x="332" y="-9"/>
      <point x="341" y="-9" type="curve" smooth="yes"/>
      <point x="353" y="-9"/>
      <point x="362" y="-8"/>
      <point x="370" y="-4" type="curve" smooth="yes"/>
      <point x="377" y="0"/>
      <point x="380" y="10"/>
      <point x="381" y="41" type="curve" smooth="yes"/>
      <point x="384" y="125"/>
      <point x="385" y="199"/>
      <point x="385" y="260" type="curve" smooth="yes"/>
      <point x="385" y="312"/>
      <point x="383" y="355"/>
      <point x="382" y="391" type="curve" smooth="yes"/>
      <point x="379" y="505"/>
      <point x="362" y="538"/>
      <point x="336" y="538" type="curve" smooth="yes"/>
      <point x="295" y="538"/>
      <point x="243" y="490"/>
      <point x="183" y="404" type="curve" smooth="yes"/>
      <point x="128" y="326"/>
      <point x="53" y="216"/>
      <point x="-30" y="71" type="curve" smooth="yes"/>
      <point x="-45" y="45"/>
      <point x="-61" y="23"/>
      <point x="-61" y="12" type="curve" smooth="yes"/>
      <point x="-61" y="0"/>
      <point x="-56" y="-9"/>
      <point x="-29" y="-9" type="curve" smooth="yes"/>
      <point x="-6" y="-9"/>
      <point x="6" y="-6"/>
      <point x="23" y="17" type="curve" smooth="yes"/>
      <point x="32" y="29"/>
      <point x="42" y="47"/>
    </contour>
  </outline>
</glyph>
<glyph name="uniA4E6" format="2">
  <advance width="534"/>
  <unicode hex="A4E6"/>
  <guideline x="265" y="315" angle="70.9703"/>
  <outline>
    <contour>
      <point x="410" y="455" type="curve" smooth="yes"/>
      <point x="324" y="309"/>
      <point x="265" y="213"/>
      <point x="226" y="158" type="curve" smooth="yes"/>
      <point x="193" y="112"/>
      <point x="178" y="93"/>
      <point x="168" y="93" type="curve" smooth="yes"/>
      <point x="162" y="93"/>
      <point x="156" y="117"/>
      <point x="156" y="153" type="curve" smooth="yes"/>
      <point x="156" y="242"/>
      <point x="165" y="410"/>
      <point x="165" y="490" type="curve" smooth="yes"/>
      <point x="165" y="498"/>
      <point x="165" y="505"/>
      <point x="165" y="510" type="curve" smooth="yes"/>
      <point x="165" y="522"/>
      <point x="162" y="531"/>
      <point x="152" y="534" type="curve" smooth="yes"/>
      <point x="146" y="536"/>
      <point x="136" y="538"/>
      <point x="127" y="538" type="curve" smooth="yes"/>
      <point x="115" y="538"/>
      <point x="106" y="537"/>
      <point x="98" y="533" type="curve" smooth="yes"/>
      <point x="91" y="530"/>
      <point x="88" y="520"/>
      <point x="87" y="489" type="curve" smooth="yes"/>
      <point x="84" y="404"/>
      <point x="83" y="331"/>
      <point x="83" y="269" type="curve" smooth="yes"/>
      <point x="83" y="217"/>
      <point x="83" y="173"/>
      <point x="85" y="137" type="curve" smooth="yes"/>
      <point x="91" y="23"/>
      <point x="106" y="-10"/>
      <point x="132" y="-10" type="curve" smooth="yes"/>
      <point x="173" y="-10"/>
      <point x="226" y="39"/>
      <point x="285" y="124" type="curve" smooth="yes"/>
      <point x="340" y="203"/>
      <point x="415" y="313"/>
      <point x="498" y="458" type="curve" smooth="yes"/>
      <point x="513" y="484"/>
      <point x="529" y="506"/>
      <point x="529" y="517" type="curve" smooth="yes"/>
      <point x="529" y="530"/>
      <point x="524" y="538"/>
      <point x="497" y="538" type="curve" smooth="yes"/>
      <point x="474" y="538"/>
      <point x="463" y="536"/>
      <point x="445" y="512" type="curve" smooth="yes"/>
      <point x="436" y="500"/>
      <point x="426" y="482"/>
    </contour>
  </outline>
</glyph>
<glyph name="uniA4E7" format="2">
  <advance width="570"/>
  <unicode hex="A4E7"/>
  <outline>
    <contour>
      <point x="431" y="300" type="line"/>
      <point x="413" y="301" type="line"/>
      <point x="355" y="302"/>
      <point x="232" y="296"/>
      <point x="192" y="297" type="curve" smooth="yes"/>
      <point x="163" y="297"/>
      <point x="136" y="293"/>
      <point x="136" y="272" type="curve" smooth="yes"/>
      <point x="136" y="249"/>
      <point x="156" y="233"/>
      <point x="180" y="233" type="curve" smooth="yes"/>
      <point x="220" y="232"/>
      <point x="319" y="237"/>
      <point x="365" y="237" type="curve"/>
      <point x="399" y="237" type="line"/>
    </contour>
    <contour>
      <point x="33" y="-9" type="curve" smooth="yes"/>
      <point x="62" y="-9"/>
      <point x="73" y="0"/>
      <point x="78" y="17" type="curve" smooth="yes"/>
      <point x="83" y="33"/>
      <point x="92" y="66"/>
      <point x="104" y="104" type="curve" smooth="yes"/>
      <point x="127" y="177"/>
      <point x="157" y="270"/>
      <point x="193" y="366" type="curve" smooth="yes"/>
      <point x="209" y="409"/>
      <point x="229" y="452"/>
      <point x="243" y="495" type="curve" smooth="yes"/>
      <point x="245" y="501"/>
      <point x="249" y="513"/>
      <point x="249" y="516" type="curve" smooth="yes"/>
      <point x="249" y="527"/>
      <point x="231" y="538"/>
      <point x="209" y="538" type="curve" smooth="yes"/>
      <point x="190" y="538"/>
      <point x="181" y="535"/>
      <point x="176" y="529" type="curve" smooth="yes"/>
      <point x="171" y="523"/>
      <point x="166" y="507"/>
      <point x="164" y="502" type="curve" smooth="yes"/>
      <point x="152" y="469"/>
      <point x="143" y="436"/>
      <point x="132" y="403" type="curve" smooth="yes"/>
      <point x="102" y="313"/>
      <point x="75" y="229"/>
      <point x="40" y="140" type="curve" smooth="yes"/>
      <point x="26" y="104"/>
      <point x="14" y="68"/>
      <point x="1" y="30" type="curve" smooth="yes"/>
      <point x="-1" y="24"/>
      <point x="-4" y="18"/>
      <point x="-4" y="11" type="curve" smooth="yes"/>
      <point x="-4" y="3"/>
      <point x="4" y="-9"/>
    </contour>
    <contour>
      <point x="346" y="-9" type="curve" smooth="yes"/>
      <point x="375" y="-9"/>
      <point x="386" y="0"/>
      <point x="391" y="17" type="curve" smooth="yes"/>
      <point x="396" y="33"/>
      <point x="404" y="66"/>
      <point x="417" y="104" type="curve" smooth="yes"/>
      <point x="442" y="177"/>
      <point x="470" y="271"/>
      <point x="505" y="366" type="curve" smooth="yes"/>
      <point x="521" y="409"/>
      <point x="538" y="454"/>
      <point x="555" y="495" type="curve" smooth="yes"/>
      <point x="558" y="501"/>
      <point x="561" y="513"/>
      <point x="561" y="516" type="curve" smooth="yes"/>
      <point x="561" y="527"/>
      <point x="544" y="538"/>
      <point x="521" y="538" type="curve" smooth="yes"/>
      <point x="503" y="538"/>
      <point x="493" y="536"/>
      <point x="488" y="529" type="curve" smooth="yes"/>
      <point x="484" y="523"/>
      <point x="478" y="507"/>
      <point x="476" y="502" type="curve" smooth="yes"/>
      <point x="463" y="469"/>
      <point x="455" y="436"/>
      <point x="444" y="403" type="curve" smooth="yes"/>
      <point x="414" y="313"/>
      <point x="384" y="229"/>
      <point x="352" y="140" type="curve" smooth="yes"/>
      <point x="339" y="104"/>
      <point x="326" y="68"/>
      <point x="313" y="30" type="curve" smooth="yes"/>
      <point x="311" y="24"/>
      <point x="309" y="18"/>
      <point x="309" y="11" type="curve" smooth="yes"/>
      <point x="309" y="3"/>
      <point x="316" y="-9"/>
    </contour>
  </outline>
</glyph>
<glyph name="uniA4E8" format="2">
  <advance width="481"/>
  <unicode hex="A4E8"/>
  <outline>
    <contour>
      <point x="170" y="59" type="curve" smooth="yes"/>
      <point x="213" y="59"/>
      <point x="259" y="88"/>
      <point x="294" y="133" type="curve" smooth="yes"/>
      <point x="340" y="192"/>
      <point x="368" y="280"/>
      <point x="368" y="357" type="curve" smooth="yes"/>
      <point x="368" y="425"/>
      <point x="335" y="470"/>
      <point x="272" y="470" type="curve" smooth="yes"/>
      <point x="236" y="470"/>
      <point x="202" y="455"/>
      <point x="175" y="430" type="curve" smooth="yes"/>
      <point x="153" y="409"/>
      <point x="136" y="373"/>
      <point x="136" y="354" type="curve" smooth="yes"/>
      <point x="136" y="347"/>
      <point x="140" y="341"/>
      <point x="149" y="340" type="curve" smooth="yes"/>
      <point x="157" y="339"/>
      <point x="162" y="339"/>
      <point x="167" y="339" type="curve" smooth="yes"/>
      <point x="181" y="339"/>
      <point x="191" y="342"/>
      <point x="210" y="342" type="curve" smooth="yes"/>
      <point x="220" y="342"/>
      <point x="234" y="335"/>
      <point x="241" y="325" type="curve" smooth="yes"/>
      <point x="248" y="315"/>
      <point x="252" y="302"/>
      <point x="252" y="292" type="curve" smooth="yes"/>
      <point x="252" y="280"/>
      <point x="240" y="274"/>
      <point x="211" y="274" type="curve" smooth="yes"/>
      <point x="195" y="274"/>
      <point x="154" y="271"/>
      <point x="145" y="271" type="curve" smooth="yes"/>
      <point x="127" y="271"/>
      <point x="104" y="271"/>
      <point x="87" y="275" type="curve" smooth="yes"/>
      <point x="78" y="277"/>
      <point x="67" y="282"/>
      <point x="61" y="290" type="curve" smooth="yes"/>
      <point x="57" y="295"/>
      <point x="55" y="306"/>
      <point x="55" y="313" type="curve" smooth="yes"/>
      <point x="55" y="370"/>
      <point x="87" y="438"/>
      <point x="131" y="479" type="curve" smooth="yes"/>
      <point x="171" y="517"/>
      <point x="221" y="538"/>
      <point x="276" y="538" type="curve" smooth="yes"/>
      <point x="376" y="538"/>
      <point x="439" y="472"/>
      <point x="439" y="368" type="curve" smooth="yes"/>
      <point x="439" y="275"/>
      <point x="408" y="166"/>
      <point x="349" y="90" type="curve" smooth="yes"/>
      <point x="301" y="29"/>
      <point x="233" y="-10"/>
      <point x="160" y="-10" type="curve" smooth="yes"/>
      <point x="77" y="-10"/>
      <point x="40" y="36"/>
      <point x="22" y="63" type="curve" smooth="yes"/>
      <point x="14" y="75"/>
      <point x="7" y="91"/>
      <point x="7" y="104" type="curve" smooth="yes"/>
      <point x="7" y="125"/>
      <point x="45" y="139"/>
      <point x="61" y="139" type="curve" smooth="yes"/>
      <point x="68" y="139"/>
      <point x="71" y="136"/>
      <point x="74" y="132" type="curve" smooth="yes"/>
      <point x="77" y="127"/>
      <point x="79" y="119"/>
      <point x="85" y="109" type="curve" smooth="yes"/>
      <point x="94" y="94"/>
      <point x="116" y="59"/>
    </contour>
  </outline>
</glyph>
<glyph name="uniA4E9" format="2">
  <advance width="478"/>
  <unicode hex="A4E9"/>
  <outline>
    <contour>
      <point x="499" y="433" type="curve" smooth="yes"/>
      <point x="477" y="485"/>
      <point x="421" y="538"/>
      <point x="354" y="538" type="curve" smooth="yes"/>
      <point x="254" y="538"/>
      <point x="189" y="462"/>
      <point x="148" y="354" type="curve" smooth="yes"/>
      <point x="126" y="296"/>
      <point x="101" y="230"/>
      <point x="77" y="162" type="curve" smooth="yes"/>
      <point x="62" y="119"/>
      <point x="48" y="71"/>
      <point x="29" y="33" type="curve" smooth="yes"/>
      <point x="26" y="27"/>
      <point x="23" y="15"/>
      <point x="23" y="12" type="curve" smooth="yes"/>
      <point x="23" y="1"/>
      <point x="39" y="-10"/>
      <point x="62" y="-10" type="curve" smooth="yes"/>
      <point x="80" y="-10"/>
      <point x="90" y="-8"/>
      <point x="95" y="-1" type="curve" smooth="yes"/>
      <point x="99" y="5"/>
      <point x="104" y="21"/>
      <point x="106" y="26" type="curve" smooth="yes"/>
      <point x="118" y="57"/>
      <point x="126" y="92"/>
      <point x="137" y="125" type="curve" smooth="yes"/>
      <point x="156" y="183"/>
      <point x="177" y="236"/>
      <point x="197" y="292" type="curve" smooth="yes"/>
      <point x="231" y="388"/>
      <point x="274" y="468"/>
      <point x="344" y="468" type="curve" smooth="yes"/>
      <point x="389" y="468"/>
      <point x="418" y="439"/>
      <point x="438" y="387" type="curve" smooth="yes"/>
      <point x="449" y="359"/>
      <point x="456" y="355"/>
      <point x="474" y="359" type="curve" smooth="yes"/>
      <point x="491" y="363"/>
      <point x="510" y="374"/>
      <point x="510" y="392" type="curve" smooth="yes"/>
      <point x="510" y="402"/>
      <point x="507" y="414"/>
    </contour>
  </outline>
</glyph>
<glyph name="uniA4EA" format="2">
  <advance width="596"/>
  <unicode hex="A4EA"/>
  <outline>
    <contour>
      <point x="178" y="93" type="curve"/>
      <point x="194" y="93"/>
      <point x="158" y="-10"/>
      <point x="146" y="-10" type="curve" smooth="yes"/>
      <point x="106" y="-10"/>
      <point x="99" y="26"/>
      <point x="99" y="95" type="curve" smooth="yes"/>
      <point x="99" y="137"/>
      <point x="112" y="218"/>
      <point x="124" y="284" type="curve" smooth="yes"/>
      <point x="134" y="345"/>
      <point x="144" y="411"/>
      <point x="159" y="495" type="curve" smooth="yes"/>
      <point x="164" y="524"/>
      <point x="169" y="534"/>
      <point x="177" y="536" type="curve" smooth="yes"/>
      <point x="182" y="538"/>
      <point x="187" y="538"/>
      <point x="193" y="538" type="curve" smooth="yes"/>
      <point x="207" y="538"/>
      <point x="217" y="535"/>
      <point x="230" y="529" type="curve" smooth="yes"/>
      <point x="238" y="526"/>
      <point x="240" y="518"/>
      <point x="240" y="509" type="curve" smooth="yes"/>
      <point x="240" y="506"/>
      <point x="236" y="488"/>
      <point x="235" y="483" type="curve" smooth="yes"/>
      <point x="218" y="405"/>
      <point x="189" y="247"/>
      <point x="175" y="159" type="curve" smooth="yes"/>
      <point x="172" y="144"/>
      <point x="171" y="131"/>
      <point x="170" y="122" type="curve" smooth="yes"/>
      <point x="170" y="108"/>
      <point x="171" y="93"/>
    </contour>
    <contour>
      <point x="146" y="-10" type="curve"/>
      <point x="135" y="-10"/>
      <point x="160" y="93"/>
      <point x="178" y="93" type="curve"/>
      <point x="183" y="93"/>
      <point x="203" y="114"/>
      <point x="223" y="147" type="curve" smooth="yes"/>
      <point x="258" y="205"/>
      <point x="292" y="276"/>
      <point x="328" y="348" type="curve" smooth="yes"/>
      <point x="342" y="376"/>
      <point x="350" y="390"/>
      <point x="365" y="414" type="curve" smooth="yes"/>
      <point x="372" y="426"/>
      <point x="383" y="429"/>
      <point x="410" y="429" type="curve" smooth="yes"/>
      <point x="430" y="429"/>
      <point x="438" y="421"/>
      <point x="438" y="408" type="curve" smooth="yes"/>
      <point x="438" y="396"/>
      <point x="425" y="384"/>
      <point x="412" y="359" type="curve" smooth="yes"/>
      <point x="336" y="210"/>
      <point x="330" y="200"/>
      <point x="282" y="118" type="curve" smooth="yes"/>
      <point x="232" y="33"/>
      <point x="181" y="-10"/>
    </contour>
    <contour>
      <point x="440" y="88" type="curve"/>
      <point x="459" y="88"/>
      <point x="415" y="-10"/>
      <point x="412" y="-10" type="curve"/>
      <point x="378" y="-10"/>
      <point x="365" y="22"/>
      <point x="365" y="137" type="curve" smooth="yes"/>
      <point x="365" y="172"/>
      <point x="366" y="216"/>
      <point x="371" y="268" type="curve" smooth="yes"/>
      <point x="375" y="310"/>
      <point x="378" y="353"/>
      <point x="381" y="389" type="curve" smooth="yes"/>
      <point x="382" y="409"/>
      <point x="386" y="420"/>
      <point x="394" y="424" type="curve" smooth="yes"/>
      <point x="399" y="427"/>
      <point x="407" y="429"/>
      <point x="411" y="429" type="curve" smooth="yes"/>
      <point x="433" y="429"/>
      <point x="443" y="421"/>
      <point x="443" y="407" type="curve" smooth="yes"/>
      <point x="443" y="397"/>
      <point x="442" y="392"/>
      <point x="442" y="384" type="curve" smooth="yes"/>
      <point x="437" y="305"/>
      <point x="428" y="235"/>
      <point x="428" y="146" type="curve" smooth="yes"/>
      <point x="428" y="110"/>
      <point x="429" y="88"/>
    </contour>
    <contour>
      <point x="413" y="-10" type="curve"/>
      <point x="406" y="-10"/>
      <point x="420" y="88"/>
      <point x="440" y="88" type="curve" smooth="yes"/>
      <point x="444" y="88"/>
      <point x="458" y="99"/>
      <point x="475" y="134" type="curve" smooth="yes"/>
      <point x="503" y="195"/>
      <point x="539" y="272"/>
      <point x="600" y="431" type="curve" smooth="yes"/>
      <point x="611" y="460"/>
      <point x="619" y="480"/>
      <point x="631" y="505" type="curve" smooth="yes"/>
      <point x="639" y="519"/>
      <point x="659" y="528"/>
      <point x="683" y="528" type="curve" smooth="yes"/>
      <point x="698" y="528"/>
      <point x="710" y="523"/>
      <point x="710" y="512" type="curve" smooth="yes"/>
      <point x="710" y="501"/>
      <point x="701" y="483"/>
      <point x="686" y="448" type="curve" smooth="yes"/>
      <point x="622" y="295"/>
      <point x="584" y="194"/>
      <point x="538" y="109" type="curve" smooth="yes"/>
      <point x="491" y="21"/>
      <point x="445" y="-10"/>
    </contour>
  </outline>
</glyph>
<glyph name="uniA4EB" format="2">
  <advance width="477"/>
  <unicode hex="A4EB"/>
  <outline>
    <contour>
      <point x="246" y="306" type="curve"/>
      <point x="188" y="255" type="line"/>
      <point x="161" y="354"/>
      <point x="130" y="447"/>
      <point x="127" y="469" type="curve" smooth="yes"/>
      <point x="125" y="484"/>
      <point x="121" y="500"/>
      <point x="121" y="511" type="curve" smooth="yes"/>
      <point x="121" y="524"/>
      <point x="124" y="533"/>
      <point x="132" y="536" type="curve" smooth="yes"/>
      <point x="137" y="538"/>
      <point x="149" y="538"/>
      <point x="163" y="538" type="curve" smooth="yes"/>
      <point x="181" y="538"/>
      <point x="191" y="531"/>
      <point x="192" y="522" type="curve" smooth="yes"/>
      <point x="193" y="510"/>
      <point x="196" y="497"/>
      <point x="199" y="479" type="curve" smooth="yes"/>
      <point x="203" y="453"/>
      <point x="224" y="384"/>
    </contour>
    <contour>
      <point x="-64" y="10" type="curve" smooth="yes"/>
      <point x="-64" y="24"/>
      <point x="-54" y="36"/>
      <point x="-40" y="52" type="curve" smooth="yes"/>
      <point x="50" y="155"/>
      <point x="355" y="452"/>
      <point x="389" y="495" type="curve" smooth="yes"/>
      <point x="401" y="510"/>
      <point x="408" y="519"/>
      <point x="414" y="524" type="curve" smooth="yes"/>
      <point x="425" y="533"/>
      <point x="436" y="538"/>
      <point x="458" y="538" type="curve" smooth="yes"/>
      <point x="488" y="538"/>
      <point x="497" y="524"/>
      <point x="497" y="517" type="curve" smooth="yes"/>
      <point x="497" y="505"/>
      <point x="479" y="484"/>
      <point x="462" y="467" type="curve" smooth="yes"/>
      <point x="419" y="424"/>
      <point x="136" y="149"/>
      <point x="47" y="39" type="curve" smooth="yes"/>
      <point x="30" y="18"/>
      <point x="19" y="7"/>
      <point x="7" y="-2" type="curve" smooth="yes"/>
      <point x="-1" y="-8"/>
      <point x="-10" y="-10"/>
      <point x="-24" y="-10" type="curve" smooth="yes"/>
      <point x="-46" y="-10"/>
      <point x="-64" y="-4"/>
    </contour>
    <contour>
      <point x="203" y="254" type="curve"/>
      <point x="262" y="306" type="line"/>
      <point x="286" y="219"/>
      <point x="314" y="122"/>
      <point x="322" y="59" type="curve" smooth="yes"/>
      <point x="324" y="44"/>
      <point x="327" y="29"/>
      <point x="327" y="18" type="curve" smooth="yes"/>
      <point x="327" y="4"/>
      <point x="323" y="-2"/>
      <point x="318" y="-5" type="curve" smooth="yes"/>
      <point x="312" y="-9"/>
      <point x="301" y="-10"/>
      <point x="292" y="-10" type="curve" smooth="yes"/>
      <point x="269" y="-10"/>
      <point x="256" y="-2"/>
      <point x="254" y="12" type="curve" smooth="yes"/>
      <point x="253" y="18"/>
      <point x="253" y="31"/>
      <point x="250" y="50" type="curve" smooth="yes"/>
      <point x="241" y="104"/>
      <point x="223" y="180"/>
    </contour>
  </outline>
</glyph>
<glyph name="uniA4EC" format="2">
  <advance width="439"/>
  <unicode hex="A4EC"/>
  <outline>
    <contour>
      <point x="226" y="270" type="line"/>
      <point x="325" y="338"/>
      <point x="379" y="423"/>
      <point x="430" y="506" type="curve" smooth="yes"/>
      <point x="441" y="524"/>
      <point x="450" y="530"/>
      <point x="459" y="534" type="curve" smooth="yes"/>
      <point x="467" y="537"/>
      <point x="477" y="538"/>
      <point x="485" y="538" type="curve" smooth="yes"/>
      <point x="491" y="538"/>
      <point x="497" y="537"/>
      <point x="503" y="535" type="curve" smooth="yes"/>
      <point x="509" y="533"/>
      <point x="514" y="526"/>
      <point x="514" y="521" type="curve" smooth="yes"/>
      <point x="514" y="514"/>
      <point x="511" y="508"/>
      <point x="508" y="502" type="curve" smooth="yes"/>
      <point x="449" y="384"/>
      <point x="363" y="292"/>
      <point x="239" y="199" type="curve"/>
    </contour>
    <contour>
      <point x="177" y="533" type="curve" smooth="yes"/>
      <point x="184" y="529"/>
      <point x="189" y="524"/>
      <point x="189" y="502" type="curve" smooth="yes"/>
      <point x="189" y="366"/>
      <point x="256" y="314"/>
      <point x="256" y="238" type="curve" smooth="yes"/>
      <point x="256" y="179"/>
      <point x="219" y="81"/>
      <point x="200" y="21" type="curve" smooth="yes"/>
      <point x="192" y="-4"/>
      <point x="182" y="-9"/>
      <point x="156" y="-9" type="curve" smooth="yes"/>
      <point x="131" y="-9"/>
      <point x="122" y="-5"/>
      <point x="122" y="6" type="curve" smooth="yes"/>
      <point x="122" y="16"/>
      <point x="130" y="33"/>
      <point x="140" y="58" type="curve" smooth="yes"/>
      <point x="148" y="78"/>
      <point x="186" y="188"/>
      <point x="186" y="230" type="curve" smooth="yes"/>
      <point x="186" y="297"/>
      <point x="114" y="382"/>
      <point x="114" y="498" type="curve" smooth="yes"/>
      <point x="114" y="516"/>
      <point x="117" y="527"/>
      <point x="125" y="532" type="curve" smooth="yes"/>
      <point x="131" y="536"/>
      <point x="140" y="538"/>
      <point x="154" y="538" type="curve" smooth="yes"/>
      <point x="163" y="538"/>
      <point x="170" y="537"/>
    </contour>
  </outline>
</glyph>
<glyph name="uniA4ED" format="2">
  <advance width="479"/>
  <unicode hex="A4ED"/>
  <outline>
    <contour>
      <point x="361" y="236" type="line"/>
      <point x="318" y="238"/>
      <point x="304" y="239"/>
      <point x="276" y="239" type="curve" smooth="yes"/>
      <point x="190" y="239"/>
      <point x="103" y="211"/>
      <point x="103" y="144" type="curve" smooth="yes"/>
      <point x="103" y="97"/>
      <point x="146" y="58"/>
      <point x="284" y="58" type="curve" smooth="yes"/>
      <point x="339" y="58"/>
      <point x="355" y="67"/>
      <point x="364" y="67" type="curve" smooth="yes"/>
      <point x="371" y="67"/>
      <point x="378" y="65"/>
      <point x="383" y="59" type="curve" smooth="yes"/>
      <point x="390" y="51"/>
      <point x="393" y="33"/>
      <point x="393" y="19" type="curve" smooth="yes"/>
      <point x="393" y="8"/>
      <point x="388" y="1"/>
      <point x="374" y="-1" type="curve" smooth="yes"/>
      <point x="321" y="-9"/>
      <point x="299" y="-10"/>
      <point x="268" y="-10" type="curve" smooth="yes"/>
      <point x="107" y="-10"/>
      <point x="33" y="58"/>
      <point x="33" y="138" type="curve" smooth="yes"/>
      <point x="33" y="248"/>
      <point x="133" y="301"/>
      <point x="290" y="301" type="curve" smooth="yes"/>
      <point x="328" y="301"/>
      <point x="337" y="300"/>
      <point x="384" y="297" type="curve"/>
    </contour>
    <contour>
      <point x="283" y="-1" type="curve" smooth="yes"/>
      <point x="262" y="-1"/>
      <point x="245" y="10"/>
      <point x="245" y="21" type="curve" smooth="yes"/>
      <point x="245" y="24"/>
      <point x="246" y="28"/>
      <point x="248" y="34" type="curve" smooth="yes"/>
      <point x="262" y="77"/>
      <point x="282" y="121"/>
      <point x="297" y="164" type="curve" smooth="yes"/>
      <point x="331" y="260"/>
      <point x="364" y="353"/>
      <point x="388" y="426" type="curve" smooth="yes"/>
      <point x="396" y="450"/>
      <point x="401" y="465"/>
      <point x="405" y="481" type="curve" smooth="yes"/>
      <point x="409" y="499"/>
      <point x="416" y="507"/>
      <point x="444" y="507" type="curve" smooth="yes"/>
      <point x="473" y="507"/>
      <point x="481" y="495"/>
      <point x="481" y="487" type="curve" smooth="yes"/>
      <point x="481" y="480"/>
      <point x="479" y="474"/>
      <point x="477" y="468" type="curve" smooth="yes"/>
      <point x="465" y="431"/>
      <point x="462" y="425"/>
      <point x="449" y="390" type="curve" smooth="yes"/>
      <point x="416" y="302"/>
      <point x="386" y="216"/>
      <point x="358" y="126" type="curve" smooth="yes"/>
      <point x="348" y="94"/>
      <point x="339" y="60"/>
      <point x="326" y="27" type="curve" smooth="yes"/>
      <point x="324" y="22"/>
      <point x="321" y="13"/>
      <point x="316" y="8" type="curve" smooth="yes"/>
      <point x="310" y="2"/>
      <point x="302" y="-1"/>
    </contour>
    <contour>
      <point x="398" y="301" type="curve"/>
      <point x="375" y="244" type="line"/>
      <point x="360" y="244"/>
      <point x="338" y="244"/>
      <point x="319" y="244" type="curve" smooth="yes"/>
      <point x="196" y="244"/>
      <point x="122" y="320"/>
      <point x="122" y="382" type="curve" smooth="yes"/>
      <point x="122" y="453"/>
      <point x="188" y="538"/>
      <point x="366" y="538" type="curve" smooth="yes"/>
      <point x="437" y="538"/>
      <point x="463" y="532"/>
      <point x="515" y="521" type="curve" smooth="yes"/>
      <point x="529" y="518"/>
      <point x="534" y="512"/>
      <point x="534" y="500" type="curve" smooth="yes"/>
      <point x="534" y="486"/>
      <point x="525" y="473"/>
      <point x="519" y="464" type="curve" smooth="yes"/>
      <point x="515" y="458"/>
      <point x="509" y="452"/>
      <point x="501" y="452" type="curve" smooth="yes"/>
      <point x="483" y="452"/>
      <point x="416" y="475"/>
      <point x="358" y="475" type="curve" smooth="yes"/>
      <point x="271" y="475"/>
      <point x="192" y="450"/>
      <point x="192" y="383" type="curve" smooth="yes"/>
      <point x="192" y="339"/>
      <point x="245" y="299"/>
      <point x="355" y="299" type="curve" smooth="yes"/>
      <point x="367" y="299"/>
      <point x="384" y="300"/>
    </contour>
  </outline>
</glyph>
<glyph name="uniA4EE" format="2">
  <advance width="490"/>
  <unicode hex="A4EE"/>
  <outline>
    <contour>
      <point x="362" y="199" type="curve"/>
      <point x="379" y="199" type="line"/>
      <point x="356" y="133" type="line"/>
      <point x="345" y="132"/>
      <point x="326" y="132"/>
      <point x="316" y="132" type="curve" smooth="yes"/>
      <point x="270" y="132"/>
      <point x="199" y="126"/>
      <point x="160" y="126" type="curve" smooth="yes"/>
      <point x="136" y="126"/>
      <point x="115" y="141"/>
      <point x="115" y="163" type="curve" smooth="yes"/>
      <point x="115" y="185"/>
      <point x="140" y="190"/>
      <point x="169" y="190" type="curve" smooth="yes"/>
      <point x="211" y="190"/>
      <point x="303" y="198"/>
    </contour>
    <contour>
      <point x="84" y="74" type="curve" smooth="yes"/>
      <point x="68" y="47"/>
      <point x="58" y="29"/>
      <point x="49" y="17" type="curve" smooth="yes"/>
      <point x="32" y="-6"/>
      <point x="20" y="-9"/>
      <point x="-3" y="-9" type="curve" smooth="yes"/>
      <point x="-30" y="-9"/>
      <point x="-35" y="0"/>
      <point x="-35" y="12" type="curve" smooth="yes"/>
      <point x="-35" y="23"/>
      <point x="-19" y="45"/>
      <point x="-4" y="71" type="curve" smooth="yes"/>
      <point x="79" y="216"/>
      <point x="154" y="326"/>
      <point x="209" y="404" type="curve" smooth="yes"/>
      <point x="269" y="490"/>
      <point x="321" y="538"/>
      <point x="362" y="538" type="curve" smooth="yes"/>
      <point x="388" y="538"/>
      <point x="405" y="505"/>
      <point x="408" y="391" type="curve" smooth="yes"/>
      <point x="409" y="355"/>
      <point x="411" y="312"/>
      <point x="411" y="260" type="curve" smooth="yes"/>
      <point x="411" y="199"/>
      <point x="410" y="125"/>
      <point x="407" y="41" type="curve" smooth="yes"/>
      <point x="406" y="10"/>
      <point x="403" y="0"/>
      <point x="396" y="-4" type="curve" smooth="yes"/>
      <point x="388" y="-8"/>
      <point x="379" y="-9"/>
      <point x="367" y="-9" type="curve" smooth="yes"/>
      <point x="358" y="-9"/>
      <point x="348" y="-7"/>
      <point x="342" y="-5" type="curve" smooth="yes"/>
      <point x="332" y="-2"/>
      <point x="329" y="7"/>
      <point x="329" y="19" type="curve" smooth="yes"/>
      <point x="329" y="24"/>
      <point x="329" y="31"/>
      <point x="329" y="40" type="curve" smooth="yes"/>
      <point x="329" y="119"/>
      <point x="338" y="286"/>
      <point x="338" y="375" type="curve" smooth="yes"/>
      <point x="338" y="412"/>
      <point x="332" y="435"/>
      <point x="325" y="435" type="curve" smooth="yes"/>
      <point x="316" y="435"/>
      <point x="300" y="416"/>
      <point x="268" y="370" type="curve" smooth="yes"/>
      <point x="229" y="315"/>
      <point x="171" y="221"/>
    </contour>
  </outline>
</glyph>
<glyph name="uniA4EF" format="2">
  <advance width="531"/>
  <unicode hex="A4EF"/>
  <outline>
    <contour>
      <point x="507" y="457" type="curve" smooth="yes"/>
      <point x="522" y="484"/>
      <point x="533" y="502"/>
      <point x="542" y="515" type="curve" smooth="yes"/>
      <point x="558" y="538"/>
      <point x="570" y="542"/>
      <point x="593" y="542" type="curve" smooth="yes"/>
      <point x="620" y="542"/>
      <point x="626" y="534"/>
      <point x="626" y="521" type="curve" smooth="yes"/>
      <point x="626" y="510"/>
      <point x="610" y="487"/>
      <point x="595" y="462" type="curve" smooth="yes"/>
      <point x="510" y="318"/>
      <point x="442" y="204"/>
      <point x="389" y="125" type="curve" smooth="yes"/>
      <point x="330" y="38"/>
      <point x="279" y="-12"/>
      <point x="238" y="-12" type="curve" smooth="yes"/>
      <point x="212" y="-12"/>
      <point x="196" y="20"/>
      <point x="189" y="134" type="curve" smooth="yes"/>
      <point x="187" y="170"/>
      <point x="184" y="213"/>
      <point x="184" y="265" type="curve" smooth="yes"/>
      <point x="184" y="327"/>
      <point x="184" y="400"/>
      <point x="184" y="485" type="curve" smooth="yes"/>
      <point x="184" y="516"/>
      <point x="188" y="525"/>
      <point x="194" y="529" type="curve" smooth="yes"/>
      <point x="202" y="534"/>
      <point x="211" y="535"/>
      <point x="223" y="535" type="curve" smooth="yes"/>
      <point x="232" y="535"/>
      <point x="242" y="533"/>
      <point x="248" y="531" type="curve" smooth="yes"/>
      <point x="258" y="528"/>
      <point x="262" y="520"/>
      <point x="262" y="508" type="curve" smooth="yes"/>
      <point x="262" y="502"/>
      <point x="262" y="496"/>
      <point x="262" y="487" type="curve" smooth="yes"/>
      <point x="262" y="458"/>
      <point x="257" y="417"/>
      <point x="257" y="371" type="curve" smooth="yes"/>
      <point x="257" y="295"/>
      <point x="257" y="208"/>
      <point x="259" y="152" type="curve" smooth="yes"/>
      <point x="261" y="115"/>
      <point x="266" y="92"/>
      <point x="272" y="92" type="curve" smooth="yes"/>
      <point x="282" y="92"/>
      <point x="297" y="111"/>
      <point x="329" y="158" type="curve" smooth="yes"/>
      <point x="367" y="214"/>
      <point x="424" y="309"/>
    </contour>
    <contour>
      <point x="519" y="348" type="line"/>
      <point x="417" y="343"/>
      <point x="283" y="338"/>
      <point x="255" y="338" type="curve" smooth="yes"/>
      <point x="227" y="338"/>
      <point x="200" y="338"/>
      <point x="200" y="360" type="curve" smooth="yes"/>
      <point x="200" y="382"/>
      <point x="217" y="398"/>
      <point x="241" y="400" type="curve" smooth="yes"/>
      <point x="280" y="404"/>
      <point x="386" y="407"/>
      <point x="412" y="407" type="curve" smooth="yes"/>
      <point x="441" y="407"/>
      <point x="488" y="409"/>
      <point x="499" y="410" type="curve"/>
    </contour>
  </outline>
</glyph>
<glyph name="uniA4F0" format="2">
  <advance width="474"/>
  <unicode hex="A4F0"/>
  <outline>
    <contour>
      <point x="202" y="464" type="line"/>
      <point x="211" y="464"/>
      <point x="248" y="465"/>
      <point x="293" y="466" type="curve" smooth="yes"/>
      <point x="353" y="467"/>
      <point x="389" y="467"/>
      <point x="407" y="467" type="curve" smooth="yes"/>
      <point x="423" y="467"/>
      <point x="441" y="466"/>
      <point x="456" y="466" type="curve" smooth="yes"/>
      <point x="468" y="466"/>
      <point x="478" y="467"/>
      <point x="484" y="473" type="curve" smooth="yes"/>
      <point x="490" y="479"/>
      <point x="494" y="484"/>
      <point x="494" y="498" type="curve" smooth="yes"/>
      <point x="494" y="521"/>
      <point x="472" y="535"/>
      <point x="435" y="535" type="curve" smooth="yes"/>
      <point x="388" y="535"/>
      <point x="258" y="534"/>
      <point x="233" y="533" type="curve"/>
    </contour>
    <contour>
      <point x="377" y="262" type="curve" smooth="yes"/>
      <point x="386" y="272"/>
      <point x="387" y="278"/>
      <point x="387" y="284" type="curve" smooth="yes"/>
      <point x="387" y="298"/>
      <point x="375" y="302"/>
      <point x="361" y="302" type="curve" smooth="yes"/>
      <point x="347" y="302"/>
      <point x="285" y="301"/>
      <point x="244" y="301" type="curve" smooth="yes"/>
      <point x="210" y="301"/>
      <point x="190" y="302"/>
      <point x="169" y="302" type="curve" smooth="yes"/>
      <point x="164" y="302"/>
      <point x="146" y="301"/>
      <point x="140" y="299" type="curve" smooth="yes"/>
      <point x="132" y="296"/>
      <point x="121" y="290"/>
      <point x="121" y="271" type="curve" smooth="yes"/>
      <point x="121" y="243"/>
      <point x="128" y="236"/>
      <point x="153" y="236" type="curve" smooth="yes"/>
      <point x="182" y="236"/>
      <point x="214" y="237"/>
      <point x="259" y="237" type="curve" smooth="yes"/>
      <point x="279" y="237"/>
      <point x="293" y="236"/>
      <point x="324" y="236" type="curve" smooth="yes"/>
      <point x="344" y="236"/>
      <point x="359" y="242"/>
    </contour>
    <contour>
      <point x="134" y="119" type="curve" smooth="yes"/>
      <point x="159" y="194"/>
      <point x="186" y="270"/>
      <point x="220" y="366" type="curve" smooth="yes"/>
      <point x="235" y="409"/>
      <point x="256" y="454"/>
      <point x="270" y="497" type="curve" smooth="yes"/>
      <point x="272" y="503"/>
      <point x="273" y="507"/>
      <point x="273" y="511" type="curve" smooth="yes"/>
      <point x="273" y="522"/>
      <point x="255" y="533"/>
      <point x="233" y="533" type="curve" smooth="yes"/>
      <point x="214" y="533"/>
      <point x="206" y="529"/>
      <point x="200" y="523" type="curve" smooth="yes"/>
      <point x="195" y="518"/>
      <point x="192" y="509"/>
      <point x="190" y="504" type="curve" smooth="yes"/>
      <point x="177" y="471"/>
      <point x="170" y="436"/>
      <point x="159" y="403" type="curve" smooth="yes"/>
      <point x="129" y="313"/>
      <point x="97" y="229"/>
      <point x="66" y="140" type="curve" smooth="yes"/>
      <point x="59" y="119"/>
      <point x="36" y="58"/>
      <point x="36" y="40" type="curve" smooth="yes"/>
      <point x="36" y="15"/>
      <point x="56" y="2"/>
      <point x="78" y="-2" type="curve" smooth="yes"/>
      <point x="100" y="-6"/>
      <point x="129" y="-7"/>
      <point x="153" y="-7" type="curve" smooth="yes"/>
      <point x="190" y="-7"/>
      <point x="245" y="-4"/>
      <point x="272" y="-4" type="curve" smooth="yes"/>
      <point x="293" y="-4"/>
      <point x="306" y="-5"/>
      <point x="317" y="-5" type="curve" smooth="yes"/>
      <point x="355" y="-5"/>
      <point x="368" y="2"/>
      <point x="368" y="17" type="curve" smooth="yes"/>
      <point x="368" y="24"/>
      <point x="366" y="33"/>
      <point x="363" y="38" type="curve" smooth="yes"/>
      <point x="354" y="55"/>
      <point x="343" y="64"/>
      <point x="296" y="64" type="curve" smooth="yes"/>
      <point x="265" y="64"/>
      <point x="203" y="61"/>
      <point x="163" y="61" type="curve" smooth="yes"/>
      <point x="157" y="61"/>
      <point x="149" y="61"/>
      <point x="139" y="62" type="curve" smooth="yes"/>
      <point x="128" y="63"/>
      <point x="123" y="68"/>
      <point x="123" y="77" type="curve" smooth="yes"/>
      <point x="123" y="84"/>
      <point x="129" y="104"/>
    </contour>
  </outline>
</glyph>
<glyph name="uniA4F1" format="2">
  <advance width="466"/>
  <unicode hex="A4F1"/>
  <outline>
    <contour>
      <point x="352" y="306" type="line"/>
      <point x="334" y="306" type="line"/>
      <point x="275" y="306"/>
      <point x="207" y="302"/>
      <point x="165" y="302" type="curve" smooth="yes"/>
      <point x="136" y="302"/>
      <point x="111" y="298"/>
      <point x="111" y="275" type="curve" smooth="yes"/>
      <point x="111" y="252"/>
      <point x="131" y="238"/>
      <point x="155" y="238" type="curve" smooth="yes"/>
      <point x="195" y="238"/>
      <point x="241" y="241"/>
      <point x="287" y="241" type="curve" smooth="yes"/>
      <point x="297" y="241"/>
      <point x="317" y="241"/>
      <point x="328" y="241" type="curve"/>
    </contour>
    <contour>
      <point x="248" y="-5" type="curve" smooth="yes"/>
      <point x="279" y="-5"/>
      <point x="305" y="10"/>
      <point x="314" y="38" type="curve" smooth="yes"/>
      <point x="338" y="112"/>
      <point x="393" y="271"/>
      <point x="427" y="366" type="curve" smooth="yes"/>
      <point x="438" y="397"/>
      <point x="461" y="467"/>
      <point x="463" y="475" type="curve" smooth="yes"/>
      <point x="464" y="479"/>
      <point x="465" y="483"/>
      <point x="465" y="487" type="curve" smooth="yes"/>
      <point x="465" y="496"/>
      <point x="462" y="504"/>
      <point x="457" y="511" type="curve" smooth="yes"/>
      <point x="449" y="522"/>
      <point x="435" y="527"/>
      <point x="423" y="530" type="curve" smooth="yes"/>
      <point x="401" y="535"/>
      <point x="372" y="535"/>
      <point x="348" y="535" type="curve" smooth="yes"/>
      <point x="311" y="535"/>
      <point x="262" y="531"/>
      <point x="236" y="531" type="curve" smooth="yes"/>
      <point x="214" y="531"/>
      <point x="201" y="532"/>
      <point x="190" y="532" type="curve" smooth="yes"/>
      <point x="153" y="532"/>
      <point x="140" y="524"/>
      <point x="140" y="508" type="curve" smooth="yes"/>
      <point x="140" y="502"/>
      <point x="142" y="493"/>
      <point x="144" y="488" type="curve" smooth="yes"/>
      <point x="151" y="471"/>
      <point x="164" y="463"/>
      <point x="211" y="463" type="curve" smooth="yes"/>
      <point x="242" y="463"/>
      <point x="288" y="467"/>
      <point x="338" y="467" type="curve" smooth="yes"/>
      <point x="344" y="467"/>
      <point x="352" y="467"/>
      <point x="362" y="466" type="curve" smooth="yes"/>
      <point x="374" y="465"/>
      <point x="378" y="458"/>
      <point x="378" y="448" type="curve" smooth="yes"/>
      <point x="378" y="442"/>
      <point x="371" y="418"/>
      <point x="366" y="403" type="curve" smooth="yes"/>
      <point x="336" y="313"/>
      <point x="286" y="173"/>
      <point x="253" y="83" type="curve" smooth="yes"/>
      <point x="249" y="72"/>
      <point x="238" y="62"/>
      <point x="221" y="62" type="curve" smooth="yes"/>
      <point x="173" y="62"/>
      <point x="116" y="60"/>
      <point x="89" y="60" type="curve" smooth="yes"/>
      <point x="73" y="60"/>
      <point x="55" y="61"/>
      <point x="40" y="61" type="curve" smooth="yes"/>
      <point x="28" y="61"/>
      <point x="18" y="60"/>
      <point x="12" y="56" type="curve" smooth="yes"/>
      <point x="6" y="52"/>
      <point x="2" y="43"/>
      <point x="2" y="37" type="curve" smooth="yes"/>
      <point x="2" y="7"/>
      <point x="34" y="-8"/>
      <point x="71" y="-8" type="curve" smooth="yes"/>
      <point x="133" y="-8"/>
      <point x="189" y="-5"/>
    </contour>
  </outline>
</glyph>
<glyph name="uniA4F2" format="2">
  <advance width="287"/>
  <unicode hex="A4F2"/>
  <outline>
    <contour>
      <point x="120" y="-9" type="curve" smooth="yes"/>
      <point x="148" y="-9"/>
      <point x="162" y="0"/>
      <point x="167" y="17" type="curve" smooth="yes"/>
      <point x="171" y="33"/>
      <point x="180" y="66"/>
      <point x="191" y="104" type="curve" smooth="yes"/>
      <point x="214" y="178"/>
      <point x="245" y="270"/>
      <point x="280" y="366" type="curve" smooth="yes"/>
      <point x="295" y="409"/>
      <point x="314" y="453"/>
      <point x="332" y="495" type="curve" smooth="yes"/>
      <point x="334" y="501"/>
      <point x="338" y="513"/>
      <point x="338" y="516" type="curve" smooth="yes"/>
      <point x="338" y="527"/>
      <point x="317" y="538"/>
      <point x="295" y="538" type="curve" smooth="yes"/>
      <point x="276" y="538"/>
      <point x="266" y="535"/>
      <point x="260" y="529" type="curve" smooth="yes"/>
      <point x="255" y="523"/>
      <point x="250" y="507"/>
      <point x="248" y="502" type="curve" smooth="yes"/>
      <point x="237" y="469"/>
      <point x="229" y="436"/>
      <point x="218" y="403" type="curve" smooth="yes"/>
      <point x="188" y="313"/>
      <point x="158" y="229"/>
      <point x="126" y="140" type="curve" smooth="yes"/>
      <point x="114" y="104"/>
      <point x="99" y="67"/>
      <point x="84" y="30" type="curve" smooth="yes"/>
      <point x="83" y="25"/>
      <point x="80" y="19"/>
      <point x="80" y="11" type="curve" smooth="yes"/>
      <point x="80" y="3"/>
      <point x="90" y="-9"/>
    </contour>
  </outline>
</glyph>
<glyph name="uniA4F3" format="2">
  <advance width="493"/>
  <unicode hex="A4F3"/>
  <guideline x="281" y="315" angle="70.9703"/>
  <outline>
    <contour>
      <point x="426" y="228" type="curve" smooth="yes"/>
      <point x="447" y="287"/>
      <point x="456" y="330"/>
      <point x="456" y="369" type="curve" smooth="yes"/>
      <point x="456" y="463"/>
      <point x="405" y="538"/>
      <point x="316" y="538" type="curve" smooth="yes"/>
      <point x="185" y="538"/>
      <point x="82" y="428"/>
      <point x="28" y="277" type="curve" smooth="yes"/>
      <point x="14" y="238"/>
      <point x="9" y="198"/>
      <point x="9" y="162" type="curve" smooth="yes"/>
      <point x="9" y="66"/>
      <point x="61" y="-10"/>
      <point x="150" y="-10" type="curve" smooth="yes"/>
      <point x="279" y="-10"/>
      <point x="382" y="104"/>
    </contour>
    <contour>
      <point x="161" y="59" type="curve" smooth="yes"/>
      <point x="107" y="59"/>
      <point x="79" y="98"/>
      <point x="79" y="169" type="curve" smooth="yes"/>
      <point x="79" y="300"/>
      <point x="196" y="470"/>
      <point x="305" y="470" type="curve" smooth="yes"/>
      <point x="358" y="470"/>
      <point x="385" y="427"/>
      <point x="385" y="363" type="curve" smooth="yes"/>
      <point x="385" y="234"/>
      <point x="272" y="59"/>
    </contour>
  </outline>
</glyph>
<glyph name="uniA4F4" format="2">
  <advance width="579"/>
  <unicode hex="A4F4"/>
  <outline>
    <contour>
      <point x="194" y="501" type="curve" smooth="yes"/>
      <point x="171" y="445"/>
      <point x="147" y="381"/>
      <point x="124" y="312" type="curve" smooth="yes"/>
      <point x="102" y="247"/>
      <point x="89" y="191"/>
      <point x="89" y="147" type="curve" smooth="yes"/>
      <point x="89" y="59"/>
      <point x="146" y="-10"/>
      <point x="227" y="-10" type="curve" smooth="yes"/>
      <point x="291" y="-10"/>
      <point x="336" y="12"/>
      <point x="385" y="57" type="curve" smooth="yes"/>
      <point x="427" y="96"/>
      <point x="446" y="133"/>
      <point x="466" y="174" type="curve" smooth="yes"/>
      <point x="495" y="233"/>
      <point x="543" y="356"/>
      <point x="581" y="463" type="curve" smooth="yes"/>
      <point x="587" y="480"/>
      <point x="594" y="498"/>
      <point x="597" y="508" type="curve" smooth="yes"/>
      <point x="598" y="512"/>
      <point x="599" y="515"/>
      <point x="599" y="517" type="curve" smooth="yes"/>
      <point x="599" y="522"/>
      <point x="597" y="527"/>
      <point x="591" y="531" type="curve" smooth="yes"/>
      <point x="584" y="536"/>
      <point x="575" y="538"/>
      <point x="559" y="538" type="curve" smooth="yes"/>
      <point x="546" y="538"/>
      <point x="536" y="536"/>
      <point x="530" y="532" type="curve" smooth="yes"/>
      <point x="523" y="528"/>
      <point x="520" y="521"/>
      <point x="515" y="508" type="curve" smooth="yes"/>
      <point x="512" y="500"/>
      <point x="506" y="478"/>
      <point x="493" y="437" type="curve" smooth="yes"/>
      <point x="473" y="375"/>
      <point x="447" y="300"/>
      <point x="419" y="236" type="curve" smooth="yes"/>
      <point x="378" y="142"/>
      <point x="312" y="60"/>
      <point x="242" y="60" type="curve" smooth="yes"/>
      <point x="186" y="60"/>
      <point x="163" y="92"/>
      <point x="163" y="154" type="curve" smooth="yes"/>
      <point x="163" y="196"/>
      <point x="179" y="250"/>
      <point x="201" y="312" type="curve" smooth="yes"/>
      <point x="225" y="380"/>
      <point x="254" y="443"/>
      <point x="276" y="501" type="curve" smooth="yes"/>
      <point x="279" y="509"/>
      <point x="280" y="514"/>
      <point x="280" y="519" type="curve" smooth="yes"/>
      <point x="280" y="530"/>
      <point x="269" y="538"/>
      <point x="239" y="538" type="curve" smooth="yes"/>
      <point x="229" y="538"/>
      <point x="216" y="535"/>
      <point x="210" y="529" type="curve" smooth="yes"/>
      <point x="206" y="525"/>
      <point x="201" y="518"/>
    </contour>
  </outline>
</glyph>
<glyph name="uniA4F5" format="2">
  <advance width="586"/>
  <unicode hex="A4F5"/>
  <outline>
    <contour>
      <point x="425" y="27" type="curve" smooth="yes"/>
      <point x="448" y="83"/>
      <point x="472" y="147"/>
      <point x="495" y="216" type="curve" smooth="yes"/>
      <point x="517" y="281"/>
      <point x="529" y="337"/>
      <point x="529" y="381" type="curve" smooth="yes"/>
      <point x="529" y="469"/>
      <point x="473" y="538"/>
      <point x="392" y="538" type="curve" smooth="yes"/>
      <point x="328" y="538"/>
      <point x="283" y="516"/>
      <point x="234" y="471" type="curve" smooth="yes"/>
      <point x="192" y="432"/>
      <point x="173" y="395"/>
      <point x="153" y="354" type="curve" smooth="yes"/>
      <point x="124" y="295"/>
      <point x="76" y="172"/>
      <point x="38" y="65" type="curve" smooth="yes"/>
      <point x="32" y="48"/>
      <point x="25" y="30"/>
      <point x="22" y="20" type="curve" smooth="yes"/>
      <point x="21" y="16"/>
      <point x="20" y="13"/>
      <point x="20" y="11" type="curve" smooth="yes"/>
      <point x="20" y="6"/>
      <point x="22" y="1"/>
      <point x="28" y="-3" type="curve" smooth="yes"/>
      <point x="35" y="-8"/>
      <point x="44" y="-10"/>
      <point x="60" y="-10" type="curve" smooth="yes"/>
      <point x="73" y="-10"/>
      <point x="82" y="-8"/>
      <point x="88" y="-4" type="curve" smooth="yes"/>
      <point x="95" y="0"/>
      <point x="97" y="7"/>
      <point x="102" y="20" type="curve" smooth="yes"/>
      <point x="105" y="28"/>
      <point x="112" y="50"/>
      <point x="125" y="91" type="curve" smooth="yes"/>
      <point x="145" y="153"/>
      <point x="171" y="228"/>
      <point x="199" y="292" type="curve" smooth="yes"/>
      <point x="240" y="386"/>
      <point x="307" y="468"/>
      <point x="377" y="468" type="curve" smooth="yes"/>
      <point x="432" y="468"/>
      <point x="457" y="436"/>
      <point x="457" y="374" type="curve" smooth="yes"/>
      <point x="457" y="335"/>
      <point x="439" y="274"/>
      <point x="419" y="216" type="curve" smooth="yes"/>
      <point x="395" y="148"/>
      <point x="367" y="85"/>
      <point x="345" y="27" type="curve" smooth="yes"/>
      <point x="342" y="19"/>
      <point x="341" y="14"/>
      <point x="341" y="9" type="curve" smooth="yes"/>
      <point x="341" y="-2"/>
      <point x="360" y="-10"/>
      <point x="380" y="-10" type="curve" smooth="yes"/>
      <point x="390" y="-10"/>
      <point x="403" y="-9"/>
      <point x="409" y="-3" type="curve" smooth="yes"/>
      <point x="413" y="1"/>
      <point x="418" y="10"/>
    </contour>
  </outline>
</glyph>
<glyph name="uniA4F6" format="2">
  <advance width="466"/>
  <unicode hex="A4F6"/>
  <outline>
    <contour>
      <point x="365" y="403" type="curve" smooth="yes"/>
      <point x="343" y="333"/>
      <point x="274" y="133"/>
      <point x="233" y="30" type="curve" smooth="yes"/>
      <point x="231" y="25"/>
      <point x="229" y="17"/>
      <point x="229" y="11" type="curve" smooth="yes"/>
      <point x="229" y="3"/>
      <point x="236" y="-9"/>
      <point x="266" y="-9" type="curve" smooth="yes"/>
      <point x="295" y="-9"/>
      <point x="306" y="0"/>
      <point x="311" y="17" type="curve" smooth="yes"/>
      <point x="316" y="33"/>
      <point x="325" y="66"/>
      <point x="337" y="104" type="curve" smooth="yes"/>
      <point x="360" y="177"/>
      <point x="392" y="270"/>
      <point x="426" y="366" type="curve" smooth="yes"/>
      <point x="437" y="397"/>
      <point x="463" y="467"/>
      <point x="463" y="481" type="curve" smooth="yes"/>
      <point x="463" y="483"/>
      <point x="464" y="485"/>
      <point x="464" y="487" type="curve" smooth="yes"/>
      <point x="464" y="497"/>
      <point x="461" y="505"/>
      <point x="456" y="511" type="curve" smooth="yes"/>
      <point x="447" y="521"/>
      <point x="434" y="528"/>
      <point x="422" y="530" type="curve" smooth="yes"/>
      <point x="400" y="534"/>
      <point x="371" y="535"/>
      <point x="347" y="535" type="curve" smooth="yes"/>
      <point x="310" y="535"/>
      <point x="235" y="532"/>
      <point x="209" y="532" type="curve" smooth="yes"/>
      <point x="188" y="532"/>
      <point x="174" y="532"/>
      <point x="163" y="532" type="curve" smooth="yes"/>
      <point x="126" y="532"/>
      <point x="113" y="524"/>
      <point x="113" y="509" type="curve" smooth="yes"/>
      <point x="113" y="502"/>
      <point x="115" y="493"/>
      <point x="117" y="488" type="curve" smooth="yes"/>
      <point x="125" y="469"/>
      <point x="137" y="463"/>
      <point x="184" y="463" type="curve" smooth="yes"/>
      <point x="215" y="463"/>
      <point x="287" y="467"/>
      <point x="337" y="467" type="curve" smooth="yes"/>
      <point x="343" y="467"/>
      <point x="351" y="467"/>
      <point x="361" y="466" type="curve" smooth="yes"/>
      <point x="372" y="465"/>
      <point x="377" y="458"/>
      <point x="377" y="448" type="curve" smooth="yes"/>
      <point x="377" y="443"/>
      <point x="370" y="419"/>
    </contour>
  </outline>
</glyph>
<glyph name="uniA4F7" format="2">
  <advance width="526"/>
  <unicode hex="A4F7"/>
  <outline>
    <contour>
      <point x="460" y="507" type="curve" smooth="yes"/>
      <point x="432" y="507"/>
      <point x="426" y="499"/>
      <point x="421" y="481" type="curve" smooth="yes"/>
      <point x="417" y="465"/>
      <point x="411" y="450"/>
      <point x="403" y="426" type="curve" smooth="yes"/>
      <point x="379" y="353"/>
      <point x="348" y="259"/>
      <point x="313" y="164" type="curve" smooth="yes"/>
      <point x="297" y="121"/>
      <point x="278" y="77"/>
      <point x="264" y="34" type="curve" smooth="yes"/>
      <point x="262" y="28"/>
      <point x="261" y="24"/>
      <point x="261" y="21" type="curve" smooth="yes"/>
      <point x="261" y="10"/>
      <point x="279" y="-1"/>
      <point x="300" y="-1" type="curve" smooth="yes"/>
      <point x="318" y="-1"/>
      <point x="326" y="2"/>
      <point x="332" y="8" type="curve" smooth="yes"/>
      <point x="337" y="13"/>
      <point x="341" y="22"/>
      <point x="342" y="27" type="curve" smooth="yes"/>
      <point x="349" y="62"/>
      <point x="363" y="94"/>
      <point x="374" y="126" type="curve" smooth="yes"/>
      <point x="405" y="216"/>
      <point x="433" y="301"/>
      <point x="466" y="390" type="curve" smooth="yes"/>
      <point x="479" y="425"/>
      <point x="481" y="431"/>
      <point x="493" y="468" type="curve" smooth="yes"/>
      <point x="495" y="474"/>
      <point x="497" y="480"/>
      <point x="497" y="487" type="curve" smooth="yes"/>
      <point x="497" y="495"/>
      <point x="490" y="507"/>
    </contour>
    <contour>
      <point x="35" y="205" type="curve" smooth="yes"/>
      <point x="35" y="104"/>
      <point x="118" y="-10"/>
      <point x="284" y="-10" type="curve" smooth="yes"/>
      <point x="316" y="-10"/>
      <point x="337" y="-9"/>
      <point x="390" y="-1" type="curve" smooth="yes"/>
      <point x="404" y="1"/>
      <point x="409" y="8"/>
      <point x="409" y="19" type="curve" smooth="yes"/>
      <point x="409" y="33"/>
      <point x="405" y="50"/>
      <point x="399" y="59" type="curve" smooth="yes"/>
      <point x="395" y="65"/>
      <point x="387" y="67"/>
      <point x="381" y="67" type="curve" smooth="yes"/>
      <point x="378" y="67"/>
      <point x="375" y="67"/>
      <point x="370" y="66" type="curve" smooth="yes"/>
      <point x="358" y="64"/>
      <point x="340" y="60"/>
      <point x="300" y="60" type="curve" smooth="yes"/>
      <point x="157" y="60"/>
      <point x="105" y="136"/>
      <point x="105" y="214" type="curve" smooth="yes"/>
      <point x="105" y="359"/>
      <point x="219" y="470"/>
      <point x="374" y="470" type="curve" smooth="yes"/>
      <point x="443" y="470"/>
      <point x="506" y="452"/>
      <point x="517" y="452" type="curve" smooth="yes"/>
      <point x="525" y="452"/>
      <point x="531" y="458"/>
      <point x="535" y="464" type="curve" smooth="yes"/>
      <point x="541" y="473"/>
      <point x="551" y="486"/>
      <point x="551" y="500" type="curve" smooth="yes"/>
      <point x="551" y="512"/>
      <point x="546" y="518"/>
      <point x="531" y="521" type="curve" smooth="yes"/>
      <point x="479" y="531"/>
      <point x="453" y="538"/>
      <point x="383" y="538" type="curve" smooth="yes"/>
      <point x="185" y="538"/>
      <point x="35" y="404"/>
    </contour>
  </outline>
</glyph>
<glyph name="uniA4F8" format="2">
  <advance width="175"/>
  <unicode hex="A4F8"/>
  <outline>
    <contour>
      <point x="177" y="79" type="curve" smooth="yes"/>
      <point x="177" y="104"/>
      <point x="161" y="125"/>
      <point x="133" y="125" type="curve" smooth="yes"/>
      <point x="90" y="125"/>
      <point x="56" y="75"/>
      <point x="56" y="37" type="curve" smooth="yes"/>
      <point x="56" y="13"/>
      <point x="70" y="-7"/>
      <point x="95" y="-7" type="curve" smooth="yes"/>
      <point x="140" y="-7"/>
      <point x="177" y="39"/>
    </contour>
  </outline>
</glyph>
<glyph name="uniA4F9" format="2">
  <advance width="162"/>
  <unicode hex="A4F9"/>
  <outline>
    <contour>
      <point x="21" y="-95" type="curve" smooth="yes"/>
      <point x="12" y="-95"/>
      <point x="0" y="-93"/>
      <point x="0" y="-87" type="curve" smooth="yes"/>
      <point x="0" y="-83"/>
      <point x="7" y="-76"/>
      <point x="16" y="-67" type="curve" smooth="yes"/>
      <point x="43" y="-42"/>
      <point x="71" y="-9"/>
      <point x="97" y="73" type="curve" smooth="yes"/>
      <point x="103" y="89"/>
      <point x="105" y="104"/>
      <point x="106" y="111" type="curve" smooth="yes"/>
      <point x="107" y="125"/>
      <point x="124" y="130"/>
      <point x="146" y="130" type="curve" smooth="yes"/>
      <point x="170" y="130"/>
      <point x="184" y="119"/>
      <point x="184" y="105" type="curve" smooth="yes"/>
      <point x="184" y="74"/>
      <point x="149" y="0"/>
      <point x="123" y="-34" type="curve" smooth="yes"/>
      <point x="96" y="-69"/>
      <point x="53" y="-95"/>
    </contour>
  </outline>
</glyph>
<glyph name="uniA4FA" format="2">
  <advance width="376"/>
  <unicode hex="A4FA"/>
  <guideline x="225" y="315" angle="70.9703"/>
  <outline>
    <contour>
      <point x="77" y="79" type="curve" smooth="yes"/>
      <point x="77" y="104"/>
      <point x="61" y="125"/>
      <point x="33" y="125" type="curve" smooth="yes"/>
      <point x="-10" y="125"/>
      <point x="-44" y="75"/>
      <point x="-44" y="37" type="curve" smooth="yes"/>
      <point x="-44" y="13"/>
      <point x="-30" y="-7"/>
      <point x="-5" y="-7" type="curve" smooth="yes"/>
      <point x="40" y="-7"/>
      <point x="77" y="39"/>
    </contour>
    <contour>
      <point x="285" y="79" type="curve" smooth="yes"/>
      <point x="285" y="104"/>
      <point x="269" y="125"/>
      <point x="241" y="125" type="curve" smooth="yes"/>
      <point x="198" y="125"/>
      <point x="165" y="75"/>
      <point x="165" y="37" type="curve" smooth="yes"/>
      <point x="165" y="13"/>
      <point x="179" y="-7"/>
      <point x="203" y="-7" type="curve" smooth="yes"/>
      <point x="249" y="-7"/>
      <point x="285" y="39"/>
    </contour>
  </outline>
</glyph>
<glyph name="uniA4FB" format="2">
  <advance width="371"/>
  <unicode hex="A4FB"/>
  <outline>
    <contour>
      <point x="225" y="-95" type="curve" smooth="yes"/>
      <point x="215" y="-95"/>
      <point x="203" y="-93"/>
      <point x="203" y="-87" type="curve" smooth="yes"/>
      <point x="203" y="-83"/>
      <point x="210" y="-76"/>
      <point x="219" y="-67" type="curve" smooth="yes"/>
      <point x="246" y="-42"/>
      <point x="274" y="-9"/>
      <point x="300" y="73" type="curve" smooth="yes"/>
      <point x="306" y="89"/>
      <point x="308" y="104"/>
      <point x="309" y="111" type="curve" smooth="yes"/>
      <point x="311" y="125"/>
      <point x="327" y="130"/>
      <point x="349" y="130" type="curve" smooth="yes"/>
      <point x="373" y="130"/>
      <point x="387" y="119"/>
      <point x="387" y="105" type="curve" smooth="yes"/>
      <point x="387" y="74"/>
      <point x="353" y="0"/>
      <point x="326" y="-34" type="curve" smooth="yes"/>
      <point x="299" y="-69"/>
      <point x="256" y="-95"/>
    </contour>
    <contour>
      <point x="177" y="79" type="curve" smooth="yes"/>
      <point x="177" y="104"/>
      <point x="161" y="125"/>
      <point x="133" y="125" type="curve" smooth="yes"/>
      <point x="90" y="125"/>
      <point x="56" y="75"/>
      <point x="56" y="37" type="curve" smooth="yes"/>
      <point x="56" y="13"/>
      <point x="70" y="-7"/>
      <point x="95" y="-7" type="curve" smooth="yes"/>
      <point x="140" y="-7"/>
      <point x="177" y="39"/>
    </contour>
  </outline>
</glyph>
<glyph name="uniA4FC" format="2">
  <advance width="246"/>
  <unicode hex="A4FC"/>
  <outline>
    <contour>
      <point x="29" y="-95" type="curve" smooth="yes"/>
      <point x="20" y="-95"/>
      <point x="8" y="-93"/>
      <point x="8" y="-87" type="curve" smooth="yes"/>
      <point x="8" y="-83"/>
      <point x="15" y="-76"/>
      <point x="24" y="-67" type="curve" smooth="yes"/>
      <point x="51" y="-42"/>
      <point x="79" y="-9"/>
      <point x="105" y="73" type="curve" smooth="yes"/>
      <point x="110" y="89"/>
      <point x="113" y="104"/>
      <point x="114" y="111" type="curve" smooth="yes"/>
      <point x="115" y="125"/>
      <point x="132" y="130"/>
      <point x="153" y="130" type="curve" smooth="yes"/>
      <point x="178" y="130"/>
      <point x="191" y="119"/>
      <point x="191" y="105" type="curve" smooth="yes"/>
      <point x="191" y="74"/>
      <point x="157" y="0"/>
      <point x="131" y="-34" type="curve" smooth="yes"/>
      <point x="104" y="-69"/>
      <point x="61" y="-95"/>
    </contour>
    <contour>
      <point x="287" y="343" type="curve" smooth="yes"/>
      <point x="287" y="368"/>
      <point x="271" y="389"/>
      <point x="243" y="389" type="curve" smooth="yes"/>
      <point x="200" y="389"/>
      <point x="166" y="338"/>
      <point x="166" y="301" type="curve" smooth="yes"/>
      <point x="166" y="277"/>
      <point x="180" y="257"/>
      <point x="205" y="257" type="curve" smooth="yes"/>
      <point x="250" y="257"/>
      <point x="287" y="302"/>
    </contour>
  </outline>
</glyph>
<glyph name="uniA4FD" format="2">
  <advance width="250"/>
  <unicode hex="A4FD"/>
  <outline>
    <contour>
      <point x="272" y="343" type="curve" smooth="yes"/>
      <point x="272" y="368"/>
      <point x="256" y="389"/>
      <point x="228" y="389" type="curve" smooth="yes"/>
      <point x="185" y="389"/>
      <point x="151" y="338"/>
      <point x="151" y="301" type="curve" smooth="yes"/>
      <point x="151" y="277"/>
      <point x="166" y="257"/>
      <point x="190" y="257" type="curve" smooth="yes"/>
      <point x="235" y="257"/>
      <point x="272" y="302"/>
    </contour>
    <contour>
      <point x="176" y="79" type="curve" smooth="yes"/>
      <point x="176" y="104"/>
      <point x="160" y="125"/>
      <point x="132" y="125" type="curve" smooth="yes"/>
      <point x="89" y="125"/>
      <point x="55" y="75"/>
      <point x="55" y="37" type="curve" smooth="yes"/>
      <point x="55" y="13"/>
      <point x="69" y="-7"/>
      <point x="94" y="-7" type="curve" smooth="yes"/>
      <point x="139" y="-7"/>
      <point x="176" y="39"/>
    </contour>
  </outline>
</glyph>
<glyph name="uniA4FE" format="2">
  <advance width="551"/>
  <unicode hex="A4FE"/>
  <outline>
    <contour>
      <point x="130" y="267" type="curve" smooth="yes"/>
      <point x="140" y="294"/>
      <point x="150" y="298"/>
      <point x="168" y="297" type="curve" smooth="yes"/>
      <point x="194" y="296"/>
      <point x="233" y="295"/>
      <point x="292" y="295" type="curve" smooth="yes"/>
      <point x="337" y="295"/>
      <point x="385" y="294"/>
      <point x="430" y="298" type="curve" smooth="yes"/>
      <point x="437" y="298"/>
      <point x="449" y="298"/>
      <point x="452" y="297" type="curve" smooth="yes"/>
      <point x="462" y="294"/>
      <point x="466" y="276"/>
      <point x="459" y="255" type="curve" smooth="yes"/>
      <point x="454" y="237"/>
      <point x="448" y="230"/>
      <point x="440" y="227" type="curve" smooth="yes"/>
      <point x="434" y="224"/>
      <point x="416" y="224"/>
      <point x="412" y="224" type="curve" smooth="yes"/>
      <point x="375" y="224"/>
      <point x="341" y="226"/>
      <point x="307" y="226" type="curve" smooth="yes"/>
      <point x="225" y="226"/>
      <point x="196" y="224"/>
      <point x="156" y="224" type="curve" smooth="yes"/>
      <point x="152" y="224"/>
      <point x="144" y="223"/>
      <point x="137" y="226" type="curve" smooth="yes"/>
      <point x="129" y="229"/>
      <point x="120" y="239"/>
    </contour>
    <contour>
      <point x="533" y="79" type="curve" smooth="yes"/>
      <point x="533" y="104"/>
      <point x="517" y="125"/>
      <point x="489" y="125" type="curve" smooth="yes"/>
      <point x="446" y="125"/>
      <point x="413" y="75"/>
      <point x="413" y="37" type="curve" smooth="yes"/>
      <point x="413" y="13"/>
      <point x="427" y="-7"/>
      <point x="451" y="-7" type="curve" smooth="yes"/>
      <point x="497" y="-7"/>
      <point x="533" y="39"/>
    </contour>
  </outline>
</glyph>
<glyph name="uniA4FF" format="2">
  <advance width="497"/>
  <unicode hex="A4FF"/>
  <outline>
    <contour>
      <point x="164" y="344" type="curve" smooth="yes"/>
      <point x="174" y="371"/>
      <point x="185" y="375"/>
      <point x="203" y="374" type="curve" smooth="yes"/>
      <point x="258" y="373"/>
      <point x="282" y="372"/>
      <point x="340" y="372" type="curve" smooth="yes"/>
      <point x="386" y="372"/>
      <point x="448" y="371"/>
      <point x="494" y="375" type="curve" smooth="yes"/>
      <point x="500" y="375"/>
      <point x="512" y="375"/>
      <point x="516" y="374" type="curve" smooth="yes"/>
      <point x="525" y="371"/>
      <point x="530" y="353"/>
      <point x="523" y="332" type="curve" smooth="yes"/>
      <point x="517" y="314"/>
      <point x="511" y="307"/>
      <point x="504" y="304" type="curve" smooth="yes"/>
      <point x="498" y="301"/>
      <point x="479" y="301"/>
      <point x="475" y="301" type="curve" smooth="yes"/>
      <point x="439" y="301"/>
      <point x="390" y="302"/>
      <point x="356" y="302" type="curve" smooth="yes"/>
      <point x="274" y="302"/>
      <point x="230" y="301"/>
      <point x="190" y="301" type="curve" smooth="yes"/>
      <point x="187" y="301"/>
      <point x="178" y="300"/>
      <point x="171" y="303" type="curve" smooth="yes"/>
      <point x="164" y="306"/>
      <point x="154" y="315"/>
    </contour>
    <contour>
      <point x="104" y="178" type="curve" smooth="yes"/>
      <point x="113" y="205"/>
      <point x="124" y="209"/>
      <point x="142" y="208" type="curve" smooth="yes"/>
      <point x="197" y="207"/>
      <point x="221" y="206"/>
      <point x="280" y="206" type="curve" smooth="yes"/>
      <point x="326" y="206"/>
      <point x="388" y="206"/>
      <point x="433" y="209" type="curve" smooth="yes"/>
      <point x="439" y="209"/>
      <point x="452" y="209"/>
      <point x="455" y="208" type="curve" smooth="yes"/>
      <point x="465" y="205"/>
      <point x="469" y="187"/>
      <point x="462" y="166" type="curve" smooth="yes"/>
      <point x="457" y="148"/>
      <point x="451" y="142"/>
      <point x="443" y="138" type="curve" smooth="yes"/>
      <point x="437" y="135"/>
      <point x="419" y="135"/>
      <point x="415" y="135" type="curve" smooth="yes"/>
      <point x="378" y="135"/>
      <point x="330" y="137"/>
      <point x="295" y="137" type="curve" smooth="yes"/>
      <point x="213" y="137"/>
      <point x="170" y="135"/>
      <point x="129" y="135" type="curve" smooth="yes"/>
      <point x="126" y="135"/>
      <point x="118" y="134"/>
      <point x="110" y="137" type="curve" smooth="yes"/>
      <point x="103" y="140"/>
      <point x="93" y="150"/>
    </contour>
  </outline>
</glyph>
<glyph name="uniA4D0.001" format="2">
  <advance width="463"/>
  <outline>
    <contour>
      <point x="195" y="239" type="curve" smooth="yes"/>
      <point x="336" y="239"/>
      <point x="437" y="292"/>
      <point x="437" y="401" type="curve" smooth="yes"/>
      <point x="437" y="481"/>
      <point x="368" y="538"/>
      <point x="202" y="538" type="curve" smooth="yes"/>
      <point x="170" y="538"/>
      <point x="144" y="538"/>
      <point x="91" y="530" type="curve" smooth="yes"/>
      <point x="77" y="528"/>
      <point x="72" y="521"/>
      <point x="72" y="510" type="curve" smooth="yes"/>
      <point x="72" y="496"/>
      <point x="77" y="479"/>
      <point x="83" y="470" type="curve" smooth="yes"/>
      <point x="87" y="464"/>
      <point x="94" y="462"/>
      <point x="101" y="462" type="curve" smooth="yes"/>
      <point x="104" y="462"/>
      <point x="106" y="462"/>
      <point x="111" y="463" type="curve" smooth="yes"/>
      <point x="123" y="465"/>
      <point x="146" y="470"/>
      <point x="186" y="470" type="curve" smooth="yes"/>
      <point x="319" y="470"/>
      <point x="367" y="442"/>
      <point x="367" y="395" type="curve" smooth="yes"/>
      <point x="367" y="328"/>
      <point x="294" y="301"/>
      <point x="208" y="301" type="curve" smooth="yes"/>
      <point x="180" y="301"/>
      <point x="167" y="301"/>
      <point x="124" y="304" type="curve"/>
      <point x="100" y="242" type="line"/>
      <point x="147" y="239"/>
      <point x="157" y="239"/>
    </contour>
    <contour>
      <point x="16" y="81" type="curve" smooth="yes"/>
      <point x="16" y="63"/>
      <point x="21" y="40"/>
      <point x="40" y="23" type="curve" smooth="yes"/>
      <point x="71" y="-4"/>
      <point x="113" y="-11"/>
      <point x="164" y="-11" type="curve" smooth="yes"/>
      <point x="268" y="-11"/>
      <point x="376" y="50"/>
      <point x="376" y="143" type="curve" smooth="yes"/>
      <point x="376" y="212"/>
      <point x="307" y="294"/>
      <point x="166" y="294" type="curve" smooth="yes"/>
      <point x="147" y="294"/>
      <point x="124" y="294"/>
      <point x="110" y="294" type="curve"/>
      <point x="86" y="237" type="line"/>
      <point x="100" y="238"/>
      <point x="118" y="239"/>
      <point x="130" y="239" type="curve" smooth="yes"/>
      <point x="265" y="239"/>
      <point x="306" y="193"/>
      <point x="306" y="142" type="curve" smooth="yes"/>
      <point x="306" y="81"/>
      <point x="224" y="49"/>
      <point x="171" y="49" type="curve" smooth="yes"/>
      <point x="127" y="49"/>
      <point x="93" y="61"/>
      <point x="93" y="83" type="curve" smooth="yes"/>
      <point x="93" y="96"/>
      <point x="98" y="115"/>
      <point x="108" y="147" type="curve" smooth="yes"/>
      <point x="117" y="176"/>
      <point x="152" y="270"/>
      <point x="188" y="366" type="curve" smooth="yes"/>
      <point x="204" y="409"/>
      <point x="216" y="454"/>
      <point x="236" y="495" type="curve" smooth="yes"/>
      <point x="239" y="501"/>
      <point x="240" y="505"/>
      <point x="240" y="509" type="curve" smooth="yes"/>
      <point x="240" y="520"/>
      <point x="222" y="531"/>
      <point x="201" y="531" type="curve" smooth="yes"/>
      <point x="183" y="531"/>
      <point x="174" y="527"/>
      <point x="168" y="521" type="curve" smooth="yes"/>
      <point x="163" y="516"/>
      <point x="160" y="507"/>
      <point x="159" y="502" type="curve" smooth="yes"/>
      <point x="152" y="467"/>
      <point x="138" y="436"/>
      <point x="127" y="403" type="curve" smooth="yes"/>
      <point x="96" y="313"/>
      <point x="64" y="229"/>
      <point x="32" y="140" type="curve" smooth="yes"/>
      <point x="22" y="112"/>
      <point x="16" y="93"/>
    </contour>
  </outline>
</glyph>
<glyph name="uniA4D6.001" format="2">
  <advance width="465"/>
  <guideline x="271" y="315" angle="70.9703"/>
  <outline>
    <contour>
      <point x="-2" y="161" type="curve" smooth="yes"/>
      <point x="-2" y="58"/>
      <point x="55" y="-10"/>
      <point x="151" y="-10" type="curve" smooth="yes"/>
      <point x="258" y="-10"/>
      <point x="342" y="94"/>
      <point x="360" y="161" type="curve" smooth="yes"/>
      <point x="363" y="172"/>
      <point x="364" y="179"/>
      <point x="364" y="185" type="curve" smooth="yes"/>
      <point x="364" y="208"/>
      <point x="342" y="215"/>
      <point x="320" y="215" type="curve" smooth="yes"/>
      <point x="307" y="215"/>
      <point x="301" y="211"/>
      <point x="296" y="200" type="curve" smooth="yes"/>
      <point x="293" y="193"/>
      <point x="289" y="177"/>
      <point x="283" y="160" type="curve" smooth="yes"/>
      <point x="270" y="122"/>
      <point x="213" y="59"/>
      <point x="159" y="59" type="curve" smooth="yes"/>
      <point x="106" y="59"/>
      <point x="68" y="104"/>
      <point x="68" y="172" type="curve" smooth="yes"/>
      <point x="68" y="307"/>
      <point x="166" y="469"/>
      <point x="266" y="469" type="curve" smooth="yes"/>
      <point x="302" y="469"/>
      <point x="317" y="462"/>
      <point x="336" y="443" type="curve" smooth="yes"/>
      <point x="341" y="438"/>
      <point x="344" y="433"/>
      <point x="348" y="428" type="curve" smooth="yes"/>
      <point x="353" y="422"/>
      <point x="357" y="417"/>
      <point x="365" y="417" type="curve" smooth="yes"/>
      <point x="380" y="417"/>
      <point x="418" y="433"/>
      <point x="418" y="449" type="curve" smooth="yes"/>
      <point x="418" y="461"/>
      <point x="404" y="482"/>
      <point x="388" y="498" type="curve" smooth="yes"/>
      <point x="365" y="521"/>
      <point x="329" y="538"/>
      <point x="276" y="538" type="curve" smooth="yes"/>
      <point x="115" y="538"/>
      <point x="-2" y="330"/>
    </contour>
    <contour>
      <point x="406" y="205" type="curve" smooth="yes"/>
      <point x="410" y="214"/>
      <point x="410" y="221"/>
      <point x="410" y="227" type="curve" smooth="yes"/>
      <point x="410" y="239"/>
      <point x="404" y="245"/>
      <point x="399" y="246" type="curve" smooth="yes"/>
      <point x="392" y="247"/>
      <point x="384" y="248"/>
      <point x="380" y="248" type="curve" smooth="yes"/>
      <point x="354" y="248"/>
      <point x="340" y="247"/>
      <point x="297" y="247" type="curve" smooth="yes"/>
      <point x="278" y="247"/>
      <point x="258" y="248"/>
      <point x="232" y="248" type="curve" smooth="yes"/>
      <point x="227" y="248"/>
      <point x="209" y="248"/>
      <point x="203" y="245" type="curve" smooth="yes"/>
      <point x="196" y="242"/>
      <point x="191" y="235"/>
      <point x="184" y="217" type="curve" smooth="yes"/>
      <point x="182" y="212"/>
      <point x="179" y="205"/>
      <point x="179" y="199" type="curve" smooth="yes"/>
      <point x="179" y="194"/>
      <point x="180" y="190"/>
      <point x="183" y="187" type="curve" smooth="yes"/>
      <point x="188" y="182"/>
      <point x="198" y="179"/>
      <point x="213" y="179" type="curve" smooth="yes"/>
      <point x="249" y="179"/>
      <point x="282" y="182"/>
      <point x="313" y="182" type="curve" smooth="yes"/>
      <point x="330" y="182"/>
      <point x="337" y="180"/>
      <point x="367" y="180" type="curve" smooth="yes"/>
      <point x="386" y="180"/>
      <point x="396" y="183"/>
    </contour>
  </outline>
</glyph>
<glyph name="uniA4D8.001" format="2">
  <advance width="485"/>
  <guideline x="277" y="315" angle="70.9703"/>
  <outline>
    <contour>
      <point x="244" y="263" type="curve"/>
      <point x="294" y="226" type="line"/>
      <point x="319" y="291" type="line"/>
      <point x="243" y="341"/>
      <point x="208" y="428"/>
      <point x="208" y="507" type="curve" smooth="yes"/>
      <point x="208" y="512"/>
      <point x="205" y="518"/>
      <point x="203" y="521" type="curve" smooth="yes"/>
      <point x="195" y="533"/>
      <point x="175" y="538"/>
      <point x="161" y="538" type="curve" smooth="yes"/>
      <point x="139" y="538"/>
      <point x="136" y="529"/>
      <point x="131" y="520" type="curve" smooth="yes"/>
      <point x="130" y="518"/>
      <point x="130" y="514"/>
      <point x="130" y="512" type="curve" smooth="yes"/>
      <point x="130" y="421"/>
      <point x="168" y="327"/>
    </contour>
    <contour>
      <point x="276" y="240" type="curve"/>
      <point x="223" y="285" type="line"/>
      <point x="108" y="224"/>
      <point x="37" y="154"/>
      <point x="-35" y="63" type="curve" smooth="yes"/>
      <point x="-54" y="39"/>
      <point x="-69" y="22"/>
      <point x="-69" y="11" type="curve" smooth="yes"/>
      <point x="-69" y="-3"/>
      <point x="-51" y="-9"/>
      <point x="-29" y="-9" type="curve" smooth="yes"/>
      <point x="7" y="-9"/>
      <point x="14" y="5"/>
      <point x="42" y="41" type="curve" smooth="yes"/>
      <point x="113" y="133"/>
      <point x="157" y="174"/>
    </contour>
    <contour>
      <point x="245" y="-9" type="curve" smooth="yes"/>
      <point x="274" y="-9"/>
      <point x="284" y="0"/>
      <point x="290" y="17" type="curve" smooth="yes"/>
      <point x="296" y="33"/>
      <point x="304" y="66"/>
      <point x="316" y="104" type="curve" smooth="yes"/>
      <point x="339" y="177"/>
      <point x="369" y="270"/>
      <point x="405" y="366" type="curve" smooth="yes"/>
      <point x="421" y="409"/>
      <point x="441" y="452"/>
      <point x="455" y="495" type="curve" smooth="yes"/>
      <point x="457" y="501"/>
      <point x="461" y="513"/>
      <point x="461" y="516" type="curve" smooth="yes"/>
      <point x="461" y="527"/>
      <point x="443" y="538"/>
      <point x="421" y="538" type="curve" smooth="yes"/>
      <point x="402" y="538"/>
      <point x="393" y="535"/>
      <point x="388" y="529" type="curve" smooth="yes"/>
      <point x="383" y="523"/>
      <point x="378" y="507"/>
      <point x="376" y="502" type="curve" smooth="yes"/>
      <point x="363" y="469"/>
      <point x="355" y="436"/>
      <point x="344" y="403" type="curve" smooth="yes"/>
      <point x="314" y="313"/>
      <point x="281" y="226"/>
      <point x="252" y="140" type="curve" smooth="yes"/>
      <point x="240" y="104"/>
      <point x="226" y="68"/>
      <point x="213" y="30" type="curve" smooth="yes"/>
      <point x="212" y="27"/>
      <point x="208" y="19"/>
      <point x="208" y="11" type="curve" smooth="yes"/>
      <point x="208" y="3"/>
      <point x="216" y="-9"/>
    </contour>
  </outline>
</glyph>
<glyph name="uniA4DC.001" format="2">
  <advance width="464"/>
  <guideline x="268" y="315" angle="70.9703"/>
  <outline>
    <contour>
      <point x="63" y="488" type="curve" smooth="yes"/>
      <point x="72" y="461"/>
      <point x="84" y="457"/>
      <point x="102" y="457" type="curve" smooth="yes"/>
      <point x="119" y="457"/>
      <point x="153" y="458"/>
      <point x="192" y="458" type="curve" smooth="yes"/>
      <point x="221" y="458"/>
      <point x="270" y="459"/>
      <point x="323" y="459" type="curve" smooth="yes"/>
      <point x="368" y="459"/>
      <point x="416" y="458"/>
      <point x="461" y="458" type="curve" smooth="yes"/>
      <point x="467" y="458"/>
      <point x="480" y="458"/>
      <point x="483" y="459" type="curve" smooth="yes"/>
      <point x="490" y="461"/>
      <point x="495" y="470"/>
      <point x="495" y="481" type="curve" smooth="yes"/>
      <point x="495" y="487"/>
      <point x="493" y="493"/>
      <point x="491" y="500" type="curve" smooth="yes"/>
      <point x="486" y="518"/>
      <point x="479" y="524"/>
      <point x="471" y="527" type="curve" smooth="yes"/>
      <point x="464" y="530"/>
      <point x="447" y="531"/>
      <point x="442" y="531" type="curve" smooth="yes"/>
      <point x="406" y="531"/>
      <point x="372" y="529"/>
      <point x="338" y="529" type="curve" smooth="yes"/>
      <point x="293" y="529"/>
      <point x="253" y="530"/>
      <point x="206" y="530" type="curve" smooth="yes"/>
      <point x="168" y="530"/>
      <point x="129" y="531"/>
      <point x="89" y="531" type="curve" smooth="yes"/>
      <point x="83" y="531"/>
      <point x="76" y="531"/>
      <point x="70" y="529" type="curve" smooth="yes"/>
      <point x="65" y="527"/>
      <point x="59" y="521"/>
      <point x="59" y="509" type="curve" smooth="yes"/>
      <point x="59" y="504"/>
      <point x="60" y="497"/>
    </contour>
    <contour>
      <point x="104" y="64" type="curve" smooth="yes"/>
      <point x="66" y="64"/>
      <point x="12" y="64"/>
      <point x="-28" y="64" type="curve" smooth="yes"/>
      <point x="-34" y="64"/>
      <point x="-40" y="66"/>
      <point x="-47" y="63" type="curve" smooth="yes"/>
      <point x="-52" y="61"/>
      <point x="-58" y="57"/>
      <point x="-58" y="45" type="curve" smooth="yes"/>
      <point x="-58" y="40"/>
      <point x="-57" y="34"/>
      <point x="-54" y="25" type="curve" smooth="yes"/>
      <point x="-45" y="-2"/>
      <point x="-33" y="-8"/>
      <point x="-15" y="-8" type="curve" smooth="yes"/>
      <point x="3" y="-8"/>
      <point x="36" y="-5"/>
      <point x="76" y="-5" type="curve" smooth="yes"/>
      <point x="140" y="-5"/>
      <point x="232" y="-8"/>
      <point x="288" y="-8" type="curve" smooth="yes"/>
      <point x="335" y="-8"/>
      <point x="362" y="9"/>
      <point x="376" y="36" type="curve" smooth="yes"/>
      <point x="377" y="38"/>
      <point x="377" y="40"/>
      <point x="377" y="42" type="curve" smooth="yes"/>
      <point x="377" y="58"/>
      <point x="365" y="64"/>
      <point x="349" y="64" type="curve" smooth="yes"/>
      <point x="345" y="64"/>
      <point x="342" y="64"/>
      <point x="338" y="63" type="curve" smooth="yes"/>
      <point x="325" y="60"/>
      <point x="306" y="61"/>
      <point x="290" y="61" type="curve" smooth="yes"/>
      <point x="263" y="61"/>
      <point x="147" y="64"/>
    </contour>
    <contour>
      <point x="-22" y="3" type="curve" smooth="yes"/>
      <point x="-18" y="3"/>
      <point x="-9" y="9"/>
      <point x="-1" y="15" type="curve" smooth="yes"/>
      <point x="82" y="77"/>
      <point x="429" y="406"/>
      <point x="462" y="439" type="curve" smooth="yes"/>
      <point x="471" y="448"/>
      <point x="479" y="453"/>
      <point x="487" y="461" type="curve" smooth="yes"/>
      <point x="490" y="464"/>
      <point x="491" y="468"/>
      <point x="491" y="475" type="curve" smooth="yes"/>
      <point x="491" y="481"/>
      <point x="489" y="489"/>
      <point x="486" y="498" type="curve" smooth="yes"/>
      <point x="483" y="507"/>
      <point x="467" y="516"/>
      <point x="453" y="516" type="curve" smooth="yes"/>
      <point x="440" y="516"/>
      <point x="436" y="513"/>
      <point x="424" y="500" type="curve" smooth="yes"/>
      <point x="401" y="475"/>
      <point x="25" y="117"/>
      <point x="-50" y="61" type="curve" smooth="yes"/>
      <point x="-54" y="58"/>
      <point x="-57" y="53"/>
      <point x="-57" y="46" type="curve" smooth="yes"/>
      <point x="-57" y="42"/>
      <point x="-57" y="37"/>
      <point x="-55" y="31" type="curve" smooth="yes"/>
      <point x="-53" y="25"/>
      <point x="-45" y="13"/>
      <point x="-39" y="8" type="curve" smooth="yes"/>
      <point x="-35" y="5"/>
      <point x="-29" y="3"/>
    </contour>
  </outline>
</glyph>
<glyph name="uniA4E3.001" format="2">
  <advance width="484"/>
  <outline>
    <contour>
      <point x="363" y="-9" type="curve" smooth="yes"/>
      <point x="385" y="-9"/>
      <point x="401" y="-2"/>
      <point x="401" y="7" type="curve" smooth="yes"/>
      <point x="401" y="18"/>
      <point x="399" y="32"/>
      <point x="389" y="59" type="curve" smooth="yes"/>
      <point x="362" y="131"/>
      <point x="309" y="229"/>
      <point x="259" y="284" type="curve"/>
      <point x="202" y="248" type="line"/>
      <point x="255" y="188"/>
      <point x="287" y="122"/>
      <point x="314" y="51" type="curve" smooth="yes"/>
      <point x="323" y="27"/>
      <point x="323" y="9"/>
      <point x="331" y="0" type="curve" smooth="yes"/>
      <point x="337" y="-7"/>
      <point x="349" y="-9"/>
    </contour>
    <contour>
      <point x="131" y="228" type="line"/>
      <point x="178" y="225"/>
      <point x="188" y="224"/>
      <point x="226" y="224" type="curve" smooth="yes"/>
      <point x="375" y="224"/>
      <point x="468" y="292"/>
      <point x="468" y="401" type="curve" smooth="yes"/>
      <point x="468" y="478"/>
      <point x="400" y="538"/>
      <point x="234" y="538" type="curve" smooth="yes"/>
      <point x="202" y="538"/>
      <point x="176" y="538"/>
      <point x="123" y="530" type="curve" smooth="yes"/>
      <point x="109" y="528"/>
      <point x="104" y="521"/>
      <point x="104" y="510" type="curve" smooth="yes"/>
      <point x="104" y="496"/>
      <point x="107" y="482"/>
      <point x="113" y="473" type="curve" smooth="yes"/>
      <point x="117" y="467"/>
      <point x="124" y="465"/>
      <point x="131" y="465" type="curve" smooth="yes"/>
      <point x="134" y="465"/>
      <point x="136" y="465"/>
      <point x="141" y="466" type="curve" smooth="yes"/>
      <point x="153" y="468"/>
      <point x="178" y="472"/>
      <point x="218" y="472" type="curve" smooth="yes"/>
      <point x="351" y="472"/>
      <point x="398" y="442"/>
      <point x="398" y="395" type="curve" smooth="yes"/>
      <point x="398" y="328"/>
      <point x="325" y="292"/>
      <point x="239" y="292" type="curve" smooth="yes"/>
      <point x="211" y="292"/>
      <point x="198" y="293"/>
      <point x="155" y="295" type="curve"/>
    </contour>
    <contour>
      <point x="59" y="-9" type="curve" smooth="yes"/>
      <point x="88" y="-9"/>
      <point x="99" y="0"/>
      <point x="104" y="17" type="curve" smooth="yes"/>
      <point x="109" y="33"/>
      <point x="118" y="66"/>
      <point x="130" y="104" type="curve" smooth="yes"/>
      <point x="153" y="177"/>
      <point x="183" y="270"/>
      <point x="219" y="366" type="curve" smooth="yes"/>
      <point x="235" y="409"/>
      <point x="251" y="454"/>
      <point x="263" y="486" type="curve" smooth="yes"/>
      <point x="268" y="499"/>
      <point x="269" y="505"/>
      <point x="269" y="511" type="curve" smooth="yes"/>
      <point x="269" y="520"/>
      <point x="253" y="531"/>
      <point x="232" y="531" type="curve" smooth="yes"/>
      <point x="214" y="531"/>
      <point x="205" y="528"/>
      <point x="201" y="521" type="curve" smooth="yes"/>
      <point x="198" y="516"/>
      <point x="194" y="507"/>
      <point x="192" y="502" type="curve" smooth="yes"/>
      <point x="179" y="470"/>
      <point x="169" y="436"/>
      <point x="158" y="403" type="curve" smooth="yes"/>
      <point x="128" y="313"/>
      <point x="99" y="229"/>
      <point x="67" y="140" type="curve" smooth="yes"/>
      <point x="54" y="104"/>
      <point x="41" y="68"/>
      <point x="28" y="30" type="curve" smooth="yes"/>
      <point x="26" y="24"/>
      <point x="23" y="18"/>
      <point x="23" y="11" type="curve" smooth="yes"/>
      <point x="23" y="3"/>
      <point x="30" y="-9"/>
    </contour>
  </outline>
</glyph>
<glyph name="uniA4E8.001" format="2">
  <advance width="496"/>
  <outline>
    <contour>
      <point x="188" y="59" type="curve" smooth="yes"/>
      <point x="289" y="59"/>
      <point x="386" y="222"/>
      <point x="386" y="357" type="curve" smooth="yes"/>
      <point x="386" y="425"/>
      <point x="348" y="470"/>
      <point x="295" y="470" type="curve" smooth="yes"/>
      <point x="237" y="470"/>
      <point x="184" y="419"/>
      <point x="167" y="370" type="curve" smooth="yes"/>
      <point x="161" y="353"/>
      <point x="157" y="336"/>
      <point x="154" y="330" type="curve" smooth="yes"/>
      <point x="148" y="318"/>
      <point x="143" y="314"/>
      <point x="130" y="314" type="curve" smooth="yes"/>
      <point x="108" y="314"/>
      <point x="91" y="321"/>
      <point x="91" y="344" type="curve" smooth="yes"/>
      <point x="91" y="351"/>
      <point x="92" y="357"/>
      <point x="95" y="368" type="curve" smooth="yes"/>
      <point x="116" y="444"/>
      <point x="196" y="538"/>
      <point x="303" y="538" type="curve" smooth="yes"/>
      <point x="399" y="538"/>
      <point x="457" y="472"/>
      <point x="457" y="368" type="curve" smooth="yes"/>
      <point x="457" y="200"/>
      <point x="340" y="-10"/>
      <point x="178" y="-10" type="curve" smooth="yes"/>
      <point x="95" y="-10"/>
      <point x="58" y="36"/>
      <point x="40" y="63" type="curve" smooth="yes"/>
      <point x="32" y="75"/>
      <point x="25" y="91"/>
      <point x="25" y="104" type="curve" smooth="yes"/>
      <point x="25" y="125"/>
      <point x="63" y="139"/>
      <point x="79" y="139" type="curve" smooth="yes"/>
      <point x="86" y="139"/>
      <point x="89" y="136"/>
      <point x="92" y="132" type="curve" smooth="yes"/>
      <point x="95" y="127"/>
      <point x="97" y="119"/>
      <point x="103" y="109" type="curve" smooth="yes"/>
      <point x="112" y="94"/>
      <point x="134" y="59"/>
    </contour>
    <contour>
      <point x="49" y="324" type="curve" smooth="yes"/>
      <point x="57" y="343"/>
      <point x="69" y="348"/>
      <point x="87" y="348" type="curve" smooth="yes"/>
      <point x="108" y="348"/>
      <point x="125" y="346"/>
      <point x="142" y="346" type="curve" smooth="yes"/>
      <point x="173" y="346"/>
      <point x="206" y="348"/>
      <point x="241" y="348" type="curve" smooth="yes"/>
      <point x="257" y="348"/>
      <point x="266" y="346"/>
      <point x="272" y="340" type="curve" smooth="yes"/>
      <point x="275" y="337"/>
      <point x="276" y="333"/>
      <point x="276" y="328" type="curve" smooth="yes"/>
      <point x="276" y="322"/>
      <point x="274" y="315"/>
      <point x="271" y="308" type="curve" smooth="yes"/>
      <point x="267" y="299"/>
      <point x="260" y="289"/>
      <point x="253" y="286" type="curve" smooth="yes"/>
      <point x="245" y="283"/>
      <point x="227" y="283"/>
      <point x="223" y="283" type="curve" smooth="yes"/>
      <point x="197" y="283"/>
      <point x="177" y="285"/>
      <point x="157" y="285" type="curve" smooth="yes"/>
      <point x="115" y="285"/>
      <point x="100" y="283"/>
      <point x="74" y="283" type="curve" smooth="yes"/>
      <point x="52" y="283"/>
      <point x="44" y="288"/>
      <point x="44" y="305" type="curve" smooth="yes"/>
      <point x="44" y="311"/>
      <point x="47" y="319"/>
    </contour>
  </outline>
</glyph>
